<?xml version="1.0" encoding="utf-8"?>
<!-- Generator: Adobe Illustrator 16.0.4, SVG Export Plug-In . SVG Version: 6.00 Build 0)  -->
<!DOCTYPE svg PUBLIC "-//W3C//DTD SVG 1.1//EN" "http://www.w3.org/Graphics/SVG/1.1/DTD/svg11.dtd">
<svg version="1.1" id="Layer_1" xmlns="http://www.w3.org/2000/svg" xmlns:xlink="http://www.w3.org/1999/xlink" x="0px" y="0px"
	 width="909.069px" height="363.599px" viewBox="0 0 909.069 363.599" enable-background="new 0 0 909.069 363.599"
	 xml:space="preserve">
<path d="M345.372,176.523c-4.706,1.854-10.358-0.102-12.735-6.145c-0.662-1.676-0.915-3.299-1.09-4.503l2.981-1.173
	c-0.357,1.041-1.161,3.243-0.093,5.947c1.393,3.539,5.52,5.464,10.084,3.659c4.411-1.74,5.904-5.537,4.484-9.138
	c-1.09-2.775-3.145-3.955-4.703-4.876l2.843-0.915c0.859,0.881,2.485,2.522,3.563,5.245
	C352.979,170.392,349.13,175.042,345.372,176.523 M328.731,157.452l0.736,3.28c1.293-1.004,1.731-1.103,5.64-2.058l8.226-1.842
	c1.109-0.246,2.03-0.428,4.25-0.24l-0.745-3.311c-0.801,0.486-1.94,1.148-4.595,1.746l-3.641,0.816l-1.95-8.707l4.118-0.927
	c2.538-0.567,3.496-0.472,4.392-0.397l-0.733-3.28c-0.952,0.595-2.048,1.244-5.646,2.051l-8.464,1.974
	c-1.571,0.354-2.347,0.373-3.988,0.182l0.714,3.212c0.699-0.41,1.817-1.065,3.798-1.509l4.093-0.921l2.057,8.68l-3.844,0.865
	C330.555,157.646,329.507,157.529,328.731,157.452 M329.387,139.299c-2.021,0.178-2.208,0.265-3.881,1.01l-0.351-4.706
	c-0.095-1.325,0.906-3.456,1.752-4.358c0.687-0.745,1.728-1.42,3.129-1.516c2.56-0.193,3.733,1.251,4.623,2.551l0.97,1.407
	c2.125-1.786,3.724-3.169,7.45-7.306l0.164,2.215c-1.09,1.638-2.239,3.083-4.032,4.706l-3.847,3.474l2.883-0.215
	c1.848-0.13,4.026-0.416,5.513-1.097l0.24,3.326c-1.74-0.493-1.842-0.486-5.538-0.265L329.387,139.299 M327.312,133.989
	c-0.739,1.318-0.699,2.572-0.662,3.395c0.687-0.034,1.66-0.034,3.924-0.204l4.574-0.385c-0.438-1.475-1.1-3.406-1.968-4.161
	c-0.425-0.335-1.426-0.859-2.418-0.782C329.557,131.938,328.118,132.569,327.312,133.989 M343.09,118.833
	c-2.686-2.688-2.8-2.781-7.459-6.157l-9.551-6.668l11.599-2.932c1.318-0.302,4.983-1.331,5.843-1.685
	c0.314-0.126,0.869-0.349,2.294-1.084l-0.597,4.081c-0.684-0.277-0.93-0.314-1.041-0.33c-1.3-0.188-2.437,0.089-3.262,0.292
	l-2.828,0.706c-0.397,2.208-0.631,3.619-1.084,6.554l1.925,1.324c2.554,1.771,3.462,2.209,4.667,2.486L343.09,118.833
	 M335.307,110.557l0.952-5.097l-6.255,1.527L335.307,110.557z M332.569,94.298l8.812,2.766c0.635,0.207,1.62,0.53,3.247-0.083
	c1.383-0.511,3.098-1.771,3.804-3.949c0.619-1.906,0.203-4.303-0.77-6.644c0.834,0.222,1.691,0.475,2.485,0.807l0.822-2.529
	c-1.34,0.151-1.996,0.077-4.081-0.609l-8.094-2.64c-3.81-1.235-3.875-1.284-5.501-2.409l-0.998,3.046
	c2.057,0.077,2.532,0.15,6.329,1.389l4.484,1.463c0.982,0.324,1.709,0.555,2.289,1.078c1.01,0.902,2.144,2.907,1.364,5.325
	c-0.12,0.379-1.155,3.526-3.856,3.625c-1.241,0.065-2.769-0.428-3.779-0.761l-5.467-1.78c-2.643-0.831-3.382-1.413-4.081-1.98
	l-1.112,3.407C330.096,93.599,331.198,93.876,332.569,94.298 M344.232,77.943c3.231,1.762,9.107,1.962,12.982-5.14
	c1.337-2.449,1.759-4.358,2.042-5.55l-2.036-1.053c-0.367-0.204-2.997-1.667-3.601-2.052c-0.671-0.422-1.004-0.89-1.592-1.937
	l-1.946,3.579c2.079,0.093,2.301,0.105,3.083,0.53l3.08,1.675l0.958,0.557c-0.185,0.687-0.397,1.608-1.204,3.077
	c-3.327,6.086-8.473,5.381-11.224,3.881c-3.896-2.128-5.134-6.511-2.997-10.429c1.564-2.864,3.761-3.798,4.91-4.294l-2.92-1.653
	c-1.604,2.162-2.498,3.388-3.28,4.82C336.751,70.798,341.029,76.197,344.232,77.943 M358.465,60.283
	c0.518,0.419,1.318,1.065,3.059,1.072c1.475,0.021,3.521-0.549,4.953-2.332c1.26-1.552,1.722-3.93,1.645-6.465
	c0.702,0.496,1.401,1.038,2.033,1.639l1.663-2.076c-1.306-0.327-1.885-0.638-3.594-2.011l-6.616-5.344
	c-3.104-2.504-3.142-2.572-4.266-4.207l-2.011,2.498c1.885,0.794,2.294,1.029,5.405,3.539l3.665,2.959
	c0.801,0.65,1.396,1.127,1.752,1.82c0.619,1.201,0.967,3.478-0.622,5.452c-0.252,0.308-2.322,2.876-4.891,2.011
	c-1.18-0.379-2.427-1.386-3.252-2.048l-4.466-3.61c-2.165-1.715-2.658-2.522-3.104-3.298l-2.245,2.781
	c1.595,0.373,2.522,1.029,3.659,1.907L358.465,60.283z M369.272,41.862c4.626-1.198,5.47-1.408,6.681-0.108
	c1.281,1.376,1.105,3.357-0.151,4.518c-1.281,1.192-2.944,0.856-4.262,0.598c0.875,0.872,1.974,1.975,2.599,2.683
	c0.653-0.348,1.759-0.973,2.338-1.509c2.347-2.187,3.034-5.72,0.834-8.095c-2.088-2.235-4.278-1.481-6.529-0.705
	c-1.426,0.493-3.388,0.998-4.762-0.483c-1.13-1.214-1.143-3.256,0.08-4.404c1.238-1.143,2.972-0.832,3.678-0.721
	c-0.043-0.049-1.445-1.481-2.067-2.224c-0.702,0.219-1.66,0.573-2.467,1.33c-2.227,2.061-2.575,5.354-0.324,7.777
	C365.324,40.954,366.775,42.506,369.272,41.862 M376.674,25.446l7.7,10.653c0.518,0.727,1.3,1.805,1.792,3.548l2.643-1.9
	c-1.029-0.631-1.642-1.191-2.806-2.812l-5.938-8.227c-0.511-0.724-1.21-1.74-1.669-2.504c2.679-1.685,3.16-1.943,4.577-2.082
	c-0.397-1.054-0.561-1.999-0.616-2.624l-10.61,7.638l0.878,2.689C373.424,28.116,374.838,26.955,376.674,25.446 M388.633,20.715
	l5.285,9.197c0.789,1.367,0.896,1.759,1.257,3.714l3.04-1.74c-1.451-1.275-1.805-1.762-2.322-2.599l-5.846-10.124
	c-0.89-1.54-0.961-2.011-1.081-3.363l-3.019,1.731C387.25,18.55,387.561,18.855,388.633,20.715 M396.887,17.013l3.678,8.827
	c0.616,1.481,0.807,2.199,1.053,3.933l2.732-1.133c-0.601-0.656-1.275-1.395-2.612-4.598l-3.634-8.71l13.53,7.795
	c0.807,0.462,1.521,1.022,2.289,1.527l1.956-0.816c-0.724-0.794-1.266-1.956-1.626-2.824l-4.044-9.708
	c-1.161-2.587-1.204-3.262-1.266-4.648l-3.056,1.266c1.226,1.093,1.565,1.383,2.979,4.795l3.563,8.528
	c-1.312-0.708-2.593-1.466-3.872-2.233l-10.118-6.037c-0.955-0.563-1.18-0.715-1.805-1.198l-3.419,1.423
	c1.072,0.385,1.602,0.638,2.359,1.041C396.04,15.122,396.45,15.969,396.887,17.013 M419.278,17.309
	c0.139,0.65,0.367,1.664,1.722,2.757c1.143,0.939,3.095,1.771,5.338,1.272c1.946-0.422,3.807-1.999,5.334-4.022
	c0.24,0.831,0.45,1.697,0.561,2.553l2.606-0.573c-0.813-1.084-1.078-1.685-1.552-3.829l-1.836-8.328
	c-0.85-3.908-0.844-3.985-0.699-5.966l-3.141,0.693c0.979,1.805,1.155,2.251,2.02,6.157l1.014,4.611
	c0.222,1.01,0.385,1.759,0.222,2.522c-0.265,1.324-1.408,3.326-3.899,3.874c-0.385,0.087-3.619,0.795-5.082-1.49
	c-0.684-1.032-1.029-2.603-1.257-3.644l-1.235-5.615c-0.619-2.698-0.499-3.64-0.36-4.521l-3.502,0.77
	c1.016,1.291,1.331,2.384,1.666,3.776L419.278,17.309z M439.267,9.665c4.361,1.937,5.162,2.294,5.301,4.069
	c0.145,1.866-1.223,3.311-2.929,3.449c-1.746,0.133-2.831-1.167-3.714-2.187c0.151,1.229,0.323,2.775,0.373,3.708
	c0.727,0.145,1.98,0.339,2.769,0.277c3.197-0.247,5.929-2.594,5.683-5.815c-0.237-3.049-2.427-3.816-4.666-4.611
	c-1.433-0.505-3.274-1.333-3.431-3.345c-0.126-1.645,1.127-3.256,2.8-3.394c1.672-0.126,2.846,1.192,3.329,1.722
	c-0.006-0.068-0.206-2.061-0.237-3.018c-0.689-0.274-1.654-0.595-2.756-0.505c-3.027,0.24-5.344,2.596-5.085,5.895
	C436.745,6.498,436.908,8.611,439.267,9.665 M462.01,14.842l0.493-4.607l0.721,0.074c1.367,0.145,1.441,0.176,4.25,1.275
	l1.441-2.304c-3.475-0.32-5.581-0.573-6.222-0.77l0.708-6.641l0.955,0.102c1.965,0.213,2.488,0.435,4.896,1.537l1.639-2.354
	l-10.176-1.09c0.346,1.13,0.622,2.058,0.32,4.977l-1.01,9.394c-0.234,2.229-0.629,3.083-1.115,4.099l3.443,0.373
	C462.053,17.928,461.775,17.025,462.01,14.842 M466.31,18.979c2.883-2.492,2.98-2.597,6.695-7.001l7.349-9.033l2.082,11.79
	c0.197,1.336,0.961,5.072,1.245,5.947c0.104,0.323,0.283,0.896,0.911,2.371l-4.017-0.893c0.326-0.659,0.369-0.903,0.395-1.023
	c0.289-1.275,0.086-2.436-0.043-3.274l-0.506-2.864c-2.174-0.566-3.566-0.896-6.449-1.571l-1.472,1.823
	c-1.952,2.421-2.452,3.292-2.815,4.478L466.31,18.979 M475.136,11.82l5.021,1.318l-1.061-6.354L475.136,11.82z M495.981,25.326
	c-1.935,0.902-4.73,0.379-5.557,0.07l-3.738-1.407c1.342-1.337,1.539-1.848,1.909-2.846l4.084-10.854
	c0.566-1.503,0.702-2.402,0.542-3.678l3.438,1.293c0.678,0.252,2.938,1.79,3.727,3.563c0.579,1.331,0.345,2.264,0.209,2.612
	c-0.604,1.596-2.562,2.39-4.682,2.75c0.844,0.869,3.266,3.335,2.156,6.268C497.774,23.863,497.17,24.796,495.981,25.326
	 M492.858,15.418c3.561,1.053,4.866-0.727,5.236-1.697c0.548-1.457-0.173-2.858-0.961-3.634c-0.5-0.505-0.906-0.736-1.861-1.146
	L492.858,15.418z M489.877,23.635l0.714,0.265c2.107,0.798,4.608,0.028,5.342-1.922c0.893-2.377-1.521-5.128-3.277-6.006
	L489.877,23.635z M498.852,28.785c1.337-1.223,1.386-1.312,3.147-4.567l4.134-8.11c0.918-1.805,0.942-2.014,1.194-3.828l4.178,2.181
	c1.188,0.625,2.457,2.6,2.777,3.792c0.271,0.976,0.296,2.214-0.363,3.461c-1.183,2.273-3.031,2.504-4.602,2.575l-1.719,0.083
	c0.406,2.735,0.727,4.83,2.279,10.18l-1.977-1.029c-0.814-1.789-1.43-3.539-1.861-5.904l-0.918-5.109l-1.336,2.562
	c-0.863,1.632-1.774,3.646-1.984,5.261L498.852,28.785 M505.222,22.313c1.49,0.416,3.467,0.869,4.57,0.53
	c0.518-0.185,1.479-0.758,1.939-1.633c0.561-1.075,0.783-2.624,0.014-4.056c-0.734-1.334-1.818-1.962-2.532-2.359
	c-0.339,0.598-0.851,1.42-1.903,3.431L505.222,22.313z M511.731,35.939l2.927,1.916c0.474-1.867,0.745-2.396,1.257-3.234
	l6.375-9.791c0.973-1.487,1.367-1.765,2.514-2.485l-2.908-1.897c-0.32,1.608-0.443,2.03-1.619,3.822l-5.803,8.867
	C513.61,34.455,513.31,34.732,511.731,35.939 M517.991,39.978l2.519,2.054c0.511-1.675,1.694-3.166,2.833-4.558l2.865-3.515
	l0.191,2.415l0.344,6.169c0.143,2.907-0.117,3.533-0.431,4.226l3.05,2.501c-0.721-3.363-0.851-12.982-0.832-13.829l1.836-0.259
	l6.437-0.748c0.974-0.102,1.54-0.179,3.425-0.228l-2.686-2.202c-1.22,0.48-1.693,0.523-2.514,0.594l-8.617,1.109l2.605-3.185
	c1.516-1.873,2.298-2.424,3.056-2.972l-2.366-1.928c-0.48,1.127-1.016,2.218-2.623,4.18l-5.643,6.915
	C519.882,38.625,518.767,39.401,517.991,39.978 M531.019,50.957l2.199,2.402c0.752-1.589,2.144-2.889,3.469-4.099l3.344-3.064
	l-0.166,2.42l-0.555,6.151c-0.283,2.901-0.628,3.48-1.035,4.124l2.662,2.914c-0.229-3.437,1.035-12.973,1.176-13.807l1.842,0.015
	l6.492,0.188c0.975,0.043,1.547,0.049,3.42,0.277l-2.342-2.566c-1.274,0.29-1.755,0.271-2.58,0.213l-8.68-0.145l3.043-2.775
	c1.787-1.629,2.624-2.063,3.462-2.498L544.7,38.45c-0.635,1.053-1.324,2.054-3.203,3.764l-6.586,6.018
	C533.095,49.897,531.888,50.508,531.019,50.957 M544.995,65.113c0.352-0.367,0.456-0.428,1.238-0.946l4.577-3.021
	c1.114,1.842,1.324,2.322,1.78,4.226l2.814-0.215L553.977,63l-1.929-2.775l4.441-3.077l1.258-0.924
	c1.854,2.853,2.353,4.519,2.648,5.603l2.803-0.326l-5.797-8.371c-0.684,1.136-1.854,2.221-2.938,2.966l-8.342,5.784
	c-1.785,1.235-2.611,1.386-4.077,1.65l5.488,7.928l3.61-0.428C548.531,69.477,547.337,68.325,544.995,65.113 M559.435,76.37
	c-1.238,2.473-2.156,4.376-3.943,9.643l-1.027-1.965c0.351-1.931,0.837-3.717,1.835-5.904l2.155-4.712l-2.556,1.331
	c-1.639,0.856-3.523,1.98-4.62,3.191l-1.533-2.951c1.786-0.24,1.879-0.292,5.174-1.956l8.021-4.297
	c1.78-0.958,1.928-1.115,3.159-2.461l2.182,4.177c0.621,1.18,0.535,3.532,0.123,4.693c-0.339,0.958-1.029,1.98-2.279,2.631
	c-2.261,1.191-3.918,0.326-5.242-0.512L559.435,76.37z M558.651,73.324c0.98,1.186,2.354,2.698,3.45,3.04
	c0.523,0.145,1.645,0.228,2.52-0.228c1.077-0.561,2.149-1.709,2.322-3.329c0.173-1.503-0.37-2.637-0.728-3.37
	c-0.615,0.298-1.509,0.677-3.523,1.722L558.651,73.324z M564.128,94.255c2.852-1.09,2.963-3.406,3.099-5.778
	c0.073-1.512,0.339-3.511,2.224-4.232c1.553-0.591,3.438,0.16,4.047,1.728c0.598,1.565-0.338,3.055-0.708,3.671
	c0.073-0.024,1.915-0.782,2.839-1.084c0.057-0.73,0.08-1.747-0.301-2.781c-1.091-2.84-4.01-4.392-7.097-3.209
	c-0.542,0.219-2.532,0.97-2.87,3.53c-0.623,4.725-0.739,5.59-2.396,6.228c-1.756,0.668-3.523-0.24-4.133-1.823
	c-0.623-1.642,0.313-3.053,1.047-4.177c-1.134,0.487-2.568,1.084-3.456,1.396c0.074,0.736,0.24,1.993,0.524,2.731
	C558.085,93.454,561.11,95.41,564.128,94.255 M562.422,107.462l0.616,3.4c0.85-0.555,1.639-1.072,3.794-1.463l4.577-0.819
	l0.117,0.699c0.252,1.364,0.24,1.438-0.019,4.447l2.618,0.733c-0.672-3.413-1.029-5.507-1.017-6.188l6.579-1.186l0.172,0.946
	c0.352,1.943,0.277,2.504-0.099,5.134l2.723,0.915l-1.823-10.086c-0.992,0.656-1.793,1.18-4.688,1.697l-9.295,1.685
	C564.461,107.773,563.536,107.641,562.422,107.462 M573.854,118.799c5.464-0.138,9.665,4.075,9.788,9.126
	c0.147,5.553-4.484,9.847-9.289,9.967c-1.829,0.053-5.149-0.631-7.047-3.129c-0.604-0.771-1.762-2.541-2.427-4.497
	c-0.031-0.345-0.13-1.281-0.148-1.922C564.603,123.579,568.335,118.944,573.854,118.799 M573.683,135.785
	c4.071-0.102,7.945-3.69,7.822-8.541c-0.129-5.008-4.158-6.483-7.25-6.403c-5.371,0.136-7.533,4.707-7.436,8.384
	c0.05,1.805,0.629,2.871,1.473,4.309C570.72,135.81,572.949,135.804,573.683,135.785 M580.821,147.208
	c0.973-0.517,1.22-0.625,1.971-0.902l0.586-3.656c-0.887,0.705-1.393,1.025-2.131,1.457c-0.998-0.058-1.929-0.16-3.05-0.335
	l-9.449-1.513c-1.577-0.252-2.279-0.468-3.905-1.173l-0.462,2.919c0.874-0.164,1.854-0.354,5.291,0.194l9.319,1.497l-13.742,7.41
	c-0.819,0.45-1.669,0.758-2.507,1.149l-0.333,2.094c1.047-0.209,2.328-0.059,3.253,0.096l10.397,1.657
	c2.809,0.379,3.406,0.702,4.627,1.37l0.517-3.262c-1.571,0.465-1.995,0.604-5.648,0.019l-9.129-1.457
	c1.294-0.746,2.6-1.432,3.937-2.125L580.821,147.208z M577.938,168.854c-1.977,5.778-7.047,8.713-12.221,6.939
	c-2.545-0.869-4.324-2.409-5.273-4.688c-1.041-2.516-0.912-5.701-0.449-7.031l1.324-3.893c1.466,1.34,1.633,1.395,3.498,2.027
	l9.764,3.335c1.694,0.579,2.138,0.607,4.27,0.625L577.938,168.854 M565.97,173.518c3.782,1.293,8.6-0.157,10.521-5.187l-14.76-5.039
	c-0.363,1.148-0.924,3.04-0.246,5.381C561.904,170.04,563.155,172.554,565.97,173.518 M406.949,97.563
	c0-2.011-1.635-3.637-3.653-3.637c-2.014,0-3.64,1.626-3.64,3.637c0,2.021,1.626,3.647,3.64,3.647
	C405.314,101.21,406.949,99.583,406.949,97.563 M452.757,158.94c-0.875-1.281-2.643-1.95-4.635-1.149
	c-4.389,1.759-1.608,6.674-0.157,7.759c1.799,1.324,1.374,2.316-0.145,3.634c-0.896,0.771-0.764,2.067-0.157,3.034
	c0.604,0.958,1.392,1.632,0.176,3.274c-0.511,0.906-1.438,3.335-0.207,4.697c1.229,1.377,0.333,1.527,0.188,3.604
	c-0.102,1.343-0.625,2.735-0.727,3.573h3.071c0.419-4.084,3.252-2.135,3.413,0h3.622c-0.708-1.436-2.784-5.938-2.932-8.886
	c-0.185-3.53,1.256-5.695,1.583-7.069c0.782-1.623-3.031-2.473-1.06-3.37c1.971-0.877,3.339-2.8,2.119-3.262
	c-1.86-0.687-5.612,0.309-3.789-1.854C453.65,162.3,453.681,160.295,452.757,158.94 M503.675,97.563
	c0-2.011-1.633-3.637-3.652-3.637c-2.008,0-3.646,1.626-3.646,3.637c0,2.021,1.639,3.647,3.646,3.647
	C502.042,101.21,503.675,99.583,503.675,97.563 M50.998,275.919c1.697,4.331,7.047,16.312,8.667,19.04
	c0.601,1.005,1.623,2.791,4.851,7.288H50.317c0.588-2.465,0.588-3.302,0.588-3.733c0-4.497-1.528-8.248-2.637-10.977l-3.81-9.253
	c-7.734-0.246-12.68-0.338-22.859-0.418l-3.582,7.219c-4.759,9.609-5.778,12.924-6.12,17.162H0
	c7.823-10.534,8.075-10.953,17.26-28.539l17.925-35.869L50.998,275.919 M42.155,272.261l-8.325-20.574l-9.526,19.89L42.155,272.261z
	 M117.617,258.912c0-13.768,0.089-14.021,2.045-20.562h-11.051c1.956,6.795,2.214,8.415,2.214,22.183v16.23
	c0,3.555,0,6.203-1.112,8.655c-1.873,4.263-7.222,10.127-15.976,10.127c-1.358,0-12.748,0-15.985-8.76
	c-1.519-3.991-1.519-9.523-1.519-13.17v-19.804c-0.089-9.505,1.02-12.572,2.125-15.462H66.04c2.455,5.095,2.713,9.013,2.793,13.94
	l0.354,31.778c0,2.298,0,5.883,3.727,10.54c3.142,3.985,9.095,8.242,16.989,8.242c6.899,0,14.291-3.905,20.922-9.591
	c0.164,2.963,0.265,6.024,0,8.993h9.185c-1.968-4.244-2.393-6.449-2.393-14.026V258.912z M178.532,279.911v12.061l-0.08,3.832
	c-2.378,0.591-5.525,1.441-11.316,1.441c-23.875,0-30.245-16.743-30.245-27.535c0-15.301,11.22-26.266,26.61-26.266
	c11.208,0,17.661,5.101,21.061,7.725l0.166-11.544c-9.166-1.281-14.353-1.952-19.958-1.952c-26.866,0-36.125,21.837-36.125,34.415
	c0,12.665,9.089,30.756,36.975,30.756c9.6,0,16.059-1.86,20.134-2.963l-0.164-7.909c0-1.441,0.077-11.814,0.253-14.278
	c0.169-2.723,1.028-4.503,3.23-7.983h-14.029C178.199,276.166,178.532,276.843,178.532,279.911 M250.405,258.912
	c0-13.768,0.089-14.021,2.045-20.562h-11.057c1.958,6.795,2.211,8.415,2.211,22.183v16.23c0,3.555,0,6.203-1.097,8.655
	c-1.873,4.263-7.223,10.127-15.991,10.127c-1.349,0-12.735,0-15.969-8.76c-1.528-3.991-1.528-9.523-1.528-13.17v-19.804
	c-0.095-9.505,1.022-12.572,2.125-15.462h-12.329c2.464,5.095,2.723,9.013,2.806,13.94l0.333,31.778c0,2.298,0,5.883,3.742,10.54
	c3.142,3.985,9.114,8.242,17.004,8.242c6.884,0,14.275-3.905,20.904-9.591c0.178,2.963,0.258,6.024,0,8.993h9.178
	c-1.944-4.244-2.378-6.449-2.378-14.026V258.912z M278.854,267.326c-4.755-2.119-10.869-5.439-10.869-12.425
	c0-5.686,4.75-10.865,10.527-10.865s9.443,4.848,10.971,6.8c0-0.259-0.179-7.139,0-10.447c-2.304-1.108-5.525-2.47-9.351-2.47
	c-10.457,0-19.046,7.472-19.046,18.88c0,2.033,0,9.339,7.82,13.589c14.451,7.811,17.088,9.258,17.088,15.375
	c0,6.468-5.098,11.051-10.956,11.051c-6.043,0-9.443-4.755-12.163-8.482c0.169,4.238,0.342,9.592,0.252,12.819
	c2.467,0.678,6.711,1.693,9.437,1.693c11.044,0,21.079-7.299,21.079-18.437C293.645,273.874,286.336,270.646,278.854,267.326
	 M300.088,238.264l-2.975,9.265c5.694-3.147,11.978-3.566,20.133-4.084l0.096,45.287c0,3.068,0,7.663-2.122,13.516h11.211
	c-1.608-3.808-2.202-6.616-2.202-13.516v-34.926c0-3.056,0.083-7.306,0.342-10.361c10.872,0.689,12.748,0.937,16.986,3.4
	c1.029-3.733,2.473-6.715,3.582-8.581H300.088z M351.144,238.344c2.131,5.261,2.553,6.721,2.553,14.106v36.553
	c0,5.439-0.339,6.801-2.63,13.244h12.067c-2.131-6.283-2.39-8.316-2.467-11.717l-0.086-40.298c0-6.099,0.597-7.638,2.553-11.889
	H351.144z M417.929,238.344c2.474,5.101,3.148,6.462,3.148,19.207v31.883c-3.222-4.016-6.283-8.081-9.348-12.245l-24.214-32.647
	c-2.298-3.056-2.812-3.819-4.177-6.197h-12.735c2.883,2.637,4.238,4.164,6.107,6.462c0.345,3.4,0.524,6.634,0.524,10.527v32.992
	c0,5.52-0.348,8.069-1.882,13.922h10.201c-1.017-2.883-2.215-6.111-2.215-18.092v-32.562l32.731,42.756
	c1.949,2.55,3.483,5.272,5.26,7.897h7.318c-1.269-3.462-1.444-7.897-1.444-11.113v-36.306c-0.259-9.764,0.505-11.976,2.125-16.484
	H417.929z M486.156,293.26c0.167,2.963,0.247,6.024,0,8.993h9.172c-1.952-4.244-2.378-6.449-2.378-14.026v-29.309
	c0-13.773,0.086-14.026,2.045-20.568h-11.051c1.953,6.795,2.212,8.415,2.212,22.183v16.23c0,3.555,0,6.203-1.103,8.655
	c-1.873,4.263-7.226,10.127-15.984,10.127c-1.355,0-12.739,0-15.973-8.76c-1.528-3.991-1.528-9.523-1.528-13.17v-19.804
	c-0.086-9.505,1.01-12.572,2.125-15.462H441.38c2.458,5.095,2.705,9.013,2.794,13.94l0.345,31.778c0,2.298,0,5.883,3.73,10.54
	c3.147,3.985,9.092,8.242,17,8.242C472.143,302.851,479.528,298.945,486.156,293.26 M521.403,267.326
	c-4.768-2.119-10.891-5.439-10.891-12.425c0-5.686,4.762-10.865,10.545-10.865c5.772,0,9.432,4.848,10.971,6.8
	c0-0.259-0.178-7.139,0-10.447c-2.303-1.108-5.519-2.47-9.356-2.47c-10.446,0-19.034,7.472-19.034,18.88
	c0,2.033,0,9.339,7.823,13.589c14.451,7.811,17.075,9.258,17.075,15.375c0,6.468-5.094,11.051-10.965,11.051
	c-6.03,0-9.43-4.755-12.141-8.482c0.16,4.238,0.326,9.592,0.246,12.819c2.465,0.678,6.709,1.693,9.438,1.693
	c11.045,0,21.078-7.299,21.078-18.437C536.192,273.874,528.875,270.646,521.403,267.326 M582.398,266.557V243.53h3.313
	c6.789,0,8.661,0.598,17.347,3.487l4.749-8.674h-35.283c1.626,3.733,2.895,6.801,2.895,16.915v32.549
	c0,7.737-1.016,10.792-2.291,14.451h11.906c-1.367-3.24-2.636-6.196-2.636-13.773v-15.973h2.458c4.755,0,5.008,0.08,15.055,2.791
	l4.065-8.402C591.995,267.073,584.696,266.987,582.398,266.557 M644.841,237.753c19.114,0,33.485,16.312,33.485,32.888
	c0,6.289-2.636,17.697-11.378,23.968c-2.729,2.032-8.932,5.864-15.732,7.983c-1.17,0.092-4.41,0.345-6.621,0.345
	c-16.41,0-32.044-13.269-32.044-32.296C612.551,251.858,627.421,237.753,644.841,237.753 M662.778,291.128
	c8.088-8.168,8.23-15.824,8.23-18.362c0-14.021-11.963-27.701-28.712-27.701c-17.254,0-22.692,13.761-22.692,24.387
	c0,18.529,15.553,26.353,28.212,26.353C654.038,295.804,657.771,293.931,662.778,291.128 M730.396,238.344
	c2.471,5.101,3.148,6.462,3.148,19.207v31.883c-3.217-4.016-6.283-8.081-9.346-12.245l-24.221-32.647
	c-2.291-3.056-2.796-3.819-4.17-6.197h-12.744c2.889,2.637,4.25,4.164,6.116,6.462c0.345,3.4,0.511,6.634,0.511,10.527v32.992
	c0,5.52-0.338,8.069-1.872,13.922h10.2c-1.016-2.883-2.211-6.111-2.211-18.092v-32.562l32.734,42.756
	c1.945,2.55,3.474,5.272,5.26,7.897h7.312c-1.275-3.462-1.454-7.897-1.454-11.113v-36.306c-0.24-9.764,0.518-11.976,2.132-16.484
	H730.396z M763.604,238.344c21.079,0,36.294,13.25,36.294,32.118c0,9.264-3.055,16.841-9.443,22.446
	c-7.041,6.209-17.58,9.339-22.434,9.339h-14.199c2.735-6.283,2.735-6.875,2.735-13.676v-35.604c0-6.123-0.443-7.657-2.735-14.624
	H763.604 M781.356,292.23c4.004-2.883,10.805-9.781,10.805-20.062c0-13.762-10.115-27.867-28.645-28.563v53.801
	C767.681,297.337,774.488,297.072,781.356,292.23 M818.401,291.646l0.426-18.88c7.404,0.425,9.178,0.764,15.455,3.228l4.946-8.414
	l-8.919-0.173h-11.648v-18.609l-0.173-5.353c11.734,0.339,17.42,2.205,21.085,3.475l4.577-8.575h-35.099
	c1.865,4.164,2.636,9.616,2.636,14.112v35.02c0,7.49-1.177,10.102-3.313,14.771h33.232l5.846-11.039
	c-9.505,4.337-15.117,5.433-28.791,5.778C818.315,295.273,818.315,294.867,818.401,291.646 M906.95,254.828
	c-0.259-9.764,0.505-11.976,2.119-16.484h-11.396c2.471,5.101,3.148,6.462,3.148,19.207v31.883
	c-3.234-4.016-6.295-8.081-9.352-12.252l-24.207-32.641c-2.305-3.056-2.816-3.819-4.171-6.197h-12.751
	c2.889,2.637,4.244,4.164,6.129,6.462c0.333,3.4,0.499,6.628,0.499,10.527v32.992c0,5.52-0.345,8.069-1.872,13.922h10.2
	c-1.022-2.883-2.205-6.117-2.205-18.099v-32.561l32.716,42.762c1.952,2.544,3.486,5.272,5.254,7.897h7.324
	c-1.275-3.462-1.436-7.897-1.436-11.119V254.828z M313.205,354.359c-0.687-0.296-1.934-0.665-3.764-1.072
	c-1.817-0.419-2.954-0.812-3.375-1.201c-0.447-0.4-0.674-0.905-0.674-1.509c0-0.702,0.326-1.306,0.945-1.799
	c0.625-0.505,1.62-0.752,2.972-0.752c1.306,0,2.289,0.259,2.957,0.826c0.662,0.529,1.053,1.349,1.173,2.433l2.144-0.166
	c-0.031-0.998-0.302-1.891-0.832-2.68c-0.511-0.782-1.248-1.386-2.214-1.792c-0.952-0.395-2.073-0.598-3.336-0.598
	c-1.136,0-2.171,0.203-3.104,0.585c-0.933,0.369-1.645,0.937-2.119,1.676c-0.505,0.764-0.729,1.552-0.729,2.408
	c0,0.782,0.194,1.473,0.591,2.119c0.385,0.622,0.998,1.151,1.811,1.57c0.631,0.346,1.715,0.69,3.274,1.072
	c1.552,0.369,2.565,0.628,3.027,0.819c0.706,0.265,1.21,0.598,1.524,1.004c0.305,0.395,0.456,0.856,0.456,1.398
	c0,0.518-0.151,1.004-0.468,1.447c-0.339,0.443-0.813,0.788-1.481,1.047c-0.638,0.259-1.401,0.382-2.257,0.382
	c-0.974,0-1.842-0.172-2.612-0.511c-0.764-0.333-1.337-0.776-1.697-1.318c-0.379-0.536-0.606-1.238-0.699-2.088l-2.119,0.19
	c0.018,1.14,0.338,2.15,0.921,3.062c0.591,0.888,1.404,1.553,2.445,2.009c1.035,0.449,2.322,0.677,3.868,0.677
	c1.205,0,2.289-0.228,3.268-0.665c0.958-0.456,1.715-1.065,2.233-1.866c0.508-0.807,0.767-1.651,0.767-2.557
	c0-0.911-0.237-1.706-0.706-2.402C314.93,355.406,314.197,354.827,313.205,354.359 M319.251,348.335h5.587v14.975h2.245v-14.975
	h5.621v-2.008h-13.454V348.335z M336.739,363.304h2.233v-16.977h-2.233V363.304z M344.405,363.304h2.251v-7.713h7.961v-1.995h-7.961
	v-5.261h9.196v-2.002h-11.448V363.304z M358.869,348.335h5.568v14.975h2.245v-14.975h5.615v-2.008h-13.428V348.335z
	 M378.248,355.518h9.391v-1.983h-9.391v-5.199h10.028v-2.002h-12.268v16.971h12.671v-2.009h-10.432V355.518z M391.849,348.335h5.59
	v14.975h2.246v-14.975h5.614v-2.008h-13.45V348.335z M419.127,360.174c0.348-0.382,1.161-1.084,2.399-2.131
	c1.494-1.263,2.565-2.261,3.215-2.994c0.65-0.727,1.112-1.416,1.389-2.082c0.265-0.646,0.416-1.306,0.416-1.983
	c0-1.349-0.468-2.464-1.426-3.363c-0.945-0.911-2.233-1.355-3.853-1.355c-1.629,0-2.907,0.419-3.862,1.257
	c-0.952,0.844-1.506,2.045-1.651,3.659l2.144,0.21c0-1.06,0.302-1.897,0.903-2.495c0.613-0.61,1.414-0.905,2.408-0.905
	c0.952,0,1.722,0.283,2.304,0.862c0.591,0.548,0.875,1.257,0.875,2.069c0,0.789-0.308,1.633-0.958,2.514
	c-0.644,0.874-1.891,2.075-3.733,3.597c-1.204,0.974-2.094,1.836-2.726,2.562c-0.638,0.752-1.084,1.503-1.377,2.268
	c-0.182,0.462-0.25,0.942-0.243,1.447h11.22v-2.008h-8.319C418.484,360.932,418.776,360.544,419.127,360.174 M436.129,352.067
	c-1.127,0-2.174,0.333-3.203,1.06l0.915-4.57h6.767v-1.983h-8.439l-1.639,8.71l1.962,0.246c0.296-0.48,0.73-0.874,1.266-1.183
	c0.536-0.296,1.143-0.443,1.823-0.443c1.072,0,1.956,0.333,2.618,1.022c0.662,0.678,1.004,1.614,1.004,2.809
	c0,1.245-0.348,2.255-1.053,3.007c-0.696,0.751-1.54,1.146-2.55,1.146c-0.819,0-1.537-0.271-2.138-0.825
	c-0.582-0.53-0.958-1.318-1.118-2.391l-2.187,0.197c0.151,1.417,0.699,2.568,1.663,3.425c0.992,0.862,2.249,1.306,3.779,1.306
	c1.888,0,3.369-0.689,4.466-2.057c0.896-1.134,1.349-2.452,1.349-3.992c0-1.607-0.508-2.932-1.531-3.961
	C438.861,352.561,437.598,352.067,436.129,352.067 M445.864,363.304h2.372v-2.378h-2.372V363.304z M470.454,358.142
	c-0.406,1.183-0.701,2.094-0.898,2.71c-0.179-0.555-0.449-1.386-0.819-2.513l-4.017-12.006h-3.375v16.971h2.168v-14.451
	l4.909,14.451h2.021l4.928-14.218v14.218h2.162v-16.971h-3.024L470.454,358.142z M489.587,346.333l6.942,16.971h-2.55l-1.978-5.138
	h-7.103l-1.866,5.138h-2.384l6.518-16.971H489.587z M491.3,356.33l-1.773-4.693c-0.53-1.441-0.943-2.6-1.208-3.523
	c-0.216,1.084-0.518,2.174-0.905,3.24l-1.879,4.977H491.3z M509.859,356.429c0.659,0.604,1.275,1.355,1.86,2.267l2.951,4.608h-2.822
	l-2.248-3.536c-0.658-1.017-1.188-1.793-1.613-2.328c-0.438-0.536-0.813-0.924-1.152-1.14c-0.326-0.216-0.672-0.363-1.01-0.456
	c-0.26-0.037-0.678-0.08-1.257-0.08h-2.6v7.54h-2.255v-16.971h7.527c1.51,0,2.662,0.142,3.443,0.449
	c0.795,0.32,1.43,0.856,1.897,1.627c0.468,0.775,0.708,1.62,0.708,2.574c0,1.177-0.4,2.205-1.176,3.024
	c-0.77,0.819-1.984,1.35-3.616,1.564C509.089,355.868,509.552,356.146,509.859,356.429 M506.786,353.829
	c1.021,0,1.829-0.116,2.408-0.326c0.579-0.216,1.022-0.548,1.324-1.004c0.296-0.493,0.449-0.985,0.449-1.516
	c0-0.825-0.289-1.49-0.881-1.995c-0.572-0.518-1.496-0.771-2.746-0.771h-5.372v5.611H506.786 M516.456,348.335h5.588v14.975h2.254
	v-14.975h5.605v-2.008h-13.447V348.335z M543.406,354.359c-0.678-0.296-1.922-0.665-3.757-1.072
	c-1.818-0.419-2.939-0.812-3.383-1.201c-0.443-0.4-0.665-0.905-0.665-1.509c0-0.702,0.32-1.306,0.942-1.799
	c0.616-0.505,1.607-0.752,2.957-0.752c1.306,0,2.291,0.259,2.969,0.826c0.659,0.529,1.054,1.349,1.17,2.433l2.15-0.166
	c-0.031-0.998-0.314-1.891-0.832-2.68c-0.518-0.782-1.256-1.386-2.211-1.792c-0.967-0.395-2.063-0.598-3.326-0.598
	c-1.146,0-2.174,0.203-3.117,0.585c-0.936,0.369-1.645,0.937-2.137,1.676c-0.48,0.764-0.728,1.552-0.728,2.408
	c0,0.782,0.203,1.473,0.591,2.119c0.4,0.622,1.005,1.151,1.818,1.57c0.628,0.346,1.719,0.69,3.276,1.072
	c1.559,0.369,2.569,0.628,3.019,0.819c0.715,0.265,1.226,0.598,1.521,1.004c0.314,0.395,0.469,0.856,0.469,1.398
	c0,0.518-0.154,1.004-0.48,1.447c-0.314,0.443-0.808,0.788-1.461,1.047c-0.652,0.259-1.422,0.382-2.272,0.382
	c-0.955,0-1.823-0.172-2.6-0.511c-0.776-0.333-1.337-0.776-1.719-1.318c-0.351-0.536-0.591-1.238-0.696-2.088l-2.112,0.19
	c0.043,1.14,0.345,2.15,0.93,3.062c0.598,0.888,1.417,1.553,2.439,2.009c1.054,0.449,2.329,0.677,3.862,0.677
	c1.213,0,2.311-0.228,3.277-0.665c0.961-0.456,1.719-1.065,2.229-1.866c0.518-0.807,0.776-1.651,0.776-2.557
	c0-0.911-0.24-1.706-0.709-2.402C545.131,355.406,544.397,354.827,543.406,354.359 M562.465,348.532
	c-0.868,0.788-1.885,1.441-3.05,1.983v2.021c0.635-0.247,1.375-0.598,2.188-1.072c0.807-0.48,1.479-0.961,1.983-1.429v13.269h2.069
	v-17.039h-1.336C563.962,346.992,563.34,347.743,562.465,348.532 M580.717,347.152c0.917,0.591,1.607,1.441,2.082,2.55
	c0.48,1.084,0.714,2.686,0.714,4.756c0,2.181-0.233,3.899-0.701,5.192c-0.48,1.294-1.178,2.261-2.107,2.938
	c-0.924,0.665-2.014,1.004-3.265,1.004c-1.324,0-2.421-0.363-3.253-1.103c-0.844-0.739-1.354-1.78-1.508-3.104l1.995-0.185
	c0.167,0.936,0.487,1.626,0.974,2.051c0.468,0.413,1.084,0.635,1.836,0.635c0.641,0,1.207-0.154,1.682-0.45
	c0.486-0.289,0.881-0.671,1.188-1.176c0.314-0.493,0.574-1.146,0.777-1.978c0.203-0.832,0.308-1.682,0.308-2.557v-0.406
	c-0.419,0.652-0.998,1.195-1.719,1.602c-0.714,0.419-1.503,0.622-2.341,0.622c-1.41,0-2.594-0.505-3.566-1.534
	c-0.973-0.998-1.453-2.341-1.453-4.022c0-1.706,0.498-3.104,1.502-4.146c1.035-1.053,2.305-1.577,3.832-1.577
	C578.795,346.265,579.799,346.561,580.717,347.152 M580.267,354.704c0.623-0.689,0.931-1.62,0.931-2.821
	c0-1.188-0.308-2.144-0.961-2.833c-0.635-0.709-1.386-1.072-2.286-1.072c-0.924,0-1.736,0.395-2.433,1.134
	c-0.677,0.775-1.028,1.749-1.028,2.956c0,1.072,0.332,1.947,0.985,2.637c0.659,0.678,1.454,1.004,2.421,1.004
	C578.851,355.708,579.651,355.382,580.267,354.704 M595.654,357.322h2.292v1.916h-2.292v4.071h-2.075v-4.071h-7.367v-1.916
	l7.742-10.995h1.7V357.322z M593.579,349.678l-5.329,7.645h5.329V349.678z M604.931,360.174c0.357-0.382,1.171-1.084,2.415-2.131
	c1.503-1.263,2.569-2.261,3.222-2.994c0.641-0.727,1.09-1.416,1.373-2.082c0.277-0.646,0.414-1.306,0.414-1.983
	c0-1.349-0.469-2.464-1.418-3.363c-0.954-0.911-2.235-1.355-3.867-1.355c-1.608,0-2.896,0.419-3.857,1.257
	c-0.948,0.844-1.515,2.045-1.656,3.659l2.137,0.21c0.02-1.06,0.32-1.897,0.918-2.495c0.61-0.61,1.411-0.905,2.415-0.905
	c0.942,0,1.719,0.283,2.298,0.862c0.598,0.548,0.899,1.257,0.899,2.069c0,0.789-0.333,1.633-0.985,2.514
	c-0.635,0.874-1.892,2.075-3.733,3.597c-1.188,0.974-2.106,1.836-2.729,2.562c-0.628,0.752-1.091,1.503-1.361,2.268
	c-0.185,0.462-0.265,0.942-0.253,1.447h11.224v-2.008h-8.328C604.29,360.932,604.58,360.544,604.931,360.174 M499.985,170.527
	c-4.602,0.348-4.73,5.698-4.73,5.698v11.141h-35.469v-23.756c0,0-0.166-9.791-8.162-10.158h-0.252
	c-7.934,0.385-8.104,7.438-8.104,7.438v26.476h-34.958v-11.141c0,0-0.102-5.421-4.789-5.716h-0.151
	c-0.025,0.006-0.043,0.012-0.068,0.019v-0.019h-0.012v0.019c-4.645,0.33-4.759,5.698-4.759,5.698v11.141h-13.939v-41.256
	c0,0-0.37-6.092,3.027-9.264c2.864-2.68,2.116-10.497,2.116-14.319c0-7.921-4.013-5.791-4.013-9.486c0-2.245,1.897-2.082,4.013-4.99
	c2.023-2.799,4.725-19.896,12.563-22.708V71.005l-0.114-0.013l-5.473,1.438l2.187-3.844l-2.187-3.834h4.37l2.214-3.884l2.215,3.884
	h4.376l-2.19,3.834l2.19,3.844l-4.845-1.269l-0.746-0.043v14.229c7.835,2.815,10.527,19.903,12.566,22.702
	c2.106,2.908,4.02,2.745,4.02,4.99c0,3.696-4.02,1.565-4.02,9.486c0,3.822-0.751,11.639,2.106,14.319
	c3.4,3.172,3.028,9.264,3.028,9.264v37.766h7.179v-49.316c0,0-0.437-7.284,3.625-11.094c3.425-3.203,2.529-12.551,2.529-17.125
	c0-9.48-4.805-6.939-4.805-11.347c0-2.701,2.276-2.495,4.805-5.981c2.418-3.345,5.661-23.805,15.03-27.174v-8.344
	c-4.414-1.331-7.675-5.658-7.675-10.845c0-6.243,4.7-11.303,10.49-11.303c2.415,0,4.614,0.908,6.375,2.384
	c-0.561-0.102-1.133-0.17-1.713-0.17c-5.02,0-9.088,4.069-9.088,9.089c0,5.021,4.068,9.089,9.088,9.089
	c0.58,0,1.152-0.062,1.713-0.175c-1.762,1.475-3.961,2.39-6.375,2.39c-0.142,0-0.271-0.037-0.413-0.043v7.928
	c9.369,3.375,12.609,23.829,15.042,27.174c2.52,3.487,4.793,3.28,4.793,5.981c0,4.407-4.793,1.867-4.793,11.347
	c0,4.574-0.905,13.921,2.52,17.125c4.066,3.81,3.616,11.094,3.616,11.094v49.316h7.38v-37.766c0,0-0.363-6.092,3.036-9.264
	c2.858-2.68,2.101-10.497,2.101-14.319c0-7.921-4.01-5.791-4.01-9.486c0-2.245,1.909-2.082,4.01-4.99
	c2.027-2.799,4.736-19.896,12.566-22.708V71.005l-0.111-0.013l-5.476,1.438l2.187-3.844l-2.187-3.834h4.367l2.212-3.884l2.223,3.884
	h4.381l-2.193,3.844l2.193,3.834l-4.854-1.269l-0.745-0.043v14.223c7.842,2.812,10.545,19.909,12.572,22.708
	c2.112,2.908,4.016,2.745,4.016,4.99c0,3.696-4.016,1.565-4.016,9.486c0,3.822-0.752,11.639,2.112,14.319
	c3.388,3.172,3.024,9.264,3.024,9.264v41.256H505.03v-11.141c0,0-0.099-5.301-4.645-5.698l0,0H499.985z M403.291,88.243
	c-6.342,1.986-10.262,19.61-10.382,20.192c2.661-0.65,6.458-1.047,10.059-1.118l0.178-0.006c0.049-0.006,0.145,0,0.145,0h0.012
	c0,0,0.24-0.019,0.36-0.019c3.822,0.019,7.333,0.44,10.216,1.143c-0.126-0.582-4.05-18.211-10.389-20.192
	c-0.037-0.006-0.145-0.006-0.188,0H403.291 M391.965,110.483c-1.531,0.397-2.023,1.352-2.023,2.026c0,0.675,0.65,1.79,2.535,1.241
	c4.001-1.155,8.522-1.161,10.17-1.121h1.281c1.626-0.04,6.166-0.04,10.185,1.121c1.891,0.548,2.541-0.566,2.541-1.241
	c0-0.674-0.49-1.629-2.03-2.026c-2.541-0.656-5.319-1.374-11.183-1.433h-0.29C397.285,109.109,394.516,109.827,391.965,110.483
	 M413.414,126.028c0,0,0.819,0,0.819-0.816v-1.91c0,0,0-0.812-0.819-0.812h-3.887c0,0-0.813,0-0.813,0.812v1.91
	c0,0,0,0.816,0.813,0.816H413.414 M414.233,130.115c0,0,0-0.807-0.819-0.807h-3.887c0,0-0.813,0-0.813,0.807v1.916
	c0,0,0,0.823,0.813,0.823h3.887c0,0,0.819,0,0.819-0.823V130.115 M413.414,119.209c0,0,0.819,0,0.819-0.819v-1.244
	c0,0,0-0.819-0.807-0.891l-3.906-0.314c0,0-0.807-0.083-0.807,0.742v1.707c0,0,0,0.819,0.813,0.819H413.414 M405.277,119.209
	c0,0,0.826,0,0.826-0.819v-1.925c0,0,0-0.813-0.826-0.813h-1.155h-0.819h-0.012h-0.644h-1.25c0,0-0.819,0-0.819,0.813v1.925
	c0,0,0,0.819,0.819,0.819h0.979h0.915h0.012h0.927H405.277 M406.103,123.302c0,0,0-0.812-0.826-0.812h-1.047h-0.927h-0.012h-0.915
	h-0.979c0,0-0.819,0-0.819,0.812v1.91c0,0,0,0.816,0.819,0.816h0.979h0.915h0.012h0.856h1.118c0,0,0.826,0,0.826-0.816V123.302
	 M397.146,126.028c0,0,0.819,0,0.819-0.816v-1.91c0,0,0-0.812-0.819-0.812h-3.893c0,0-0.813,0-0.813,0.812v1.91
	c0,0,0,0.816,0.813,0.816H397.146 M397.965,130.115c0,0,0-0.807-0.819-0.807h-3.893c0,0-0.813,0-0.813,0.807v1.916
	c0,0,0,0.823,0.813,0.823h3.893c0,0,0.819,0,0.819-0.823V130.115 M397.146,119.209c0,0,0.819,0,0.819-0.813v-1.817
	c0,0,0-0.813-0.819-0.733l-3.893,0.397c0,0-0.813,0.083-0.813,0.896v1.256c0,0,0,0.813,0.813,0.813H397.146 M393.829,177.111
	c0,0,0-0.819-0.823-0.819h-3.877c0,0-0.819,0-0.819,0.819v2.147c0,0,0,0.819,0.819,0.819h3.877c0,0,0.823,0,0.823-0.819V177.111z
	 M393.829,170.04c0,0,0-0.819-0.823-0.819h-3.877c0,0-0.819,0-0.819,0.819v2.159c0,0,0,0.813,0.819,0.813h3.877
	c0,0,0.823,0,0.823-0.813V170.04z M393.829,162.978c0,0,0-0.807-0.823-0.807h-3.877c0,0-0.819,0-0.819,0.807v2.15
	c0,0,0,0.828,0.819,0.828h3.877c0,0,0.823,0,0.823-0.828V162.978z M393.829,155.906c0,0,0-0.813-0.823-0.813h-3.877
	c0,0-0.819,0-0.819,0.813v2.165c0,0,0,0.813,0.819,0.813h3.877c0,0,0.823,0,0.823-0.813V155.906z M393.829,148.847
	c0,0,0-0.819-0.823-0.819h-3.877c0,0-0.819,0-0.819,0.819v2.146c0,0,0,0.826,0.819,0.826h3.877c0,0,0.823,0,0.823-0.826V148.847z
	 M393.829,142.028c0,0,0-0.819-0.816-0.742l-3.89,0.351c0,0-0.813,0.083-0.813,0.896v1.407c0,0,0,0.807,0.813,0.807h3.89
	c0,0,0.816,0,0.816-0.807V142.028z M401.991,162.978c0,0,0-0.807-0.819-0.807h-3.899c0,0-0.819,0-0.819,0.807v2.15
	c0,0,0,0.828,0.819,0.828h3.899c0,0,0.819,0,0.819-0.828V162.978z M401.991,155.906c0,0,0-0.813-0.819-0.813h-3.899
	c0,0-0.819,0-0.819,0.813v2.165c0,0,0,0.813,0.819,0.813h3.899c0,0,0.819,0,0.819-0.813V155.906z M401.991,148.847
	c0,0,0-0.819-0.819-0.819h-3.899c0,0-0.819,0-0.819,0.819v2.146c0,0,0,0.826,0.819,0.826h3.899c0,0,0.819,0,0.819-0.826V148.847z
	 M401.991,141.785c0,0,0-0.822-0.819-0.822h-3.899c0,0-0.819,0-0.819,0.822v2.156c0,0,0,0.807,0.819,0.807h3.899
	c0,0,0.819,0,0.819-0.807V141.785z M403.75,132.853h1.527c0,0,0.826,0,0.826-0.823v-1.916c0,0,0-0.807-0.826-0.807h-1.118h-0.856
	h-0.012h-0.915h-0.979c0,0-0.819,0-0.819,0.807v1.916c0,0,0,0.823,0.819,0.823h1.395h0.499h0.012H403.75z M410.134,162.978
	c0,0,0-0.807-0.823-0.807h-3.877c0,0-0.819,0-0.819,0.807v2.15c0,0,0,0.828,0.819,0.828h3.877c0,0,0.823,0,0.823-0.828V162.978z
	 M410.134,155.906c0,0,0-0.813-0.823-0.813h-3.877c0,0-0.819,0-0.819,0.813v2.165c0,0,0,0.813,0.819,0.813h3.877
	c0,0,0.823,0,0.823-0.813V155.906z M410.134,148.847c0,0,0-0.819-0.823-0.819h-3.877c0,0-0.819,0-0.819,0.819v2.146
	c0,0,0,0.826,0.819,0.826h3.877c0,0,0.823,0,0.823-0.826V148.847z M410.134,141.785c0,0,0-0.822-0.823-0.822h-3.877
	c0,0-0.819,0-0.819,0.822v2.156c0,0,0,0.807,0.819,0.807h3.877c0,0,0.823,0,0.823-0.807V141.785z M418.29,177.111
	c0,0,0-0.819-0.813-0.819h-3.899c0,0-0.813,0-0.813,0.819v2.147c0,0,0,0.819,0.813,0.819h3.899c0,0,0.813,0,0.813-0.819V177.111z
	 M418.29,170.04c0,0,0-0.819-0.813-0.819h-3.899c0,0-0.813,0-0.813,0.819v2.159c0,0,0,0.813,0.813,0.813h3.899
	c0,0,0.813,0,0.813-0.813V170.04z M418.29,162.978c0,0,0-0.807-0.813-0.807h-3.899c0,0-0.813,0-0.813,0.807v2.15
	c0,0,0,0.828,0.813,0.828h3.899c0,0,0.813,0,0.813-0.828V162.978z M418.29,155.906c0,0,0-0.813-0.813-0.813h-3.899
	c0,0-0.813,0-0.813,0.813v2.165c0,0,0,0.813,0.813,0.813h3.899c0,0,0.813,0,0.813-0.813V155.906z M418.29,148.847
	c0,0,0-0.819-0.813-0.819h-3.899c0,0-0.813,0-0.813,0.819v2.146c0,0,0,0.826,0.813,0.826h3.899c0,0,0.813,0,0.813-0.826V148.847z
	 M418.29,142.533c0,0,0-0.813-0.813-0.896l-3.899-0.351c0,0-0.813-0.077-0.813,0.742v1.912c0,0,0,0.813,0.813,0.813h3.899
	c0,0,0.813,0,0.813-0.813V142.533z M451.556,65.322c-7.583,2.371-12.283,23.457-12.44,24.159c3.212-0.789,7.786-1.27,12.114-1.346
	v-0.006h0.111c0.067,0,0.147,0,0.215-0.006v0.006h0.012v-0.006c0.148,0,0.284-0.013,0.431-0.013
	c4.578,0.019,8.785,0.53,12.234,1.371c-0.148-0.702-4.842-21.794-12.443-24.159c-0.037-0.019-0.173-0.019-0.222,0H451.556
	 M438.007,91.92c-1.842,0.474-2.43,1.62-2.43,2.436c0,0.801,0.776,2.138,3.037,1.481c5.063-1.463,10.835-1.389,12.474-1.33h0.924
	c1.607-0.059,7.404-0.139,12.486,1.33c2.267,0.656,3.05-0.681,3.05-1.481c0-0.816-0.592-1.962-2.428-2.436
	c-3.043-0.789-6.363-1.645-13.361-1.709h-0.394C444.358,90.276,441.042,91.132,438.007,91.92 M463.833,102.374
	c0,0,0.825,0,0.825-0.822V99.75c0,0,0-0.823-0.819-0.891l-4.977-0.416c0,0-0.82-0.071-0.82,0.757v2.351c0,0,0,0.822,0.82,0.822
	H463.833 M464.658,107.111c0,0,0-0.813-0.825-0.813h-4.971c0,0-0.82,0-0.82,0.813v2.605c0,0,0,0.819,0.82,0.819h4.971
	c0,0,0.825,0,0.825-0.819V107.111 M454.1,102.374c0,0,0.819,0,0.819-0.822v-2.625c0,0,0-0.819-0.819-0.819h-2.088h-0.444h-0.012
	h-0.468h-1.968c0,0-0.813,0-0.813,0.819v2.625c0,0,0,0.822,0.813,0.822h2.11h0.326h0.012h0.24H454.1 M454.919,107.111
	c0,0,0-0.813-0.819-0.813h-2.292h-0.24h-0.012h-0.326h-2.11c0,0-0.813,0-0.813,0.813v2.605c0,0,0,0.819,0.813,0.819h1.87h0.566
	h0.012h1.097h1.435c0,0,0.819,0,0.819-0.819V107.111 M444.365,102.374c0,0,0.822,0,0.822-0.822v-2.474c0,0,0-0.813-0.816-0.736
	l-4.989,0.505c0,0-0.813,0.08-0.813,0.903v1.802c0,0,0,0.822,0.819,0.822H444.365 M445.187,107.111c0,0,0-0.813-0.822-0.813h-4.978
	c0,0-0.819,0-0.819,0.813v2.605c0,0,0,0.819,0.819,0.819h4.978c0,0,0.822,0,0.822-0.819V107.111 M440.234,171.5
	c0,0,0-0.822-0.813-0.822h-4.983c0,0-0.813,0-0.813,0.822v2.901c0,0,0,0.825,0.813,0.825h4.983c0,0,0.813,0,0.813-0.825V171.5z
	 M440.234,163.039c0,0,0-0.812-0.813-0.812h-4.983c0,0-0.813,0-0.813,0.812v2.917c0,0,0,0.813,0.813,0.813h4.983
	c0,0,0.813,0,0.813-0.813V163.039z M440.234,154.588c0,0,0-0.807-0.819-0.807h-4.977c0,0-0.813,0-0.813,0.807v2.901
	c0,0,0,0.819,0.813,0.819h4.977c0,0,0.819,0,0.819-0.819V154.588z M440.234,146.131c0,0,0-0.811-0.819-0.811h-4.977
	c0,0-0.813,0-0.813,0.811v2.907c0,0,0,0.813,0.813,0.813h4.977c0,0,0.819,0,0.819-0.813V146.131z M440.234,137.676
	c0,0,0-0.812-0.819-0.812h-4.977c0,0-0.813,0-0.813,0.812v2.896c0,0,0,0.828,0.813,0.828h4.977c0,0,0.819,0,0.819-0.828V137.676z
	 M440.234,129.533c0,0,0-0.826-0.813-0.742l-4.996,0.453c0,0-0.801,0.077-0.801,0.884v2.005c0,0,0,0.801,0.813,0.801h4.977
	c0,0,0.819,0,0.819-0.801V129.533z M444.365,118.697c0,0,0.822,0,0.822-0.819v-2.611c0,0,0-0.813-0.822-0.813h-4.978
	c0,0-0.819,0-0.819,0.813v2.611c0,0,0,0.819,0.819,0.819H444.365z M449.985,146.131c0,0,0-0.811-0.819-0.811h-4.965
	c0,0-0.819,0-0.819,0.811v2.907c0,0,0,0.813,0.819,0.813h4.965c0,0,0.819,0,0.819-0.813V146.131z M449.985,137.676
	c0,0,0-0.812-0.819-0.812h-4.965c0,0-0.819,0-0.819,0.812v2.896c0,0,0,0.828,0.819,0.828h4.965c0,0,0.819,0,0.819-0.828V137.676z
	 M449.985,129.225c0,0,0-0.819-0.819-0.819h-4.965c0,0-0.819,0-0.819,0.819v2.896c0,0,0,0.813,0.819,0.813h4.965
	c0,0,0.819,0,0.819-0.813V129.225z M451.981,118.697h2.119c0,0,0.819,0,0.819-0.819v-2.611c0,0,0-0.813-0.819-0.813h-2.532v-0.027
	h-0.012v0.027h-2.436c0,0-0.813,0-0.813,0.813v2.611c0,0,0,0.819,0.813,0.819h2.208h0.228h0.012H451.981z M459.736,146.131
	c0,0,0-0.811-0.807-0.811h-4.971c0,0-0.819,0-0.819,0.811v2.907c0,0,0,0.813,0.819,0.813h4.971c0,0,0.807,0,0.807-0.813V146.131z
	 M459.736,137.676c0,0,0-0.812-0.807-0.812h-4.971c0,0-0.819,0-0.819,0.812v2.896c0,0,0,0.828,0.819,0.828h4.971
	c0,0,0.807,0,0.807-0.828V137.676z M459.749,129.225c0,0,0-0.819-0.819-0.819h-4.971c0,0-0.819,0-0.819,0.819v2.896
	c0,0,0,0.813,0.819,0.813h4.971c0,0,0.819,0,0.819-0.813V129.225z M463.833,118.697c0,0,0.825,0,0.825-0.819v-2.611
	c0,0,0-0.813-0.825-0.813h-4.971c0,0-0.82,0-0.82,0.813v2.611c0,0,0,0.819,0.82,0.819H463.833z M469.507,171.5
	c0,0,0-0.822-0.814-0.822h-4.982c0,0-0.813,0-0.813,0.822v2.901c0,0,0,0.825,0.813,0.825h4.982c0,0,0.814,0,0.814-0.825V171.5z
	 M469.507,163.039c0,0,0-0.812-0.814-0.812h-4.982c0,0-0.813,0-0.813,0.812v2.917c0,0,0,0.813,0.813,0.813h4.982
	c0,0,0.814,0,0.814-0.813V163.039z M469.507,154.588c0,0,0-0.807-0.814-0.807h-4.982c0,0-0.813,0-0.813,0.807v2.901
	c0,0,0,0.819,0.813,0.819h4.982c0,0,0.814,0,0.814-0.819V154.588z M469.507,146.131c0,0,0-0.811-0.814-0.811h-4.982
	c0,0-0.813,0-0.813,0.811v2.907c0,0,0,0.813,0.813,0.813h4.982c0,0,0.814,0,0.814-0.813V146.131z M469.507,137.676
	c0,0,0-0.812-0.814-0.812h-4.982c0,0-0.813,0-0.813,0.812v2.896c0,0,0,0.828,0.813,0.828h4.982c0,0,0.814,0,0.814-0.828V137.676z
	 M469.507,130.127c0,0,0-0.807-0.814-0.884l-4.982-0.453c0,0-0.813-0.083-0.813,0.742v2.6c0,0,0,0.801,0.813,0.801h4.982
	c0,0,0.814,0,0.814-0.801V130.127z M500.386,132.853h1.626c0,0,0.819,0,0.819-0.823v-1.916c0,0,0-0.807-0.819-0.807h-1.768h-0.216
	h-0.012h-0.18h-1.712c0,0-0.819,0-0.819,0.807v1.916c0,0,0,0.823,0.819,0.823h1.712h0.18h0.012H500.386z M498.125,122.489
	c0,0-0.819,0-0.819,0.812v1.91c0,0,0,0.816,0.819,0.816h1.712h0.18h0.012h0.216h1.768c0,0,0.819,0,0.819-0.816v-1.91
	c0,0,0-0.812-0.819-0.812h-1.768h-0.216h-0.012h-0.18H498.125 M497.306,118.39c0,0,0,0.819,0.819,0.819h1.712h0.18h0.012h0.216
	h1.768c0,0,0.819,0,0.819-0.819v-1.925c0,0,0-0.813-0.819-0.813h-1.799h-0.185h-0.012h-0.18h-1.712c0,0-0.819,0-0.819,0.813V118.39
	 M506.86,162.978c0,0,0-0.807-0.82-0.807h-3.881c0,0-0.818,0-0.818,0.807v2.15c0,0,0,0.828,0.818,0.828h3.881c0,0,0.82,0,0.82-0.828
	V162.978z M506.86,155.906c0,0,0-0.813-0.82-0.813h-3.881c0,0-0.818,0-0.818,0.813v2.165c0,0,0,0.813,0.818,0.813h3.881
	c0,0,0.82,0,0.82-0.813V155.906z M506.86,148.847c0,0,0-0.819-0.82-0.819h-3.881c0,0-0.818,0-0.818,0.819v2.146
	c0,0,0,0.826,0.818,0.826h3.881c0,0,0.82,0,0.82-0.826V148.847z M506.86,141.785c0,0,0-0.822-0.82-0.822h-3.881
	c0,0-0.818,0-0.818,0.822v2.156c0,0,0,0.807,0.818,0.807h3.881c0,0,0.82,0,0.82-0.807V141.785z M506.256,122.489
	c0,0-0.819,0-0.819,0.812v1.91c0,0,0,0.816,0.819,0.816h3.881c0,0,0.825,0,0.825-0.816v-1.91c0,0,0-0.812-0.825-0.812H506.256
	 M505.437,118.39c0,0,0,0.819,0.819,0.819h3.881c0,0,0.825,0,0.825-0.819v-1.244c0,0,0-0.819-0.801-0.891l-3.905-0.314
	c0,0-0.819-0.083-0.819,0.742V118.39 M506.256,129.308c0,0-0.819,0-0.819,0.807v1.916c0,0,0,0.823,0.819,0.823h3.881
	c0,0,0.825,0,0.825-0.823v-1.916c0,0,0-0.807-0.825-0.807H506.256 M515.015,177.111c0,0,0-0.819-0.818-0.819h-3.881
	c0,0-0.826,0-0.826,0.819v2.147c0,0,0,0.819,0.826,0.819h3.881c0,0,0.818,0,0.818-0.819V177.111z M515.015,170.04
	c0,0,0-0.819-0.818-0.819h-3.881c0,0-0.826,0-0.826,0.819v2.159c0,0,0,0.813,0.826,0.813h3.881c0,0,0.818,0,0.818-0.813V170.04z
	 M515.015,162.978c0,0,0-0.807-0.818-0.807h-3.881c0,0-0.826,0-0.826,0.807v2.15c0,0,0,0.828,0.826,0.828h3.881
	c0,0,0.818,0,0.818-0.828V162.978z M515.015,155.906c0,0,0-0.813-0.818-0.813h-3.881c0,0-0.826,0-0.826,0.813v2.165
	c0,0,0,0.813,0.826,0.813h3.881c0,0,0.818,0,0.818-0.813V155.906z M515.015,148.847c0,0,0-0.819-0.818-0.819h-3.881
	c0,0-0.826,0-0.826,0.819v2.146c0,0,0,0.826,0.826,0.826h3.881c0,0,0.818,0,0.818-0.826V148.847z M510.315,141.286
	c0,0-0.826-0.077-0.826,0.742v1.912c0,0,0,0.813,0.826,0.813h3.887c0,0,0.812,0,0.812-0.813v-1.407c0,0,0-0.813-0.812-0.896
	L510.315,141.286z M500.017,88.243c-6.339,1.98-10.257,19.61-10.387,20.192c2.705-0.662,6.566-1.066,10.207-1.124v-0.006h0.093
	c0.03,0,0.062,0,0.087,0h0.012c0.123-0.006,0.234-0.012,0.357-0.012c3.832,0.019,7.342,0.44,10.231,1.143
	c-0.13-0.582-4.054-18.211-10.404-20.192c-0.03-0.006-0.129-0.006-0.185,0H500.017 M488.7,110.483
	c-1.546,0.397-2.033,1.352-2.033,2.026c0,0.675,0.653,1.79,2.539,1.241c4.496-1.293,9.64-1.146,10.631-1.103h0.376
	c0.974-0.043,6.13-0.197,10.626,1.103c1.891,0.548,2.544-0.566,2.544-1.241c0-0.674-0.493-1.629-2.021-2.026
	c-2.568-0.662-5.353-1.386-11.278-1.438h-0.111C494.034,109.098,491.257,109.821,488.7,110.483 M493.868,126.028
	c0,0,0.813,0,0.813-0.816v-1.91c0,0,0-0.812-0.813-0.812h-3.881c0,0-0.818,0-0.818,0.812v1.91c0,0,0,0.816,0.818,0.816H493.868
	 M494.682,130.115c0,0,0-0.807-0.813-0.807h-3.881c0,0-0.818,0-0.818,0.807v1.916c0,0,0,0.823,0.818,0.823h3.881
	c0,0,0.813,0,0.813-0.823V130.115 M493.874,119.209c0,0,0.808,0,0.808-0.813v-1.817c0,0,0-0.813-0.808-0.733l-3.887,0.397
	c0,0-0.818,0.083-0.818,0.896v1.256c0,0,0,0.813,0.818,0.813H493.874 M490.561,177.111c0,0,0-0.819-0.819-0.819h-3.905
	c0,0-0.808,0-0.808,0.819v2.147c0,0,0,0.819,0.808,0.819h3.905c0,0,0.819,0,0.819-0.819V177.111z M490.561,170.04
	c0,0,0-0.819-0.819-0.819h-3.905c0,0-0.808,0-0.808,0.819v2.159c0,0,0,0.813,0.808,0.813h3.905c0,0,0.819,0,0.819-0.813V170.04z
	 M490.561,162.978c0,0,0-0.807-0.819-0.807h-3.905c0,0-0.808,0-0.808,0.807v2.15c0,0,0,0.828,0.808,0.828h3.905
	c0,0,0.819,0,0.819-0.828V162.978z M490.561,155.906c0,0,0-0.813-0.819-0.813h-3.905c0,0-0.808,0-0.808,0.813v2.165
	c0,0,0,0.813,0.808,0.813h3.905c0,0,0.819,0,0.819-0.813V155.906z M490.561,148.847c0,0,0-0.819-0.819-0.819h-3.905
	c0,0-0.808,0-0.808,0.819v2.146c0,0,0,0.826,0.808,0.826h3.905c0,0,0.819,0,0.819-0.826V148.847z M490.561,142.028
	c0,0,0-0.819-0.813-0.742l-3.911,0.351c0,0-0.808,0.083-0.808,0.896v1.407c0,0,0,0.807,0.808,0.807h3.905c0,0,0.819,0,0.819-0.807
	V142.028z M498.704,162.978c0,0,0-0.807-0.813-0.807h-3.887c0,0-0.819,0-0.819,0.807v2.15c0,0,0,0.828,0.819,0.828h3.887
	c0,0,0.813,0,0.813-0.828V162.978z M498.704,155.906c0,0,0-0.813-0.813-0.813h-3.887c0,0-0.819,0-0.819,0.813v2.165
	c0,0,0,0.813,0.819,0.813h3.887c0,0,0.813,0,0.813-0.813V155.906z M498.704,148.847c0,0,0-0.819-0.813-0.819h-3.887
	c0,0-0.819,0-0.819,0.819v2.146c0,0,0,0.826,0.819,0.826h3.887c0,0,0.813,0,0.813-0.826V148.847z M498.704,141.785
	c0,0,0-0.822-0.813-0.822h-3.887c0,0-0.819,0-0.819,0.822v2.156c0,0,0,0.807,0.819,0.807h3.887c0,0,0.813,0,0.813-0.807V141.785z"/>
</svg>
