<?xml version="1.0" encoding="utf-8"?>
<!-- Generator: Adobe Illustrator 19.1.0, SVG Export Plug-In . SVG Version: 6.00 Build 0)  -->
<svg version="1.1" id="NCF" xmlns="http://www.w3.org/2000/svg" xmlns:xlink="http://www.w3.org/1999/xlink" x="0px" y="0px"
	 viewBox="-58.7 202.9 566.9 396.6" style="enable-background:new -58.7 202.9 566.9 396.6;" xml:space="preserve">
<g>
	<polygon points="13.6,595.1 13.5,595.1 8.7,573.6 4.7,573.6 -0.1,595.1 -0.3,595.1 -4.6,573.6 -7.9,573.6 -2.3,599.1 2,599.1 
		6.6,577.7 6.7,577.7 11.4,599.1 15.7,599.1 21.2,573.6 17.8,573.6 	"/>
	<polygon points="367,352.7 334.3,352.7 334.3,334.7 360.3,334.7 360.3,322.6 334.3,322.6 334.3,306.2 365.9,306.2 365.9,293.2 
		318.8,293.2 318.8,365.7 367,365.7 	"/>
	<path d="M47.6,576c3.2,0,4.8,2,5.6,5.6h3.2c-0.8-5.4-3.7-8.5-8.8-8.5c-6.1,0-10,4.9-10,13.2c0,8.3,3.7,13.2,9.9,13.2
		c4.9,0,8-3.2,8.8-8.5h-3.2c-0.8,3.6-2.3,5.6-5.6,5.6c-4.2,0-6.6-3.9-6.6-10.4C41,579.9,43.5,576,47.6,576z"/>
	<path d="M56.3,419.7c0-23.5-11.8-37.5-31.1-37.5c-19.5,0-31.2,14-31.2,37.5c0,23.5,11.7,37.5,31.2,37.5
		C44.5,457.2,56.3,443.1,56.3,419.7z M25.2,444c-9.5,0-15.5-8.4-15.5-24.2c0-15.8,6-24.2,15.5-24.2c9.5,0,15.4,8.5,15.4,24.2
		C40.6,435.4,34.7,444,25.2,444z"/>
	<path d="M394.1,339.3h5.5c11,0,13.5,5.2,15.4,14.7l2.2,11.7h15.6l-2.7-13.6c-2.1-10.6-5.2-16.9-12.5-19.3v-0.4
		C426.2,330,431,324,431,314c0-12-8.6-20.8-26.5-20.8h-25.9v72.5h15.5V339.3z M394.1,305.5h9.5c7.4,0,11.7,3.9,11.7,10.2
		c0,6.5-4.1,11.1-11.7,11.1h-9.5V305.5z"/>
	<path d="M308,344.3c0-8.4-5.2-15.3-14.2-16.9V327c8.1-2.1,11.6-8.1,11.6-14.9c0-11.9-7.9-18.9-23.9-18.9h-27.9v72.5h29.7
		C299.3,365.7,308,356.6,308,344.3z M269,305.5h10.4c7.4,0,10.4,3.3,10.4,8c0,5.6-3.4,9.2-10.8,9.2H269L269,305.5L269,305.5z
		 M269,353.4V334h12.1c7.4,0,11.3,3.7,11.3,9.5c0,6-3.6,9.9-11.4,9.9H269z"/>
	<path d="M22,350.3h23l4,15.4h16.3l-21.9-72.5H24.2L2.1,365.7h15.8L22,350.3z M33.4,307.9h0.4l7.9,30H25.3L33.4,307.9z"/>
	<polygon points="-41,233 -40.5,233 -12.1,275.4 0.5,275.4 0.5,202.9 -14.9,202.9 -14.5,245.2 -14.9,245.2 -43.2,202.9 -56,202.9 
		-56,275.4 -40.5,275.4 	"/>
	<path d="M214.1,355.3c-6.5,0-11.3-3.2-11.3-10h-15.1c0,13.9,9.4,21.7,26.3,21.7c17.3,0,27.2-9.3,27.2-22.9
		c0-26.7-36.7-16.9-36.7-31.9c0-5.9,4.5-8.5,10-8.5c5.4,0,9.8,2.5,9.8,8.5h15.1c0-12.8-9.6-20.2-24.9-20.2
		c-15.8,0-25.6,9.2-25.6,21.7c0,27.2,36.4,17.4,36.4,32.2C225.5,352.2,220.8,355.3,214.1,355.3z"/>
	<polygon points="30.4,275.4 46,275.4 46,247.5 69,202.9 52.8,202.9 38.8,232.6 38.4,232.6 24.9,202.9 7.6,202.9 30.4,247.8 	"/>
	<polygon points="183.3,352.6 155.2,352.6 155.2,293.2 139.7,293.2 139.7,365.7 183.3,365.7 	"/>
	<polygon points="-56,456 -40.5,456 -40.5,429.7 -16,429.7 -16,417.3 -40.5,417.3 -40.5,396.5 -10.3,396.5 -10.3,383.5 -56,383.5 	
		"/>
	<path d="M-15.7,341.1c-1.6,8.4-5.4,12.5-12.4,12.5c-9.4,0-14.9-8.5-14.9-24.2c0-15.7,5.5-24.2,14.9-24.2c6.5,0,10.8,3.9,12.4,12.5
		h15.1C-2.7,301-12.2,291.9-28,291.9c-19.5,0-30.6,14.2-30.6,37.5C-58.7,352.8-48,367-28,367c15.6,0,25.3-9,27.4-25.8H-15.7z"/>
	<polygon points="-40.7,592.5 -40.9,592.5 -52.5,573.6 -55.4,573.6 -55.4,599.1 -52.2,599.1 -52.4,580.2 -52.2,580.2 -40.6,599.1 
		-37.7,599.1 -37.7,573.6 -41,573.6 	"/>
	<polygon points="-25.5,587.6 -16.4,587.6 -16.4,584.7 -25.5,584.7 -25.5,576.5 -14.1,576.5 -14.1,573.6 -28.8,573.6 -28.8,599.1 
		-13.8,599.1 -13.8,596.2 -25.5,596.2 	"/>
	<path d="M69.5,573.6l-8,25.5h3.2l2-6.9H76l2,6.9h3.4l-8-25.5L69.5,573.6L69.5,573.6z M67.6,589.4l3.7-12.4h0.1l3.7,12.4H67.6z"/>
	<path d="M368.7,573.6h-6.3v25.5h6.3c7.8,0,11.6-5.5,11.6-12.8S376.5,573.6,368.7,573.6z M368.6,596.2h-3v-19.7h3
		c6.2,0,8.3,4.6,8.3,9.8C376.9,591.5,374.8,596.2,368.6,596.2z"/>
	<polygon points="350.4,592.5 350.2,592.5 338.6,573.6 335.7,573.6 335.7,599.1 338.9,599.1 338.7,580.2 338.9,580.2 350.5,599.1 
		353.4,599.1 353.4,573.6 350.1,573.6 	"/>
	<path d="M292,573.1c-6.3,0-10.1,4.8-10.1,13.2c0,8.4,3.9,13.2,10.1,13.2c6.2,0,10.2-4.9,10.2-13.2
		C302.2,577.9,298.2,573.1,292,573.1z M292,596.7c-4.3,0-6.8-3.9-6.8-10.4c0-6.4,2.5-10.4,6.8-10.4c4.3,0,6.8,3.9,6.8,10.4
		C298.8,592.7,296.3,596.7,292,596.7z"/>
	<path d="M393,573.6l-8,25.5h3.2l2-6.9h9.3l2,6.9h3.4l-8-25.5L393,573.6L393,573.6z M391.1,589.4l3.7-12.4h0.1l3.7,12.4H391.1z"/>
	<path d="M323.9,590.3c0,4-1.7,6.3-5.5,6.3c-3.7,0-5.5-2.4-5.5-6.3v-16.7h-3.2v16.6c0,6.6,3.5,9.4,8.7,9.4c5.3,0,8.7-2.8,8.7-9.4
		v-16.6h-3.2V590.3z"/>
	<path d="M473.3,325.7v11.7h12.2c-0.7,10.7-5.3,16.3-13.3,16.3c-9.5,0-15.5-8.6-15.5-24.2c0-15.9,6.3-24.2,15.9-24.2
		c7.2,0,11.2,4,12.6,10.3h15.1c-2-14.4-11.7-23.6-27.7-23.6c-19.6,0-31.6,14-31.6,37.5v0.2c0,23.2,11.9,37.3,30.9,37.3
		c16.3,0,26.6-10.2,27.9-29.6h8.4v-11.7L473.3,325.7z"/>
	<polygon points="484.4,592.5 484.3,592.5 472.7,573.6 469.8,573.6 469.8,599.1 473,599.1 472.8,580.2 472.9,580.2 484.5,599.1 
		487.4,599.1 487.4,573.6 484.2,573.6 	"/>
	<polygon points="295.6,456 295.6,396.6 313.3,396.6 313.3,383.5 262.4,383.5 262.4,396.6 280.1,396.6 280.1,456 	"/>
	<path d="M451.9,573.1c-6.3,0-10.1,4.8-10.1,13.2c0,8.4,3.9,13.2,10.1,13.2c6.2,0,10.2-4.9,10.2-13.2
		C462.1,577.9,458.2,573.1,451.9,573.1z M451.9,596.7c-4.3,0-6.8-3.9-6.8-10.4c0-6.4,2.5-10.4,6.8-10.4c4.3,0,6.8,3.9,6.8,10.4
		C458.7,592.7,456.2,596.7,451.9,596.7z"/>
	<polygon points="406.5,576.4 413.7,576.4 413.7,599.1 417,599.1 417,576.4 424.2,576.4 424.2,573.6 406.5,573.6 	"/>
	<rect x="430.8" y="573.6" width="3.2" height="25.5"/>
	<path d="M163.8,383.5h-23V456h23c23,0,34-15.5,34-36.3C197.9,398.8,186.8,383.5,163.8,383.5z M163,443h-6.6v-46.6h6.6
		c13.9,0,19,10.4,19,23.2C181.9,432.1,176.9,443,163,443z"/>
	<path d="M111.9,332.8v-0.4c8.7-2.4,13.5-8.4,13.5-18.4c0-12-8.6-20.8-26.4-20.8H73v72.5h15.5v-26.4H94c11,0,13.5,5.2,15.4,14.7
		l2.2,11.7h15.6l-2.7-13.6C122.3,341.5,119.3,335.2,111.9,332.8z M98,326.8h-9.5v-21.3H98c7.4,0,11.7,3.9,11.7,10.2
		C109.7,322.3,105.6,326.8,98,326.8z"/>
	<path d="M133.2,580c0-2.9,2.3-4.1,4.8-4.1c2.6,0,4.7,1.3,4.7,4.2h3.2c0-4.4-3.3-6.9-7.9-6.9c-4.9,0-8.1,3-8.1,7.1
		c0,9.5,13.2,5.2,13.2,12.1c0,3.1-2.2,4.6-5.3,4.6c-3,0-5.2-1.6-5.2-4.7h-3.2c0,4.5,3,7.5,8.3,7.5c5.4,0,8.5-3.2,8.5-7.5
		C146.4,582.4,133.2,586.6,133.2,580z"/>
	<path d="M166.2,585.7v-0.1c2.8-0.9,4-3,4-5.4c0-4.2-2.7-6.6-8-6.6h-7.8v25.5h8.5c5.3,0,8.3-3.2,8.3-7.5
		C171.2,588.6,169.2,586.3,166.2,585.7z M157.6,576.5h4.6c3.4,0,4.7,1.4,4.7,3.7c0,2.6-1.6,4.3-4.7,4.3h-4.6V576.5z M162.9,596.2
		h-5.3v-8.9h5.3c3.4,0,5,1.9,5,4.3C168,594.4,166.3,596.2,162.9,596.2z"/>
	<polygon points="115.5,573.6 112.3,573.6 112.3,599.1 125.7,599.1 125.7,596.2 115.5,596.2 	"/>
	<polygon points="124.4,383.5 109,383.5 109.4,425.7 109,425.7 80.7,383.5 67.9,383.5 67.9,456 83.3,456 82.9,413.6 83.3,413.6 
		111.8,456 124.4,456 	"/>
	<path d="M99.5,587.1v-0.1c2.6-0.7,4.5-2.8,4.5-6.2c0-4.4-3.1-7.2-8.4-7.2h-7.6v25.5h3.2v-10.5h3.6c3.9,0,4.8,1.6,5.5,5.5l0.9,5h3.2
		l-1-5.4C102.8,590.3,102.1,588,99.5,587.1z M95.6,585.7h-4.5v-9.2h4.5c3.1,0,5,1.6,5,4.4C100.7,583.6,98.9,585.7,95.6,585.7z"/>
	<path d="M234.3,588.4h5.9c-0.1,5.3-2.2,8.3-6.1,8.3c-4.2,0-6.8-4-6.8-10.4c0-6.3,2.5-10.4,6.9-10.4c2.2,0,4.2,1,5.6,3.3l2.5-1.6
		c-1.6-3.1-4.7-4.5-7.9-4.5c-6.5,0-10.4,5.2-10.4,13.3c0,8.1,3.9,13.1,10.1,13.1c6,0,9.3-4.2,9.3-12.1v-1.9h-9.1V588.4z"/>
	<polygon points="182.1,587.6 191.2,587.6 191.2,584.7 182.1,584.7 182.1,576.5 193.5,576.5 193.5,573.6 178.9,573.6 178.9,599.1 
		193.8,599.1 193.8,596.2 182.1,596.2 	"/>
	<polygon points="224.8,425 250.9,425 250.9,412.9 224.8,412.9 224.8,396.5 256.4,396.5 256.4,383.5 209.3,383.5 209.3,456 
		257.6,456 257.6,443 224.8,443 	"/>
	<path d="M213.1,587.1v-0.1c2.6-0.7,4.5-2.8,4.5-6.2c0-4.4-3.1-7.2-8.4-7.2h-7.6v25.5h3.2v-10.5h3.6c3.9,0,4.7,1.6,5.5,5.5l0.9,5
		h3.2l-1-5.4C216.4,590.3,215.7,588,213.1,587.1z M209.2,585.7h-4.5v-9.2h4.5c3.1,0,5,1.6,5,4.4
		C214.3,583.6,212.5,585.7,209.2,585.7z"/>
	<polygon points="262.5,599.1 265.7,599.1 265.7,588.5 274.5,588.5 274.5,585.7 265.7,585.7 265.7,576.5 276.8,576.5 276.8,573.6 
		262.5,573.6 	"/>
</g>
</svg>
