<?xml version="1.0" encoding="utf-8"?>
<!-- Generator: Adobe Illustrator 16.0.4, SVG Export Plug-In . SVG Version: 6.00 Build 0)  -->
<!DOCTYPE svg PUBLIC "-//W3C//DTD SVG 1.1//EN" "http://www.w3.org/Graphics/SVG/1.1/DTD/svg11.dtd">
<svg version="1.1" id="Layer_1" xmlns="http://www.w3.org/2000/svg" xmlns:xlink="http://www.w3.org/1999/xlink" x="0px" y="0px"
	 width="800.172px" height="80.021px" viewBox="0 0 800.172 80.021" enable-background="new 0 0 800.172 80.021"
	 xml:space="preserve">
<g>
	<path d="M43.34,78.691h-6.09c-1.774,0-2.448-0.218-2.448-2.214V39.675c0-5.209,0-13.521-13.294-13.521
		c-7.424,0-11.634,1.557-11.634,3.654v46.669c0,1.996-0.78,2.214-2.331,2.214H2.11c-1.55,0-2.11-0.217-2.11-2.106V26.154
		c0-1.883,1.22-2.988,4.99-4.101c2.991-0.884,8.874-2.102,16.738-2.102c22.828,0,22.946,11.303,22.946,18.283v38.242
		C44.674,77.478,44.556,78.474,43.34,78.691"/>
	<path d="M89.552,49.982c0,10.419-2.214,17.072-5.208,19.951c-2.99,2.877-5.764,3.658-9.64,3.658c-3.874,0-6.539-0.781-9.639-3.658
		c-2.994-2.879-5.104-9.532-5.104-19.951c0-10.417,2.11-17.28,5.104-20.055c3.1-2.883,5.765-3.552,9.639-3.552
		c3.875,0,6.649,0.781,9.64,3.552C87.337,32.804,89.552,39.566,89.552,49.982 M99.646,49.982c0-13.187-4.21-21.72-10.638-26.042
		c-3.885-2.662-9.198-3.988-14.304-3.988c-4.985,0-10.309,1.326-14.303,3.988c-6.424,4.322-10.634,12.855-10.634,26.042
		c0,13.189,4.21,21.613,10.634,25.939c3.994,2.772,9.318,4.101,14.303,4.101c5.105,0,10.419-1.442,14.304-4.101
		C95.436,71.49,99.646,63.172,99.646,49.982"/>
	<path d="M146.081,24.162l-19.397,52.864c-0.549,1.55-0.77,1.668-2.11,1.668h-4.321c-0.882-0.118-1.1-0.446-1.66-1.776
		L98.531,24.162c-0.22-0.558-0.44-1.109-0.44-1.557c0-1.328,1.114-1.328,1.556-1.328h6.758c1.66,0,1.88,0.229,2.439,1.774
		l14.964,42.006l14.399-42.229c0.339-1.104,0.553-1.438,1.335-1.55h5.544c0.544,0,1.44,0,1.44,1.109
		C146.528,22.606,146.528,22.828,146.081,24.162"/>
	<path d="M184.204,49.982c0,10.419-2.216,17.072-5.21,19.951c-2.99,2.877-5.764,3.658-9.638,3.658c-3.886,0-6.543-0.781-9.64-3.658
		c-2.993-2.879-5.101-9.532-5.101-19.951c0-10.417,2.107-17.28,5.101-20.055c3.097-2.883,5.754-3.552,9.64-3.552
		c3.874,0,6.648,0.781,9.638,3.552C181.988,32.804,184.204,39.566,184.204,49.982 M194.289,49.982
		c0-13.187-4.21-21.72-10.641-26.042c-3.881-2.662-9.198-3.988-14.292-3.988c-4.99,0-10.307,1.326-14.304,3.988
		c-6.421,4.322-10.631,12.855-10.631,26.042c0,13.189,4.21,21.613,10.631,25.939c3.997,2.772,9.314,4.101,14.304,4.101
		c5.094,0,10.411-1.442,14.292-4.101C190.079,71.49,194.289,63.172,194.289,49.982"/>
	<path d="M255.138,78.691h-6.1c-1.764,0-2.439-0.218-2.439-2.214V39.675c0-5.209,0-13.521-13.292-13.521
		c-7.424,0-11.634,1.557-11.634,3.654v46.669c0,1.996-0.783,2.214-2.337,2.214h-5.427c-1.558,0-2.104-0.218-2.104-2.106V26.154
		c0-1.883,1.22-2.988,4.983-4.101c2.99-0.884,8.862-2.102,16.738-2.102c22.827,0,22.946,11.303,22.946,18.283v38.242
		C256.472,77.478,256.353,78.474,255.138,78.691"/>
	<path d="M301.241,49.982c0,10.419-2.221,17.072-5.201,19.951c-2.996,2.877-5.766,3.658-9.647,3.658
		c-3.884,0-6.537-0.781-9.645-3.658c-2.996-2.879-5.099-9.532-5.099-19.951c0-10.417,2.103-17.28,5.099-20.055
		c3.108-2.883,5.761-3.552,9.645-3.552c3.881,0,6.651,0.781,9.647,3.552C299.02,32.804,301.241,39.566,301.241,49.982
		 M311.328,49.982c0-13.187-4.217-21.72-10.64-26.042c-3.877-2.662-9.198-3.988-14.295-3.988c-4.993,0-10.307,1.326-14.302,3.988
		c-6.423,4.322-10.64,12.855-10.64,26.042c0,13.189,4.217,21.613,10.64,25.939c3.995,2.772,9.309,4.101,14.302,4.101
		c5.098,0,10.418-1.442,14.295-4.101C307.11,71.49,311.328,63.172,311.328,49.982"/>
	<path d="M344.248,30.702c-3.77,0-4.884-5.213-11.972-5.213c-3.323,0-5.646,1.552-5.646,4.318v46.993c0,1.774-0.667,1.89-2.001,1.89
		h-5.656c-1.667,0-2.216-0.114-2.216-1.89V26.267c0-1.887,1.335-3.541,5.099-4.541c2.773-0.776,6.651-1.773,12.639-1.773
		c7.645,0,14.408,1.773,14.408,5.762C348.901,28.928,346.788,30.702,344.248,30.702"/>
	<path d="M384.365,68.938c0,2.992-4.877,4.545-9.865,4.545c-10.747,0-18.28-8.977-18.28-24.381c0-13.523,7.2-22.388,17.398-22.388
		c5.65,0,8.526,1.768,10.747,3.545V68.938z M394.115,72.261v-69.6c0-2.103-0.556-2.222-2.327-2.222h-5.317
		c-1.774,0-2.107,0.672-2.107,2.439v20.063c-3.438-1.665-6.984-2.991-12.081-2.991c-17.297,0-26.149,16.292-26.149,30.03
		c0,19.951,11.301,30.037,28.036,30.037C382.481,80.02,394.115,75.803,394.115,72.261"/>
	<path d="M408.861,11.634c-3.777,0-5.988-2.658-5.988-5.759c0-3.442,2.553-5.875,6.09-5.875c3.107,0,5.883,2.214,5.883,5.544
		C414.846,8.642,412.624,11.634,408.861,11.634 M411.516,78.691h-5.867c-1.672,0-1.672-0.445-1.672-1.991V23.384
		c0-1.439,0-2.105,1.89-2.105h5.649c1.773,0,2.221,0.331,2.221,2.105v53.315C413.736,78.576,413.174,78.691,411.516,78.691"/>
	<path d="M436.779,80.022c-8.978,0-17.84-3.883-17.84-8.427c0-2.88,2.325-3.767,4.21-3.767c3.775,0,5.986,5.875,13.745,5.875
		c7.756,0,11.415-5.322,11.415-9.755c0-6.098-5.986-8.535-12.418-11.193c-8.09-3.433-14.848-7.54-14.848-17.062
		c0-10.426,8.873-15.741,18.948-15.741c7.648,0,14.852,2.548,14.852,6.649c0,2.876-2.322,3.988-3.988,3.988
		c-3.315,0-4.98-4.323-11.404-4.323c-6.21,0-9.533,4.21-9.533,8.533c0,12.19,27.254,9.312,27.254,28.044
		C457.172,74.703,446.759,80.022,436.779,80.022"/>
	<path d="M505.615,78.691h-7.54c-1.658,0-2.105,0-3.214-1.66l-19.506-27.93c-0.219-0.229-0.439-0.56-0.439-0.894
		c0-0.223,0.109-0.44,0.662-0.771c8.089-4.657,16.287-14.851,19.389-24.384c0.562-1.774,1.45-1.774,3.445-1.774h5.207
		c1.433,0,1.88,0.226,1.88,1.331c0,0.666-0.106,1.112-0.56,2.105c-4.65,9.423-12.516,18.063-19.829,23.387l21.278,27.931
		c0.443,0.668,0.769,0.887,0.769,1.445C507.157,78.576,506.048,78.691,505.615,78.691 M471.361,78.691h-5.879
		c-1.434,0-1.881-0.218-1.881-1.772V1.992c0-1.439,0.67-1.553,1.881-1.553h5.879c1.221,0,1.992,0,1.992,1.334v75.257
		C473.354,78.691,472.811,78.691,471.361,78.691"/>
	<path d="M545.717,8.42c-1.115,0-2.218-0.331-4.326-0.331c-3.876,0-7.537,2.104-7.537,8.529c0,3.111,1,5.886,2.327,5.886h9.089
		c1.989,0,1.989,0.439,1.989,1.88v2.33c0,1.545-0.768,1.545-2.218,1.545h-9.078v48.102c0,1.996-0.781,2.33-2.225,2.33h-5.641
		c-1.669,0-1.887-0.556-1.887-2.438V28.259h-6.206c-1.447,0-2.003,0-2.003-1.545v-2.443c0-1.218,0-1.767,1.556-1.767h6.653
		c-0.785-17.298,10.416-22.166,17.84-22.166c3.764,0,5.649,1.773,5.649,4.319C549.701,6.871,548.043,8.42,545.717,8.42"/>
	<path d="M585.283,49.982c0,10.419-2.229,17.072-5.225,19.951c-2.979,2.877-5.753,3.658-9.639,3.658
		c-3.872,0-6.53-0.781-9.638-3.658c-2.996-2.879-5.099-9.532-5.099-19.951c0-10.417,2.103-17.28,5.099-20.055
		c3.106-2.883,5.766-3.552,9.638-3.552c3.886,0,6.66,0.781,9.639,3.552C583.055,32.804,585.283,39.566,585.283,49.982
		 M595.364,49.982c0-13.187-4.217-21.72-10.643-26.042c-3.882-2.662-9.196-3.988-14.302-3.988c-4.984,0-10.307,1.326-14.288,3.988
		c-6.432,4.322-10.645,12.855-10.645,26.042c0,13.189,4.213,21.613,10.645,25.939c3.981,2.772,9.304,4.101,14.288,4.101
		c5.104,0,10.42-1.442,14.302-4.101C591.146,71.49,595.364,63.172,595.364,49.982"/>
	<path d="M644.013,78.691h-6.097c-1.768,0-2.426-0.218-2.426-2.214V39.675c0-5.209,0-13.521-13.311-13.521
		c-7.424,0-11.634,1.557-11.634,3.654v46.669c0,1.996-0.778,2.214-2.327,2.214h-5.435c-1.557,0-2.095-0.218-2.095-2.106V26.154
		c0-1.883,1.214-2.988,4.986-4.101c2.989-0.884,8.857-2.102,16.726-2.102c22.824,0,22.943,11.303,22.943,18.283v38.242
		C645.347,77.478,645.229,78.474,644.013,78.691"/>
	<path d="M688.68,68.938c0,2.992-4.879,4.545-9.867,4.545c-10.743,0-18.279-8.977-18.279-24.381
		c0-13.523,7.202-22.388,17.396-22.388c5.653,0,8.54,1.768,10.751,3.545V68.938L688.68,68.938z M698.44,72.261v-69.6
		c0-2.103-0.563-2.222-2.337-2.222h-5.319c-1.771,0-2.104,0.672-2.104,2.439v20.063c-3.43-1.665-6.983-2.991-12.081-2.991
		c-17.288,0-26.157,16.292-26.157,30.03c0,19.951,11.31,30.037,28.044,30.037C686.793,80.02,698.44,75.803,698.44,72.261"/>
	<path d="M740.102,38.788c0,1.776-0.438,3.436-3.098,3.436h-24.278c1.003-8.864,5.878-15.957,15.521-15.957
		C735.346,26.267,740.102,32.473,740.102,38.788 M750.523,40.784c0-9.64-7.431-20.833-21.947-20.833
		c-11.859,0-24.605,8.754-24.605,31.026c0,13.527,7.322,29.044,24.605,29.044c12.757,0,19.732-9.089,20.832-13.521
		c0.562-2.443-1.1-3.111-1.538-3.214c-1.44,0-2.108,0.442-3.995,2.322c-3.545,3.437-8.09,5.653-13.627,5.653
		c-8.539,0-17.963-7.652-17.741-23.716h33.036C748.969,47.549,750.523,44.22,750.523,40.784"/>
	<path d="M798.845,78.691h-6.097c-1.768,0-2.443-0.218-2.443-2.214V39.675c0-5.209,0-13.521-13.295-13.521
		c-7.424,0-11.638,1.557-11.638,3.654v46.669c0,1.996-0.778,2.214-2.32,2.214h-5.438c-1.552,0-2.103-0.218-2.103-2.106V26.154
		c0-1.883,1.219-2.988,4.988-4.101c2.985-0.884,8.867-2.102,16.738-2.102c22.828,0,22.934,11.303,22.934,18.283v38.242
		C800.172,77.478,800.066,78.474,798.845,78.691"/>
</g>
</svg>
