<?xml version="1.0" encoding="utf-8"?>
<!-- Generator: Adobe Illustrator 19.1.0, SVG Export Plug-In . SVG Version: 6.00 Build 0)  -->
<svg version="1.1" id="Layer_1" xmlns="http://www.w3.org/2000/svg" xmlns:xlink="http://www.w3.org/1999/xlink" x="0px" y="0px"
	 viewBox="0 0 805.9 609" style="enable-background:new 0 0 805.9 609;" xml:space="preserve">
<style type="text/css">
	.st0{fill:#D3ADAB;}
	.st1{fill:#B4B1BA;}
	.st2{fill:#D4C8AC;}
	.st3{fill:#393939;}
	.st4{fill:#9E9E9E;}
	.st5{fill:#D8DCBF;}
</style>
<g>
	<path class="st0" d="M578.9,0h-352v106h352V0L578.9,0z"/>
	<g>
		<path class="st1" d="M388.9,503H0.9v106h388V503L388.9,503z"/>
	</g>
	<g>
		<path class="st2" d="M805.9,503h-388v106h388V503L805.9,503z"/>
	</g>
	<g>
		<path class="st3" d="M371.8,48.3h6.8c2.3,0,4.2,1,4.2,3c0,1-0.4,2.7-4.2,3.1c1.5,0.4,2.2,0.7,2.6,1.2c1.3,1.3,0.6,2.9,1.6,4.5
			h-3.4c-0.8-1.1-0.4-3.3-1.3-4.2c-0.3-0.3-0.9-0.4-1.4-0.4H375V60h-3.2V48.3z M375,53.1h1.9c2,0,2.5-0.6,2.5-1.4
			c0-0.7-0.5-1.3-1.8-1.3H375V53.1z"/>
		<path class="st3" d="M395,57.6c-0.4,0.8-1.8,2.7-4.9,2.7c-4.1,0-5.2-2.7-5.2-4.4c0-2.4,2-4.5,5-4.5c3.3,0,5.1,2.4,5.2,4.9h-7.1
			c0.1,1.1,0.6,2.1,2.4,2.1c0.8,0,1.4-0.3,1.9-0.9H395z M392,55c-0.1-0.9-0.7-1.7-2-1.7c-1.1,0-1.9,0.7-2,1.7H392z"/>
		<path class="st3" d="M403.7,54.6c-0.3-0.8-0.9-1.2-1.9-1.2c-1.1,0-2,0.8-2,2.6c0,1.6,0.9,2.4,2,2.4c1,0,1.7-0.4,2.1-1.4h3
			c-0.3,1-1.4,3.3-5,3.3c-3.1,0-5.1-1.8-5.1-4.5c0-2.5,2.1-4.5,5.1-4.5c3.5,0,4.8,2.1,5,3.3H403.7z"/>
		<path class="st3" d="M415.4,59.9c-0.6,0.2-1.4,0.3-2.4,0.3c-1.9,0-3-0.8-3-2v-4.4h-1.9v-2.1h2l0.5-3h2.3v3h2.5v2.1h-2.5v3.3
			c0,0.9,0.2,1.2,1.3,1.2c0.3,0,0.8,0,1.2-0.2V59.9z"/>
		<path class="st3" d="M422.2,51.4c3.2,0,5.1,1.9,5.1,4.4c0,2.8-2.4,4.5-5.1,4.5c-3.2,0-5-2.2-5-4.5
			C417.2,53.3,419.2,51.4,422.2,51.4z M424.2,55.8c0-1.4-0.7-2.4-2-2.4c-1.3,0-2,0.9-2,2.4c0,1.4,0.6,2.4,2,2.4
			C423.5,58.2,424.2,57.1,424.2,55.8z"/>
		<path class="st3" d="M432.5,54c0.6-1.4,1.6-2.5,3.2-2.5h0.6v2.7H436c-1.5,0-2.2,0.2-2.7,0.7c-0.5,0.5-0.7,1.1-0.7,1.7V60h-2.9
			v-8.3h2.9V54z"/>
	</g>
	<g>
		<path class="st3" d="M158.2,528.8h9.8v2.6h-6.6v2h5.3v2.5h-5.3v4.6h-3.2V528.8z"/>
		<path class="st3" d="M168.7,534.8c0-0.6,0.3-1.2,0.7-1.6c0.7-0.7,1.6-1.3,4.1-1.3c3.9,0,4.3,1.8,4.3,3.2v2.8c0,0.7,0.2,1,1,1
			c0.3,0,0.7-0.1,1.2-0.2v1.7c-1.2,0.4-1.8,0.4-2.3,0.4c-1.4,0-2.3-0.5-2.7-1.5c-1,1.1-2.7,1.5-3.9,1.5c-1.8,0-2.8-1.2-2.8-2.4
			c0-0.6,0.2-1.1,0.6-1.5c1.2-1.2,3.6-1,6.2-1.6V535c0-0.8-0.6-1.4-2-1.4c-1,0-1.6,0.4-1.8,1.2H168.7z M174.9,536.3
			c-1.9,0.3-3.7,0.4-3.7,1.7c0,0.5,0.4,1,1.3,1c0.8,0,2-0.5,2.4-1.6V536.3z"/>
		<path class="st3" d="M188.1,535.1c-0.3-0.8-0.9-1.2-1.9-1.2c-1.1,0-2,0.8-2,2.6c0,1.6,0.9,2.4,2,2.4c1,0,1.7-0.4,2.1-1.4h3
			c-0.3,1-1.4,3.3-5,3.3c-3.1,0-5.1-1.8-5.1-4.5c0-2.5,2.1-4.5,5.1-4.5c3.5,0,4.8,2.1,5,3.3H188.1z"/>
		<path class="st3" d="M203,540.5h-2.9v-1.7c-0.7,1.2-1.9,1.9-3.4,1.9c-2,0-3.4-1.3-3.4-3.8v-4.7h2.9v4.4c0,1.3,0.7,1.9,1.5,1.9
			c1.2,0,2.3-1.1,2.3-2.8v-3.5h2.9V540.5z"/>
		<path class="st3" d="M205.9,528.8h3v11.7h-3V528.8z"/>
		<path class="st3" d="M218.2,540.4c-0.6,0.2-1.4,0.3-2.4,0.3c-1.9,0-3-0.8-3-2v-4.4H211v-2.1h2l0.5-3h2.3v3h2.5v2.1h-2.5v3.3
			c0,0.9,0.2,1.2,1.3,1.2c0.3,0,0.8,0,1.2-0.2V540.4z"/>
		<path class="st3" d="M219.4,532.2h3.1l2.1,5.2l1.9-5.2h2.9l-3.8,8.8c-0.9,2.1-2,2.6-4.2,2.6h-0.7v-2.2h0.7c1.2,0,1.8-0.3,2-0.9
			L219.4,532.2z"/>
		<path class="st3" d="M231,532.2h2.9v3H231V532.2z M231,537.5h2.9v3H231V537.5z"/>
		<path class="st3" d="M35,549.2h6.7c2.3,0,4.2,0.7,4.2,2.7c0,1.1-0.7,2.2-2.9,2.6c2.9,0.4,3.7,1.6,3.7,3c0,2.4-2.5,3.4-5.7,3.4h-6
			V549.2z M38.2,553.6H41c0.9,0,1.6-0.4,1.6-1.2c0-0.9-0.7-1.2-1.7-1.2h-2.7V553.6z M38.2,558.6h3.1c1.6,0,2.1-0.6,2.1-1.4
			c0-0.9-0.7-1.4-1.8-1.4h-3.3V558.6z"/>
		<path class="st3" d="M49.3,555.2c0-0.6,0.3-1.2,0.7-1.6c0.7-0.7,1.6-1.3,4.1-1.3c3.9,0,4.3,1.8,4.3,3.2v2.8c0,0.7,0.2,1,1,1
			c0.3,0,0.7-0.1,1.2-0.2v1.7c-1.2,0.4-1.8,0.4-2.3,0.4c-1.4,0-2.3-0.5-2.7-1.5c-1,1.1-2.7,1.5-3.9,1.5c-1.8,0-2.8-1.2-2.8-2.4
			c0-0.6,0.2-1.1,0.6-1.5c1.2-1.2,3.6-1,6.2-1.6v-0.3c0-0.8-0.6-1.4-2-1.4c-1,0-1.6,0.4-1.8,1.2H49.3z M55.5,556.7
			c-1.9,0.3-3.7,0.4-3.7,1.7c0,0.5,0.4,1,1.3,1c0.8,0,2-0.5,2.4-1.6V556.7z"/>
		<path class="st3" d="M62.3,549.2h2.9v2.2h-2.9V549.2z M62.3,552.6h2.9v8.3h-2.9V552.6z"/>
		<path class="st3" d="M69.9,558.5c0.2,0.4,0.4,0.6,0.7,0.8c0.3,0.1,0.7,0.2,1.1,0.2c1,0,1.6-0.2,1.6-0.7c0-0.1-0.1-0.3-0.2-0.4
			c-0.6-0.6-3.8-0.5-5.1-1.8c-0.4-0.4-0.6-1-0.6-1.5c0-1.5,1.4-2.9,4-2.9c2.7,0,4,1,4.2,2.7h-2.4c-0.1-0.5-0.6-1-1.7-1
			c-0.9,0-1.3,0.3-1.3,0.6c0,0.1,0.1,0.3,0.1,0.3c0.6,0.7,3.4,0.4,4.7,1.7c0.5,0.5,0.7,1.2,0.7,1.8c0,0.5-0.2,2.7-4.2,2.7
			c-3.9,0-4.3-1.9-4.3-2.6H69.9z"/>
		<path class="st3" d="M84.3,555.5c-0.3-0.8-0.9-1.2-1.9-1.2c-1.1,0-2,0.8-2,2.6c0,1.6,0.9,2.4,2,2.4c1,0,1.7-0.4,2.1-1.4h3
			c-0.3,1-1.4,3.3-5,3.3c-3.1,0-5.1-1.8-5.1-4.5c0-2.5,2.1-4.5,5.1-4.5c3.5,0,4.8,2.1,5,3.3H84.3z"/>
		<path class="st3" d="M102.6,553.1c-0.4-1.2-1.5-1.8-2.8-1.8c-1.8,0-2.1,0.7-2.1,1c0,0.2,0.1,0.3,0.2,0.4c0.8,0.8,5,0.8,6.8,2.6
			c0.6,0.6,1,1.4,1,2.2c0,2-2,3.6-5.5,3.6c-2.5,0-3.8-0.5-4.7-1.5c-0.9-0.9-1.2-1.9-1.3-3h2.9c0.2,1.5,1.5,2.3,3,2.3
			c1.5,0,2.2-0.5,2.2-1c0-0.2-0.1-0.4-0.2-0.5c-1-1-4.7-0.9-6.4-2.6c-0.6-0.6-0.9-1.3-0.9-2.2c0-0.9,0.5-1.8,1-2.3
			c0.9-0.9,2-1.3,4.2-1.3c2.8,0,4.8,1.3,5.4,4.1H102.6z"/>
		<path class="st3" d="M114.2,560.8c-0.6,0.2-1.4,0.3-2.4,0.3c-1.9,0-3-0.8-3-2v-4.4h-1.9v-2.1h2l0.5-3h2.3v3h2.5v2.1h-2.5v3.3
			c0,0.9,0.2,1.2,1.3,1.2c0.3,0,0.8,0,1.2-0.2V560.8z"/>
		<path class="st3" d="M126.1,560.9h-2.9v-1.7c-0.7,1.2-1.9,1.9-3.4,1.9c-2,0-3.4-1.3-3.4-3.8v-4.7h2.9v4.4c0,1.3,0.7,1.9,1.5,1.9
			c1.2,0,2.3-1.1,2.3-2.8v-3.5h2.9V560.9z"/>
		<path class="st3" d="M136.1,549.2h2.9v11.7h-2.9v-1.2c-0.7,0.8-1.8,1.4-3.2,1.4c-2.5,0-4.3-2-4.3-4.4c0-3,2.6-4.4,4.5-4.4
			c1,0,2.1,0.4,3.1,1.2V549.2z M133.6,554c-1.3,0-2,1.1-2,2.7c0,1.5,0.6,2.6,2.1,2.6c1,0,2.1-0.8,2.1-2.7
			C135.7,555,134.8,554,133.6,554z"/>
		<path class="st3" d="M142,549.2h2.9v2.2H142V549.2z M142,552.6h2.9v8.3H142V552.6z"/>
		<path class="st3" d="M157.5,558.5c-0.4,0.8-1.8,2.7-4.9,2.7c-4.1,0-5.2-2.7-5.2-4.4c0-2.4,2-4.5,5-4.5c3.3,0,5.1,2.4,5.2,4.9h-7.1
			c0.1,1.1,0.6,2.1,2.4,2.1c0.8,0,1.4-0.3,1.9-0.9H157.5z M154.6,555.9c-0.1-0.9-0.7-1.7-2-1.7c-1.1,0-1.9,0.7-2,1.7H154.6z"/>
		<path class="st3" d="M161.6,558.5c0.2,0.4,0.4,0.6,0.7,0.8c0.3,0.1,0.7,0.2,1.1,0.2c1,0,1.6-0.2,1.6-0.7c0-0.1-0.1-0.3-0.2-0.4
			c-0.6-0.6-3.8-0.5-5.1-1.8c-0.4-0.4-0.6-1-0.6-1.5c0-1.5,1.4-2.9,4-2.9c2.7,0,4,1,4.2,2.7h-2.4c-0.1-0.5-0.6-1-1.7-1
			c-0.9,0-1.3,0.3-1.3,0.6c0,0.1,0.1,0.3,0.1,0.3c0.6,0.7,3.4,0.4,4.7,1.7c0.5,0.5,0.7,1.2,0.7,1.8c0,0.5-0.2,2.7-4.2,2.7
			c-3.9,0-4.3-1.9-4.3-2.6H161.6z"/>
		<path class="st3" d="M169.8,557.9h2.9v1.8c0,2-0.3,4-3,4.2v-1.2c0.6-0.4,1.1-1,1.1-1.9h-1.1V557.9z"/>
		<path class="st3" d="M178.8,549.2h6.6c3.5,0,4.8,1.6,4.8,3.5c0,1.7-1,3.7-4.9,3.7H182v4.5h-3.3V549.2z M182,554.2h2.5
			c1.4,0,2.3-0.4,2.3-1.5c0-1-0.8-1.3-2.2-1.3H182V554.2z"/>
		<path class="st3" d="M195.1,554.9c0.6-1.4,1.6-2.5,3.2-2.5h0.6v2.7h-0.4c-1.5,0-2.2,0.2-2.7,0.7c-0.5,0.5-0.7,1.1-0.7,1.7v3.3
			h-2.9v-8.3h2.9V554.9z"/>
		<path class="st3" d="M205.2,552.3c3.2,0,5.1,1.9,5.1,4.4c0,2.8-2.4,4.5-5.1,4.5c-3.2,0-5-2.2-5-4.5
			C200.1,554.2,202.1,552.3,205.2,552.3z M207.2,556.7c0-1.4-0.7-2.4-2-2.4c-1.3,0-2,0.9-2,2.4c0,1.4,0.6,2.4,2,2.4
			C206.5,559.1,207.2,558,207.2,556.7z"/>
		<path class="st3" d="M216.7,560.9h-2.9v-6.2h-2.2v-2.1h2.2v-0.5c0-2.1,1.5-3.2,3.8-3.2c2.5,0,3.3,1.1,3.5,2.4h-2.7
			c0-0.2-0.1-0.5-0.2-0.7c-0.1-0.2-0.3-0.4-0.6-0.4c-0.6,0-0.9,0.6-0.9,1.4v0.9h2.6v2.1h-2.6V560.9z"/>
		<path class="st3" d="M230.5,558.5c-0.4,0.8-1.8,2.7-4.9,2.7c-4.1,0-5.2-2.7-5.2-4.4c0-2.4,2-4.5,5-4.5c3.3,0,5.1,2.4,5.2,4.9h-7.1
			c0.1,1.1,0.6,2.1,2.4,2.1c0.8,0,1.4-0.3,1.9-0.9H230.5z M227.6,555.9c-0.1-0.9-0.7-1.7-2-1.7c-1.1,0-1.9,0.7-2,1.7H227.6z"/>
		<path class="st3" d="M234.6,558.5c0.2,0.4,0.4,0.6,0.7,0.8c0.3,0.1,0.7,0.2,1.1,0.2c1,0,1.6-0.2,1.6-0.7c0-0.1-0.1-0.3-0.2-0.4
			c-0.6-0.6-3.8-0.5-5.1-1.8c-0.4-0.4-0.6-1-0.6-1.5c0-1.5,1.4-2.9,4-2.9c2.7,0,4,1,4.2,2.7h-2.4c-0.1-0.5-0.6-1-1.7-1
			c-0.9,0-1.3,0.3-1.3,0.6c0,0.1,0.1,0.3,0.1,0.3c0.6,0.7,3.4,0.4,4.7,1.7c0.5,0.5,0.7,1.2,0.7,1.8c0,0.5-0.2,2.7-4.2,2.7
			c-3.9,0-4.3-1.9-4.3-2.6H234.6z"/>
		<path class="st3" d="M244.4,558.5c0.2,0.4,0.4,0.6,0.7,0.8c0.3,0.1,0.7,0.2,1.1,0.2c1,0,1.6-0.2,1.6-0.7c0-0.1-0.1-0.3-0.2-0.4
			c-0.6-0.6-3.8-0.5-5.1-1.8c-0.4-0.4-0.6-1-0.6-1.5c0-1.5,1.4-2.9,4-2.9c2.7,0,4,1,4.2,2.7h-2.4c-0.1-0.5-0.6-1-1.7-1
			c-0.9,0-1.3,0.3-1.3,0.6c0,0.1,0.1,0.3,0.1,0.3c0.6,0.7,3.4,0.4,4.7,1.7c0.5,0.5,0.7,1.2,0.7,1.8c0,0.5-0.2,2.7-4.2,2.7
			c-3.9,0-4.3-1.9-4.3-2.6H244.4z"/>
		<path class="st3" d="M256.9,552.3c3.2,0,5.1,1.9,5.1,4.4c0,2.8-2.4,4.5-5.1,4.5c-3.2,0-5-2.2-5-4.5
			C251.8,554.2,253.8,552.3,256.9,552.3z M258.9,556.7c0-1.4-0.7-2.4-2-2.4c-1.3,0-2,0.9-2,2.4c0,1.4,0.6,2.4,2,2.4
			C258.2,559.1,258.9,558,258.9,556.7z"/>
		<path class="st3" d="M267.2,554.9c0.6-1.4,1.6-2.5,3.2-2.5h0.6v2.7h-0.4c-1.5,0-2.2,0.2-2.7,0.7c-0.5,0.5-0.7,1.1-0.7,1.7v3.3
			h-2.9v-8.3h2.9V554.9z"/>
		<path class="st3" d="M285.8,553.1c-0.4-1.2-1.5-1.8-2.8-1.8c-1.8,0-2.1,0.7-2.1,1c0,0.2,0.1,0.3,0.2,0.4c0.8,0.8,5,0.8,6.8,2.6
			c0.6,0.6,1,1.4,1,2.2c0,2-2,3.6-5.5,3.6c-2.5,0-3.8-0.5-4.7-1.5c-0.9-0.9-1.2-1.9-1.3-3h2.9c0.2,1.5,1.5,2.3,3,2.3
			c1.5,0,2.2-0.5,2.2-1c0-0.2-0.1-0.4-0.2-0.5c-1-1-4.7-0.9-6.4-2.6c-0.6-0.6-0.9-1.3-0.9-2.2c0-0.9,0.5-1.8,1-2.3
			c0.9-0.9,2-1.3,4.2-1.3c2.8,0,4.8,1.3,5.4,4.1H285.8z"/>
		<path class="st3" d="M297.5,555.5c-0.3-0.8-0.9-1.2-1.9-1.2c-1.1,0-2,0.8-2,2.6c0,1.6,0.9,2.4,2,2.4c1,0,1.7-0.4,2.1-1.4h3
			c-0.3,1-1.4,3.3-5,3.3c-3.1,0-5.1-1.8-5.1-4.5c0-2.5,2.1-4.5,5.1-4.5c3.5,0,4.8,2.1,5,3.3H297.5z"/>
		<path class="st3" d="M302.6,549.2h2.9v5c0.5-1.1,1.6-1.9,3.2-1.9c2.4,0,3.6,1.5,3.6,3.5v5.1h-2.9v-4.2c0-1.2-0.2-2.1-1.5-2.1
			c-1.5,0-2.4,1.3-2.4,3.2v3.1h-2.8V549.2z"/>
		<path class="st3" d="M319.7,552.3c3.2,0,5.1,1.9,5.1,4.4c0,2.8-2.4,4.5-5.1,4.5c-3.2,0-5-2.2-5-4.5
			C314.7,554.2,316.7,552.3,319.7,552.3z M321.7,556.7c0-1.4-0.7-2.4-2-2.4c-1.3,0-2,0.9-2,2.4c0,1.4,0.6,2.4,2,2.4
			C321,559.1,321.7,558,321.7,556.7z"/>
		<path class="st3" d="M331.7,552.3c3.2,0,5.1,1.9,5.1,4.4c0,2.8-2.4,4.5-5.1,4.5c-3.2,0-5-2.2-5-4.5
			C326.7,554.2,328.7,552.3,331.7,552.3z M333.8,556.7c0-1.4-0.7-2.4-2-2.4c-1.3,0-2,0.9-2,2.4c0,1.4,0.6,2.4,2,2.4
			C333.1,559.1,333.8,558,333.8,556.7z"/>
		<path class="st3" d="M339.2,549.2h3v11.7h-3V549.2z"/>
		<path class="st3" d="M346.9,558.5c0.2,0.4,0.4,0.6,0.7,0.8c0.3,0.1,0.7,0.2,1.1,0.2c1,0,1.6-0.2,1.6-0.7c0-0.1-0.1-0.3-0.2-0.4
			c-0.6-0.6-3.8-0.5-5.1-1.8c-0.4-0.4-0.6-1-0.6-1.5c0-1.5,1.4-2.9,4-2.9c2.7,0,4,1,4.2,2.7h-2.4c-0.1-0.5-0.6-1-1.7-1
			c-0.9,0-1.3,0.3-1.3,0.6c0,0.1,0.1,0.3,0.1,0.3c0.6,0.7,3.4,0.4,4.7,1.7c0.5,0.5,0.7,1.2,0.7,1.8c0,0.5-0.2,2.7-4.2,2.7
			c-3.9,0-4.3-1.9-4.3-2.6H346.9z"/>
		<path class="st3" d="M355.1,557.9h2.9v1.8c0,2-0.3,4-3,4.2v-1.2c0.6-0.4,1.1-1,1.1-1.9h-1.1V557.9z"/>
		<path class="st3" d="M78.4,569.6h3.2v11.7h-3.2V569.6z"/>
		<path class="st3" d="M84.7,573h2.9v1.8c0.6-1.4,1.9-2,3.4-2c2.4,0,3.5,1.7,3.5,3.3v5.2h-2.9v-4.4c0-1.3-0.6-1.9-1.5-1.9
			c-1.2,0-2.4,1-2.4,3v3.3h-2.9V573z"/>
		<path class="st3" d="M99.1,578.9c0.2,0.4,0.4,0.6,0.7,0.8c0.3,0.1,0.7,0.2,1.1,0.2c1,0,1.6-0.2,1.6-0.7c0-0.1-0.1-0.3-0.2-0.4
			c-0.6-0.6-3.8-0.5-5.1-1.8c-0.4-0.4-0.6-1-0.6-1.5c0-1.5,1.4-2.9,4-2.9c2.7,0,4,1,4.2,2.7h-2.4c-0.1-0.5-0.6-1-1.7-1
			c-0.9,0-1.3,0.3-1.3,0.6c0,0.1,0.1,0.3,0.1,0.3c0.6,0.7,3.4,0.4,4.7,1.7c0.5,0.5,0.7,1.2,0.7,1.8c0,0.5-0.2,2.7-4.2,2.7
			c-3.9,0-4.3-1.9-4.3-2.6H99.1z"/>
		<path class="st3" d="M113.5,581.2c-0.6,0.2-1.4,0.3-2.4,0.3c-1.9,0-3-0.8-3-2v-4.4h-1.9V573h2l0.5-3h2.3v3h2.5v2.1H111v3.3
			c0,0.9,0.2,1.2,1.3,1.2c0.3,0,0.8,0,1.2-0.2V581.2z"/>
		<path class="st3" d="M115.7,569.6h2.9v2.2h-2.9V569.6z M115.7,573h2.9v8.3h-2.9V573z"/>
		<path class="st3" d="M128,581.2c-0.6,0.2-1.4,0.3-2.4,0.3c-1.9,0-3-0.8-3-2v-4.4h-1.9V573h2l0.5-3h2.3v3h2.5v2.1h-2.5v3.3
			c0,0.9,0.2,1.2,1.3,1.2c0.3,0,0.8,0,1.2-0.2V581.2z"/>
		<path class="st3" d="M139.9,581.3H137v-1.7c-0.7,1.2-1.9,1.9-3.4,1.9c-2,0-3.4-1.3-3.4-3.8V573h2.9v4.4c0,1.3,0.7,1.9,1.5,1.9
			c1.2,0,2.3-1.1,2.3-2.8V573h2.9V581.3z"/>
		<path class="st3" d="M149.2,581.2c-0.6,0.2-1.4,0.3-2.4,0.3c-1.9,0-3-0.8-3-2v-4.4H142V573h2l0.5-3h2.3v3h2.5v2.1h-2.5v3.3
			c0,0.9,0.2,1.2,1.3,1.2c0.3,0,0.8,0,1.2-0.2V581.2z"/>
		<path class="st3" d="M161.2,578.9c-0.4,0.8-1.8,2.7-4.9,2.7c-4.1,0-5.2-2.7-5.2-4.4c0-2.4,2-4.5,5-4.5c3.3,0,5.1,2.4,5.2,4.9h-7.1
			c0.1,1.1,0.6,2.1,2.4,2.1c0.8,0,1.4-0.3,1.9-0.9H161.2z M158.2,576.3c-0.1-0.9-0.7-1.7-2-1.7c-1.1,0-1.9,0.7-2,1.7H158.2z"/>
		<path class="st3" d="M182.6,581.2c-0.5,0.2-1.1,0.3-1.8,0.3c-1.4,0-2.6-0.5-3.7-1.4c-1.9,1.3-3.4,1.4-4.6,1.4
			c-4,0-4.3-2.4-4.3-2.9c0-0.8,0.4-2.5,4-3.7c-0.5-0.7-0.8-1.4-0.8-2.3c0-1.2,1.1-3.1,3.4-3.1c2.5,0,3.4,1.5,3.4,2.8
			c0,1-0.7,2.3-2.3,2.8c0.6,0.7,1.2,1.2,1.8,1.8c0.7-0.6,1.3-1.7,1.6-2.4h2.1c-0.5,1.5-1.3,2.8-2.3,3.7c1,0.9,2,1.3,3.1,1.3h0.4
			V581.2z M173.1,576.3c-1.4,0.6-1.8,1.1-1.8,1.7c0,0.8,0.8,1.4,2,1.4c0.9,0,1.7-0.3,2.2-0.7L173.1,576.3z M173.7,572.3
			c0,0.5,0.5,1.2,0.9,1.5c1.3-0.4,1.6-1,1.6-1.5c0-0.7-0.6-1.2-1.3-1.2C174.2,571.1,173.7,571.6,173.7,572.3z"/>
		<path class="st3" d="M189.5,569.6h3.2v8.7h6.5v3h-9.7V569.6z"/>
		<path class="st3" d="M201.3,575.6c0-0.6,0.3-1.2,0.7-1.6c0.7-0.7,1.6-1.3,4.1-1.3c3.9,0,4.3,1.8,4.3,3.2v2.8c0,0.7,0.2,1,1,1
			c0.3,0,0.7-0.1,1.2-0.2v1.7c-1.2,0.4-1.8,0.4-2.3,0.4c-1.4,0-2.3-0.5-2.7-1.5c-1,1.1-2.7,1.5-3.9,1.5c-1.8,0-2.8-1.2-2.8-2.4
			c0-0.6,0.2-1.1,0.6-1.5c1.2-1.2,3.6-1,6.2-1.6v-0.3c0-0.8-0.6-1.4-2-1.4c-1,0-1.6,0.4-1.8,1.2H201.3z M207.5,577.1
			c-1.9,0.3-3.7,0.4-3.7,1.7c0,0.5,0.4,1,1.3,1c0.8,0,2-0.5,2.4-1.6V577.1z"/>
		<path class="st3" d="M214,569.6h2.8v4.5c0.8-0.9,2.1-1.4,3.2-1.4c2.4,0,4.4,1.8,4.4,4.4c0,2.7-2.2,4.5-4.5,4.5
			c-1.4,0-2.7-0.5-3.6-1.9c-0.1,0.6-0.3,1.4-0.3,1.7h-2V569.6z M219.4,579.8c1.3,0,1.9-1,1.9-2.7c0-1.7-0.7-2.6-2-2.6
			c-1.3,0-2.2,1-2.2,2.6C217.2,578.5,217.9,579.8,219.4,579.8z"/>
		<path class="st3" d="M231.4,572.7c3.2,0,5.1,1.9,5.1,4.4c0,2.8-2.4,4.5-5.1,4.5c-3.2,0-5-2.2-5-4.5
			C226.4,574.6,228.4,572.7,231.4,572.7z M233.4,577.1c0-1.4-0.7-2.4-2-2.4c-1.3,0-2,0.9-2,2.4c0,1.4,0.6,2.4,2,2.4
			C232.7,579.5,233.4,578.4,233.4,577.1z"/>
		<path class="st3" d="M241.7,575.3c0.6-1.4,1.6-2.5,3.2-2.5h0.6v2.7h-0.4c-1.5,0-2.2,0.2-2.7,0.7c-0.5,0.5-0.7,1.1-0.7,1.7v3.3
			h-2.9V573h2.9V575.3z"/>
		<path class="st3" d="M246.8,575.6c0-0.6,0.3-1.2,0.7-1.6c0.7-0.7,1.6-1.3,4.1-1.3c3.9,0,4.3,1.8,4.3,3.2v2.8c0,0.7,0.2,1,1,1
			c0.3,0,0.7-0.1,1.2-0.2v1.7c-1.2,0.4-1.8,0.4-2.3,0.4c-1.4,0-2.3-0.5-2.7-1.5c-1,1.1-2.7,1.5-3.9,1.5c-1.8,0-2.8-1.2-2.8-2.4
			c0-0.6,0.2-1.1,0.6-1.5c1.2-1.2,3.6-1,6.2-1.6v-0.3c0-0.8-0.6-1.4-2-1.4c-1,0-1.6,0.4-1.8,1.2H246.8z M253,577.1
			c-1.9,0.3-3.7,0.4-3.7,1.7c0,0.5,0.4,1,1.3,1c0.8,0,2-0.5,2.4-1.6V577.1z"/>
		<path class="st3" d="M265.4,581.2c-0.6,0.2-1.4,0.3-2.4,0.3c-1.9,0-3-0.8-3-2v-4.4h-1.9V573h2l0.5-3h2.3v3h2.5v2.1h-2.5v3.3
			c0,0.9,0.2,1.2,1.3,1.2c0.3,0,0.8,0,1.2-0.2V581.2z"/>
		<path class="st3" d="M272.2,572.7c3.2,0,5.1,1.9,5.1,4.4c0,2.8-2.4,4.5-5.1,4.5c-3.2,0-5-2.2-5-4.5
			C267.1,574.6,269.2,572.7,272.2,572.7z M274.2,577.1c0-1.4-0.7-2.4-2-2.4c-1.3,0-2,0.9-2,2.4c0,1.4,0.6,2.4,2,2.4
			C273.5,579.5,274.2,578.4,274.2,577.1z"/>
		<path class="st3" d="M282.5,575.3c0.6-1.4,1.6-2.5,3.2-2.5h0.6v2.7H286c-1.5,0-2.2,0.2-2.7,0.7c-0.5,0.5-0.7,1.1-0.7,1.7v3.3h-2.9
			V573h2.9V575.3z"/>
		<path class="st3" d="M287.8,569.6h2.9v2.2h-2.9V569.6z M287.8,573h2.9v8.3h-2.9V573z"/>
		<path class="st3" d="M303.4,578.9c-0.4,0.8-1.8,2.7-4.9,2.7c-4.1,0-5.2-2.7-5.2-4.4c0-2.4,2-4.5,5-4.5c3.3,0,5.1,2.4,5.2,4.9h-7.1
			c0.1,1.1,0.6,2.1,2.4,2.1c0.8,0,1.4-0.3,1.9-0.9H303.4z M300.5,576.3c-0.1-0.9-0.7-1.7-2-1.7c-1.1,0-1.9,0.7-2,1.7H300.5z"/>
		<path class="st3" d="M307.5,578.9c0.2,0.4,0.4,0.6,0.7,0.8c0.3,0.1,0.7,0.2,1.1,0.2c1,0,1.6-0.2,1.6-0.7c0-0.1-0.1-0.3-0.2-0.4
			c-0.6-0.6-3.8-0.5-5.1-1.8c-0.4-0.4-0.6-1-0.6-1.5c0-1.5,1.4-2.9,4-2.9c2.7,0,4,1,4.2,2.7h-2.4c-0.1-0.5-0.6-1-1.7-1
			c-0.9,0-1.3,0.3-1.3,0.6c0,0.1,0.1,0.3,0.1,0.3c0.6,0.7,3.4,0.4,4.7,1.7c0.5,0.5,0.7,1.2,0.7,1.8c0,0.5-0.2,2.7-4.2,2.7
			c-3.9,0-4.3-1.9-4.3-2.6H307.5z"/>
	</g>
	<g>
		<path class="st3" d="M569.3,539h3.2v6.1l5.7-6.1h3.3l-4.6,4.9l5.1,6.8h-4l-3.2-4.6l-2.3,2.5v2.1h-3.2V539z"/>
		<path class="st3" d="M592.4,550.7h-2.9V549c-0.7,1.2-1.9,1.9-3.4,1.9c-2,0-3.4-1.3-3.4-3.8v-4.7h2.9v4.4c0,1.3,0.7,1.9,1.5,1.9
			c1.2,0,2.3-1.1,2.3-2.8v-3.5h2.9V550.7z"/>
		<path class="st3" d="M595.4,542.4h2.9v1.8c0.6-1.4,1.9-2,3.4-2c2.4,0,3.5,1.7,3.5,3.3v5.2h-2.9v-4.4c0-1.3-0.6-1.9-1.5-1.9
			c-1.2,0-2.4,1-2.4,3v3.3h-2.9V542.4z"/>
		<path class="st3" d="M609.7,548.3c0.2,0.4,0.4,0.6,0.7,0.8c0.3,0.1,0.7,0.2,1.1,0.2c1,0,1.6-0.2,1.6-0.7c0-0.1-0.1-0.3-0.2-0.4
			c-0.6-0.6-3.8-0.5-5.1-1.8c-0.4-0.4-0.6-1-0.6-1.5c0-1.5,1.4-2.9,4-2.9c2.7,0,4,1,4.2,2.7H613c-0.1-0.5-0.6-1-1.7-1
			c-0.9,0-1.3,0.3-1.3,0.6c0,0.1,0.1,0.3,0.1,0.3c0.6,0.7,3.4,0.4,4.7,1.7c0.5,0.5,0.7,1.2,0.7,1.8c0,0.5-0.2,2.7-4.2,2.7
			c-3.9,0-4.3-1.9-4.3-2.6H609.7z"/>
		<path class="st3" d="M624.1,550.6c-0.6,0.2-1.4,0.3-2.4,0.3c-1.9,0-3-0.8-3-2v-4.4h-1.9v-2.1h2l0.5-3h2.3v3h2.5v2.1h-2.5v3.3
			c0,0.9,0.2,1.2,1.3,1.2c0.3,0,0.8,0,1.2-0.2V550.6z"/>
		<path class="st3" d="M626.4,539h2.9v5c0.5-1.1,1.6-1.9,3.2-1.9c2.4,0,3.6,1.5,3.6,3.5v5.1h-2.9v-4.2c0-1.2-0.2-2.1-1.5-2.1
			c-1.5,0-2.4,1.3-2.4,3.2v3.1h-2.8V539z"/>
		<path class="st3" d="M639,545c0-0.6,0.3-1.2,0.7-1.6c0.7-0.7,1.6-1.3,4.1-1.3c3.9,0,4.3,1.8,4.3,3.2v2.8c0,0.7,0.2,1,1,1
			c0.3,0,0.7-0.1,1.2-0.2v1.7c-1.2,0.4-1.8,0.4-2.3,0.4c-1.4,0-2.3-0.5-2.7-1.5c-1,1.1-2.7,1.5-3.9,1.5c-1.8,0-2.8-1.2-2.8-2.4
			c0-0.6,0.2-1.1,0.6-1.5c1.2-1.2,3.6-1,6.2-1.6v-0.3c0-0.8-0.6-1.4-2-1.4c-1,0-1.6,0.4-1.8,1.2H639z M645.3,546.5
			c-1.9,0.3-3.7,0.4-3.7,1.7c0,0.5,0.4,1,1.3,1c0.8,0,2-0.5,2.4-1.6V546.5z"/>
		<path class="st3" d="M652,539h3v11.7h-3V539z"/>
		<path class="st3" d="M548.3,566.4c-0.1,2.2-2.3,5-6.4,5c-4.9,0-6.5-3.4-6.5-6c0-4.5,3.3-6.3,6.7-6.3c3.2,0,5.4,1.4,6,4.4h-2.9
			c-0.4-1.1-1.5-1.9-3.1-1.9c-2.5,0-3.3,2-3.3,3.7c0,2.2,1.3,3.5,3.2,3.5c1.6,0,3-0.9,3.2-2.4H548.3z"/>
		<path class="st3" d="M550.5,559.4h2.9v5c0.5-1.1,1.6-1.9,3.2-1.9c2.4,0,3.6,1.5,3.6,3.5v5.1h-2.9v-4.2c0-1.2-0.2-2.1-1.5-2.1
			c-1.5,0-2.4,1.3-2.4,3.2v3.1h-2.8V559.4z"/>
		<path class="st3" d="M563.1,565.4c0-0.6,0.3-1.2,0.7-1.6c0.7-0.7,1.6-1.3,4.1-1.3c3.9,0,4.3,1.8,4.3,3.2v2.8c0,0.7,0.2,1,1,1
			c0.3,0,0.7-0.1,1.2-0.2v1.7c-1.2,0.4-1.8,0.4-2.3,0.4c-1.4,0-2.3-0.5-2.7-1.5c-1,1.1-2.7,1.5-3.9,1.5c-1.8,0-2.8-1.2-2.8-2.4
			c0-0.6,0.2-1.1,0.6-1.5c1.2-1.2,3.6-1,6.2-1.6v-0.3c0-0.8-0.6-1.4-2-1.4c-1,0-1.6,0.4-1.8,1.2H563.1z M569.3,566.9
			c-1.9,0.3-3.7,0.4-3.7,1.7c0,0.5,0.4,1,1.3,1c0.8,0,2-0.5,2.4-1.6V566.9z"/>
		<path class="st3" d="M578.9,565.1c0.6-1.4,1.6-2.5,3.2-2.5h0.6v2.7h-0.4c-1.5,0-2.2,0.2-2.7,0.7c-0.5,0.5-0.7,1.1-0.7,1.7v3.3H576
			v-8.3h2.9V565.1z"/>
		<path class="st3" d="M584.4,559.4h3v11.7h-3V559.4z"/>
		<path class="st3" d="M594.8,562.5c3.2,0,5.1,1.9,5.1,4.4c0,2.8-2.4,4.5-5.1,4.5c-3.2,0-5-2.2-5-4.5
			C589.8,564.4,591.8,562.5,594.8,562.5z M596.8,566.9c0-1.4-0.7-2.4-2-2.4c-1.3,0-2,0.9-2,2.4c0,1.4,0.6,2.4,2,2.4
			C596.1,569.3,596.8,568.2,596.8,566.9z"/>
		<path class="st3" d="M608.7,571c-0.6,0.2-1.4,0.3-2.4,0.3c-1.9,0-3-0.8-3-2v-4.4h-1.9v-2.1h2l0.5-3h2.3v3h2.5v2.1h-2.5v3.3
			c0,0.9,0.2,1.2,1.3,1.2c0.3,0,0.8,0,1.2-0.2V571z"/>
		<path class="st3" d="M617.4,571c-0.6,0.2-1.4,0.3-2.4,0.3c-1.9,0-3-0.8-3-2v-4.4h-1.9v-2.1h2l0.5-3h2.3v3h2.5v2.1h-2.5v3.3
			c0,0.9,0.2,1.2,1.3,1.2c0.3,0,0.8,0,1.2-0.2V571z"/>
		<path class="st3" d="M629.4,568.7c-0.4,0.8-1.8,2.7-4.9,2.7c-4.1,0-5.2-2.7-5.2-4.4c0-2.4,2-4.5,5-4.5c3.3,0,5.1,2.4,5.2,4.9h-7.1
			c0.1,1.1,0.6,2.1,2.4,2.1c0.8,0,1.4-0.3,1.9-0.9H629.4z M626.4,566.1c-0.1-0.9-0.7-1.7-2-1.7c-1.1,0-1.9,0.7-2,1.7H626.4z"/>
		<path class="st3" d="M631.7,562.8h2.9v1.8c0.6-1.4,1.9-2,3.4-2c2.4,0,3.5,1.7,3.5,3.3v5.2h-2.9v-4.4c0-1.3-0.6-1.9-1.5-1.9
			c-1.2,0-2.4,1-2.4,3v3.3h-2.9V562.8z"/>
		<path class="st3" d="M644.3,559.4h2.8v4.5c0.8-0.9,2.1-1.4,3.2-1.4c2.4,0,4.4,1.8,4.4,4.4c0,2.7-2.2,4.5-4.5,4.5
			c-1.4,0-2.7-0.5-3.6-1.9c-0.1,0.6-0.3,1.4-0.3,1.7h-2V559.4z M649.8,569.6c1.3,0,1.9-1,1.9-2.7c0-1.7-0.7-2.6-2-2.6
			c-1.3,0-2.2,1-2.2,2.6C647.5,568.3,648.3,569.6,649.8,569.6z"/>
		<path class="st3" d="M661.8,562.5c3.2,0,5.1,1.9,5.1,4.4c0,2.8-2.4,4.5-5.1,4.5c-3.2,0-5-2.2-5-4.5
			C656.7,564.4,658.7,562.5,661.8,562.5z M663.8,566.9c0-1.4-0.7-2.4-2-2.4c-1.3,0-2,0.9-2,2.4c0,1.4,0.6,2.4,2,2.4
			C663.1,569.3,663.8,568.2,663.8,566.9z"/>
		<path class="st3" d="M672.1,565.1c0.6-1.4,1.6-2.5,3.2-2.5h0.6v2.7h-0.4c-1.5,0-2.2,0.2-2.7,0.7c-0.5,0.5-0.7,1.1-0.7,1.7v3.3
			h-2.9v-8.3h2.9V565.1z"/>
		<path class="st3" d="M688.5,564.6c-0.5,0-1.4,0-2.1,0.4c0.1,0.2,0.1,0.4,0.1,0.6c0,2.2-2.3,3.1-4.2,3.1c-1.2,0-1.8-0.2-2.1-0.2
			c-0.3,0-1.1,0.3-1.1,0.7c0,0.4,0.4,0.6,1,0.6c1.4,0,2.9-0.1,4-0.1c2.6,0,3.3,1.2,3.3,2.2c0,2.4-2.8,2.4-5.2,2.4
			c-2.2,0-5.3,0-5.3-1.4c0-0.4,0.6-0.9,1.7-1.1c-1.2-0.4-1.6-1.3-1.6-1.8c0-0.6,0.2-1.5,1.8-2c-1-0.5-1.5-1.4-1.5-2.3
			c0-1.4,1.5-3,4.5-3c2.1,0,3.3,0.7,3.7,1.2c0.9-0.8,1.9-1.1,3.3-1.1v2H688.5z M679.2,572.7c0,0.6,1.5,0.7,2.9,0.7
			c2.2,0,3.2-0.2,3.2-0.8c0-0.6-1.1-0.6-2-0.6C680.3,572,679.2,572.2,679.2,572.7z M680.3,565.6c0,1.4,1.1,1.8,1.6,1.8
			c0.8,0,1.6-0.7,1.6-1.8c0-1.5-1-1.9-1.6-1.9C681.2,563.7,680.3,564.1,680.3,565.6z"/>
	</g>
	<rect x="401.9" y="106" class="st4" width="2" height="302"/>
	<rect x="610.9" y="410" class="st4" width="2" height="93"/>
	<rect x="193.9" y="410" class="st4" width="2" height="93"/>
	<rect x="401.9" y="143" class="st4" width="208" height="2"/>
	<rect x="193.9" y="408" class="st4" width="419" height="2"/>
	<g>
		<path class="st3" d="M660.6,280v-0.7c1.1,0,1.7-0.2,1.7-1.2V270c0-1-0.6-1.2-1.7-1.2v-0.7h9.2v2.9h-0.4c-0.6-1.5-1.1-2.2-2.5-2.2
			h-3v4.9h2.6c0.7,0,1.1-0.5,1.2-1.5h0.6v3.8h-0.6c-0.2-1-0.5-1.5-1.2-1.5H664v3.6c0,1,0.8,1.2,2.2,1.2v0.7H660.6z"/>
		<path class="st3" d="M673.7,273.5c1.1-2,1.5-2.7,2.6-2.7c0.3,0,0.5,0.1,0.6,0.2v1.5h-0.4c-1.1,0-1.7,0.2-2.8,1.5v4.3
			c0,0.9,0.4,0.9,1.6,1v0.6h-4.5v-0.6c0.7-0.1,1.3-0.2,1.3-1v-5.8l-1.2-0.6v-0.4l2.3-0.9h0.4V273.5z"/>
		<path class="st3" d="M677.8,275.7c0-2.9,1.9-4.8,4.2-4.8c2.5,0,4.1,1.9,4.1,4.5c0,2.9-1.9,4.8-4.2,4.8
			C679.4,280.2,677.8,278.3,677.8,275.7z M684.5,275.6c0-2.1-1-3.9-2.7-3.9c-1.6,0-2.4,1.5-2.4,3.7c0,2.1,1,3.9,2.7,3.9
			C683.7,279.3,684.5,277.8,684.5,275.6z"/>
		<path class="st3" d="M694.5,273.7c0-1.2-0.5-1.6-1.6-1.6c-0.9,0-1.9,0.4-2.5,0.9v5.5c0,0.8,0.5,0.9,1.3,1v0.6h-4.2v-0.6
			c0.7-0.1,1.3-0.2,1.3-1v-5.8l-1.2-0.6v-0.4l2.4-0.9h0.4v1.7c0.8-0.8,1.9-1.7,3.3-1.7c1.5,0,2.4,0.8,2.4,2.8v4.8
			c0,0.8,0.6,0.9,1.3,1v0.6h-4.2v-0.6c0.7-0.1,1.3-0.2,1.3-1V273.7z"/>
		<path class="st3" d="M700.8,271h2.6v0.9h-2.6v5.9c0,0.9,0.4,1.3,1.3,1.3c0.5,0,1.1-0.2,1.5-0.4l0.2,0.4c-0.6,0.6-1.5,1.1-2.6,1.1
			c-1.2,0-2-0.6-2-2v-6.3H698v-0.5c0.9-0.5,1.6-1.2,2.4-2.3h0.4V271z"/>
		<path class="st3" d="M719.9,273.8c0,3.9-2.6,6.4-5.7,6.4c-3.5,0-5.6-2.7-5.6-5.9c0-3.9,2.6-6.4,5.7-6.4
			C717.8,267.9,719.9,270.6,719.9,273.8z M718.1,274.1c0-2.6-1.2-5.3-4-5.3c-2.4,0-3.6,2.2-3.6,5.2c0,2.6,1.2,5.3,4,5.3
			C716.8,279.2,718.1,277,718.1,274.1z"/>
		<path class="st3" d="M729,268.2c0.6-0.8,1.6-1.3,2.9-1.3c1.4,0,2.4,0.4,2.4,1.3c0,0.4-0.3,0.8-0.6,1h-1v-0.4
			c0-0.9-0.4-1.2-1.2-1.2c-1,0-1.8,0.8-1.8,2.6v0.8h4.7l0.5-0.2h0.4v7.6c0,0.8,0.5,0.9,1.3,1v0.6h-4.2v-0.6c0.7-0.1,1.3-0.2,1.3-1
			v-6.5h-4v6.5c0,0.8,0.5,0.9,1.3,1v0.6h-4.2v-0.6c0.7-0.1,1.3-0.2,1.3-1v-6.5h-4v6.5c0,0.8,0.5,0.9,1.3,1v0.6h-4.2v-0.6
			c0.7-0.1,1.3-0.2,1.3-1v-6.5h-1.3v-0.6l1.3-0.4v-0.2c0-2.1,1.6-3.5,3.6-3.5C727.5,267.2,728.5,267.7,729,268.2z M724.2,271h4v-0.4
			c0-0.4,0.1-0.8,0.2-1.2c-0.4-0.9-1.2-1.6-2.2-1.6c-1.2,0-2,0.8-2,2.4V271z"/>
		<path class="st3" d="M742.3,278.9c1.2,0,1.9-0.5,2.6-1.4l0.3,0.2c-0.5,1.7-1.7,2.6-3.5,2.6c-2.3,0-3.9-1.8-3.9-4.4
			c0-2.7,1.7-5,4.4-5c1.8,0,2.9,0.8,2.9,2.1c0,0.6-0.3,0.9-0.7,1h-0.9v-0.6c0-1-0.5-1.7-1.5-1.7c-1.6,0-2.7,1.5-2.7,3.5
			C739.3,277.4,740.4,278.9,742.3,278.9z"/>
		<path class="st3" d="M754,274.6v0.5h-6.1c0,2.2,1.2,3.7,3.1,3.7c1.3,0,2.1-0.6,2.7-1.5l0.3,0.2c-0.4,1.5-1.7,2.6-3.6,2.6
			c-2.5,0-3.9-2-3.9-4.4c0-3,1.7-5,4.1-5C752.8,270.8,754,272.4,754,274.6z M748,274.3h4.5c0-1.6-0.7-2.7-2.1-2.7
			C749,271.7,748.1,272.9,748,274.3z"/>
		<path class="st3" d="M678.5,299.3h-6.3v3.8c0,1,0.6,1.2,1.7,1.2v0.7h-5.1v-0.7c1.1,0,1.7-0.2,1.7-1.2V295c0-1-0.6-1.2-1.7-1.2
			v-0.7h5.1v0.7c-1.1,0-1.7,0.2-1.7,1.2v3.5h6.3V295c0-1-0.6-1.2-1.7-1.2v-0.7h5.1v0.7c-1.1,0-1.7,0.2-1.7,1.2v8.1
			c0,1,0.6,1.2,1.7,1.2v0.7h-5.1v-0.7c1.1,0,1.7-0.2,1.7-1.2V299.3z"/>
		<path class="st3" d="M688,293.1c3,0,4.4,1.4,4.4,3.3c0,1.9-1.7,3-3.3,3.2l2.9,3.6c0.5,0.7,1.3,1.2,2.2,1.2v0.7h-2.4
			c-0.6-0.4-1-0.8-1.5-1.5l-2.9-3.7h-0.9v3.3c0,1,0.6,1.2,1.7,1.2v0.7H683v-0.7c1.1,0,1.7-0.2,1.7-1.2V295c0-1-0.6-1.2-1.7-1.2v-0.7
			H688z M686.3,293.8v5.2h1.2c2,0,3-0.9,3-2.6c0-1.4-0.9-2.6-3.1-2.6H686.3z"/>
		<path class="st3" d="M701.4,298.5c-0.5-0.6-1.1-1.5-1.1-2.7c0-1.6,1.2-2.9,3-2.9c1.9,0,3,1,3,2.5c0,1.4-1.2,2.4-2.9,3.1l3.2,3.7
			c0.3-0.6,0.4-1.3,0.4-2c0-0.8-0.2-1.2-0.9-1.2v-0.7h3.4v0.7c-1.3,0-1.5,0.2-1.7,1.2c-0.2,0.9-0.4,1.8-0.8,2.5l0.7,0.8
			c0.5,0.6,1.1,0.9,1.8,0.9v0.6h-2.1c-0.5-0.2-0.8-0.6-1.4-1.1c-0.8,0.8-2,1.3-3.4,1.3c-2,0-4-1-4-3.3
			C698.7,300.1,699.8,299.1,701.4,298.5z M705.6,303.3l-3.8-4.4c-1,0.4-1.5,1.4-1.5,2.7c0,1.6,1.2,2.7,2.7,2.7
			C704.1,304.3,704.9,303.9,705.6,303.3z M702.8,297.9L702.8,297.9c1.4-0.5,2.1-1.2,2.1-2.5c0-1.1-0.6-1.8-1.7-1.8
			c-1,0-1.6,0.6-1.6,1.7C701.6,296.3,702.2,297.1,702.8,297.9z"/>
		<path class="st3" d="M717.7,303.1c0,0.9,0.5,1.2,1.7,1.2h1c1.5,0,1.9-0.8,2.8-2.5h0.5l-0.5,3.3h-8.9v-0.7c1.1,0,1.7-0.2,1.7-1.2
			V295c0-1-0.6-1.2-1.7-1.2v-0.7h5.1v0.7c-1.1,0-1.7,0.2-1.7,1.2V303.1z"/>
		<path class="st3" d="M731.7,302.9c0,0.7,0.3,1.2,0.8,1.2c0.2,0,0.5,0,0.8-0.1l0.1,0.4c-0.6,0.6-1.1,0.8-1.7,0.8
			c-0.9,0-1.3-0.6-1.4-1.5c-0.6,0.7-1.6,1.5-2.8,1.5c-1.5,0-2.3-1.1-2.3-2.3c0-1.6,1.3-2.1,2.4-2.5l2.7-1v-0.8c0-1-0.4-1.9-1.7-1.9
			c-0.9,0-1.4,0.4-1.4,1.3c0,0.3,0,0.5,0.1,0.9l-1.3,0.2c-0.2-0.2-0.4-0.5-0.4-0.9c0-1.4,1.4-2.2,3.2-2.2c2,0,2.9,1,2.9,2.9
			C731.8,299.2,731.7,302.2,731.7,302.9z M730.2,303.2v-3l-2.4,0.9c-0.6,0.2-1,0.7-1,1.4c0,1,0.5,1.5,1.4,1.5
			C728.9,304,729.5,303.7,730.2,303.2z"/>
		<path class="st3" d="M744.3,297.7c0.1-0.2,0.1-0.3,0.1-0.5c0-0.4-0.3-0.5-1.2-0.6V296h3.2v0.6c-0.8,0.3-0.8,0.3-1,0.7l-3,7.9h-0.4
			l-2.2-6l-2.3,6h-0.4l-3-7.9c-0.1-0.4-0.2-0.4-1-0.7V296h3.8v0.6c-0.9,0.1-1.2,0.2-1.2,0.6c0,0.1,0.1,0.3,0.1,0.5l1.8,4.9l1.7-4.6
			l-0.3-0.8c-0.1-0.4-0.2-0.4-1-0.7V296h3.8v0.6c-0.9,0.1-1.2,0.2-1.2,0.6c0,0.1,0.1,0.3,0.1,0.5l1.7,5L744.3,297.7z"/>
		<path class="st3" d="M677.5,325.8c-0.2-1-0.5-1.5-1.2-1.5h-2.9v3.8c0,0.9,0.5,1.2,1.7,1.2h1.7c1.5,0,1.8-0.5,2.9-2.3h0.5l-0.5,3.1
			H670v-0.7c1.1,0,1.7-0.2,1.7-1.2V320c0-1-0.6-1.2-1.7-1.2v-0.7h9.5v2.8h-0.5c-0.6-1.5-1.1-2.1-2.5-2.1h-3.2v4.7h2.9
			c0.7,0,1.1-0.5,1.2-1.5h0.6v3.8H677.5z"/>
		<path class="st3" d="M686,328.9c1.2,0,1.9-0.5,2.6-1.4l0.3,0.2c-0.5,1.7-1.7,2.6-3.5,2.6c-2.3,0-3.9-1.8-3.9-4.4
			c0-2.7,1.7-5,4.4-5c1.8,0,2.9,0.8,2.9,2.1c0,0.6-0.3,0.8-0.7,1h-0.9v-0.6c0-1-0.5-1.7-1.5-1.7c-1.6,0-2.7,1.5-2.7,3.5
			C683,327.4,684.1,328.9,686,328.9z"/>
		<path class="st3" d="M690.2,325.7c0-2.9,1.9-4.8,4.2-4.8c2.5,0,4.1,1.9,4.1,4.5c0,2.9-1.9,4.8-4.2,4.8
			C691.8,330.2,690.2,328.3,690.2,325.7z M696.9,325.6c0-2.1-1-3.9-2.7-3.9c-1.6,0-2.4,1.5-2.4,3.7c0,2.1,1,3.9,2.7,3.9
			C696.1,329.3,696.9,327.8,696.9,325.6z"/>
		<path class="st3" d="M706.9,323.7c0-1.2-0.5-1.6-1.6-1.6c-0.9,0-1.9,0.4-2.5,0.9v5.5c0,0.8,0.5,0.9,1.3,1v0.6h-4.2v-0.6
			c0.7-0.1,1.3-0.2,1.3-1v-5.8L700,322v-0.4l2.4-0.9h0.4v1.7c0.8-0.8,1.9-1.7,3.3-1.7c1.5,0,2.4,0.8,2.4,2.8v4.8
			c0,0.8,0.6,0.9,1.3,1v0.6h-4.2v-0.6c0.7-0.1,1.3-0.2,1.3-1V323.7z"/>
		<path class="st3" d="M710.9,325.7c0-2.9,1.9-4.8,4.2-4.8c2.5,0,4.1,1.9,4.1,4.5c0,2.9-1.9,4.8-4.2,4.8
			C712.5,330.2,710.9,328.3,710.9,325.7z M717.6,325.6c0-2.1-1-3.9-2.7-3.9c-1.6,0-2.4,1.5-2.4,3.7c0,2.1,1,3.9,2.7,3.9
			C716.8,329.3,717.6,327.8,717.6,325.6z"/>
		<path class="st3" d="M731.4,330v-0.6c0.8-0.1,1.3-0.2,1.3-1v-4.7c0-1.2-0.4-1.6-1.5-1.6c-0.9,0-1.7,0.4-2.4,0.9v5.5
			c0,0.8,0.6,0.9,1.3,1v0.6H726v-0.6c0.8-0.1,1.3-0.2,1.3-1v-4.7c0-1.2-0.4-1.6-1.5-1.6c-0.9,0-1.8,0.4-2.4,0.9v5.5
			c0,0.8,0.5,0.9,1.3,1v0.6h-4.2v-0.6c0.7-0.1,1.3-0.2,1.3-1v-5.8l-1.2-0.6v-0.4l2.4-0.9h0.4v1.7c0.8-0.8,1.8-1.7,3.2-1.7
			c1.2,0,1.9,0.5,2.2,1.7c0.8-0.8,1.9-1.7,3.2-1.7c1.5,0,2.3,0.9,2.3,2.8v4.8c0,0.8,0.6,0.9,1.3,1v0.6H731.4z"/>
		<path class="st3" d="M736.8,322.3c-0.2-0.4-0.2-0.4-1-0.7V321h4v0.6c-0.9,0.1-1.2,0.2-1.2,0.6c0,0.1,0,0.2,0.1,0.5l2.2,5.5
			l2.1-5.5c0.1-0.2,0.1-0.3,0.1-0.5c0-0.4-0.4-0.5-1.2-0.6V321h3.3v0.6c-0.8,0.3-0.9,0.3-1,0.7l-3.8,9.5c-0.4,1.1-1,1.8-2,1.8
			c-0.6,0-1-0.3-1.3-0.6v-0.8h0.9c1.1,0,1.5-0.2,1.8-1.2l0.3-0.9L736.8,322.3z"/>
		<path class="st3" d="M652,351.3h0.6l-0.4,2.9c-1.1,0.6-2.2,0.9-4,0.9c-3.4,0-5.6-2.5-5.6-5.9c0-4,2.6-6.4,5.9-6.4
			c1.8,0,2.9,0.5,3.7,1.1v2.6h-0.6c-0.5-2-1.6-2.8-3.2-2.8c-2.7,0-3.9,2.3-3.9,5c0,3.1,1.4,5.5,4.1,5.5
			C650.4,354.3,651.4,353.3,652,351.3z"/>
		<path class="st3" d="M654.3,350.7c0-2.9,1.9-4.8,4.2-4.8c2.5,0,4.1,1.9,4.1,4.5c0,2.9-1.9,4.8-4.2,4.8
			C655.9,355.2,654.3,353.3,654.3,350.7z M661,350.6c0-2.1-1-3.9-2.7-3.9c-1.6,0-2.4,1.5-2.4,3.7c0,2.1,1,3.9,2.7,3.9
			C660.2,354.3,661,352.8,661,350.6z"/>
		<path class="st3" d="M674.8,355v-0.6c0.8-0.1,1.3-0.2,1.3-1v-4.7c0-1.2-0.4-1.6-1.5-1.6c-0.9,0-1.7,0.4-2.4,0.9v5.5
			c0,0.8,0.6,0.9,1.3,1v0.6h-4.2v-0.6c0.8-0.1,1.3-0.2,1.3-1v-4.7c0-1.2-0.4-1.6-1.5-1.6c-0.9,0-1.8,0.4-2.4,0.9v5.5
			c0,0.8,0.5,0.9,1.3,1v0.6H664v-0.6c0.7-0.1,1.3-0.2,1.3-1v-5.8l-1.2-0.6v-0.4l2.4-0.9h0.4v1.7c0.8-0.8,1.8-1.7,3.2-1.7
			c1.2,0,1.9,0.5,2.2,1.7c0.8-0.8,1.9-1.7,3.2-1.7c1.5,0,2.3,0.9,2.3,2.8v4.8c0,0.8,0.6,0.9,1.3,1v0.6H674.8z"/>
		<path class="st3" d="M690.9,355v-0.6c0.8-0.1,1.3-0.2,1.3-1v-4.7c0-1.2-0.4-1.6-1.5-1.6c-0.9,0-1.7,0.4-2.4,0.9v5.5
			c0,0.8,0.6,0.9,1.3,1v0.6h-4.2v-0.6c0.8-0.1,1.3-0.2,1.3-1v-4.7c0-1.2-0.4-1.6-1.5-1.6c-0.9,0-1.8,0.4-2.4,0.9v5.5
			c0,0.8,0.5,0.9,1.3,1v0.6h-4.2v-0.6c0.7-0.1,1.3-0.2,1.3-1v-5.8l-1.2-0.6v-0.4l2.4-0.9h0.4v1.7c0.8-0.8,1.8-1.7,3.2-1.7
			c1.2,0,1.9,0.5,2.2,1.7c0.8-0.8,1.9-1.7,3.2-1.7c1.5,0,2.3,0.9,2.3,2.8v4.8c0,0.8,0.6,0.9,1.3,1v0.6H690.9z"/>
		<path class="st3" d="M702.8,353.5c-0.8,0.8-1.8,1.7-3.2,1.7c-1.5,0-2.4-0.8-2.4-2.8v-4.7c0-0.6-0.2-0.8-1-0.9l-0.3,0v-0.6l2.6-0.4
			h0.3v6.3c0,1.2,0.5,1.8,1.6,1.8c0.9,0,1.8-0.4,2.4-0.9v-5.3c0-0.6-0.2-0.8-1-0.9l-0.3,0v-0.6l2.6-0.4h0.3v7.3c0,0.6,0.2,0.7,1,0.8
			l0.4,0.1v0.6l-2.7,0.6h-0.2V353.5z"/>
		<path class="st3" d="M713.9,348.7c0-1.2-0.5-1.6-1.6-1.6c-0.9,0-1.9,0.4-2.5,0.9v5.5c0,0.8,0.5,0.9,1.3,1v0.6h-4.2v-0.6
			c0.7-0.1,1.3-0.2,1.3-1v-5.8L707,347v-0.4l2.4-0.9h0.4v1.7c0.8-0.8,1.9-1.7,3.3-1.7c1.5,0,2.4,0.8,2.4,2.8v4.8
			c0,0.8,0.6,0.9,1.3,1v0.6h-4.2v-0.6c0.7-0.1,1.3-0.2,1.3-1V348.7z"/>
		<path class="st3" d="M720.7,353.4c0,0.8,0.5,0.9,1.3,1v0.6h-4.2v-0.6c0.7-0.1,1.3-0.2,1.3-1v-5.8l-1.2-0.6v-0.4l2.4-0.9h0.4V353.4
			z M718.8,343.5c0-0.6,0.5-1.1,1.1-1.1c0.6,0,1.1,0.5,1.1,1.1s-0.5,1.1-1.1,1.1C719.3,344.6,718.8,344.1,718.8,343.5z"/>
		<path class="st3" d="M727.8,353.9c1.2,0,1.9-0.5,2.6-1.4l0.3,0.2c-0.5,1.7-1.7,2.6-3.5,2.6c-2.3,0-3.9-1.8-3.9-4.4
			c0-2.7,1.7-5,4.4-5c1.8,0,2.9,0.8,2.9,2.1c0,0.6-0.3,0.8-0.7,1H729v-0.6c0-1-0.5-1.7-1.5-1.7c-1.6,0-2.7,1.5-2.7,3.5
			C724.7,352.4,725.8,353.9,727.8,353.9z"/>
		<path class="st3" d="M738.6,352.9c0,0.7,0.3,1.2,0.8,1.2c0.2,0,0.5,0,0.8-0.1l0.1,0.4c-0.6,0.6-1.1,0.8-1.7,0.8
			c-0.9,0-1.3-0.6-1.4-1.5c-0.6,0.7-1.6,1.5-2.8,1.5c-1.5,0-2.3-1.1-2.3-2.3c0-1.6,1.3-2.1,2.4-2.5l2.7-1v-0.8c0-1-0.4-1.9-1.7-1.9
			c-0.9,0-1.4,0.4-1.4,1.3c0,0.3,0,0.5,0.1,0.9l-1.3,0.2c-0.2-0.2-0.4-0.5-0.4-0.9c0-1.4,1.4-2.2,3.2-2.2c2,0,2.9,1,2.9,2.9
			C738.6,349.2,738.6,352.2,738.6,352.9z M737,353.2v-3l-2.4,0.9c-0.6,0.2-1,0.7-1,1.4c0,1,0.5,1.5,1.4,1.5
			C735.8,354,736.3,353.7,737,353.2z"/>
		<path class="st3" d="M743.4,346h2.6v0.9h-2.6v6c0,0.9,0.4,1.3,1.3,1.3c0.5,0,1.1-0.2,1.5-0.4l0.2,0.4c-0.6,0.6-1.5,1.1-2.6,1.1
			c-1.2,0-2-0.6-2-2v-6.3h-1.3v-0.5c0.9-0.5,1.6-1.2,2.4-2.3h0.4V346z"/>
		<path class="st3" d="M750.2,353.4c0,0.8,0.5,0.9,1.3,1v0.6h-4.2v-0.6c0.7-0.1,1.3-0.2,1.3-1v-5.8l-1.2-0.6v-0.4l2.4-0.9h0.4V353.4
			z M748.2,343.5c0-0.6,0.5-1.1,1.1-1.1c0.6,0,1.1,0.5,1.1,1.1s-0.5,1.1-1.1,1.1C748.7,344.6,748.2,344.1,748.2,343.5z"/>
		<path class="st3" d="M752.8,350.7c0-2.9,1.9-4.8,4.2-4.8c2.5,0,4.1,1.9,4.1,4.5c0,2.9-1.9,4.8-4.2,4.8
			C754.4,355.2,752.8,353.3,752.8,350.7z M759.5,350.6c0-2.1-1-3.9-2.7-3.9c-1.6,0-2.4,1.5-2.4,3.7c0,2.1,1,3.9,2.7,3.9
			C758.7,354.3,759.5,352.8,759.5,350.6z"/>
		<path class="st3" d="M769.4,348.7c0-1.2-0.5-1.6-1.6-1.6c-0.9,0-1.9,0.4-2.5,0.9v5.5c0,0.8,0.5,0.9,1.3,1v0.6h-4.2v-0.6
			c0.7-0.1,1.3-0.2,1.3-1v-5.8l-1.2-0.6v-0.4l2.4-0.9h0.4v1.7c0.8-0.8,1.9-1.7,3.3-1.7c1.5,0,2.4,0.8,2.4,2.8v4.8
			c0,0.8,0.6,0.9,1.3,1v0.6h-4.2v-0.6c0.7-0.1,1.3-0.2,1.3-1V348.7z"/>
		<path class="st3" d="M621.4,379l-0.1-2.8h0.6c0.5,1.8,1.5,3.1,3.3,3.1c1.6,0,2.6-0.8,2.6-2.2c0-1.2-0.8-1.7-2.8-2.5
			c-2.3-0.8-3.5-1.6-3.5-3.6c0-1.8,1.3-3.2,3.7-3.2c1.4,0,2.6,0.5,3.5,1.1v2.6h-0.6c-0.4-1.6-1.4-2.8-3.1-2.8
			c-1.4,0-2.2,0.8-2.2,1.9c0,1.2,0.6,1.7,2.7,2.5c2.5,0.9,3.7,1.8,3.7,3.7c0,2.2-1.9,3.4-4.2,3.4C623.5,380.2,622.1,379.6,621.4,379
			z"/>
		<path class="st3" d="M633.1,371h2.6v0.9h-2.6v6c0,0.9,0.4,1.3,1.3,1.3c0.5,0,1.1-0.2,1.5-0.4l0.2,0.4c-0.6,0.6-1.5,1.1-2.6,1.1
			c-1.2,0-2-0.6-2-2v-6.3h-1.3v-0.5c0.9-0.5,1.6-1.2,2.4-2.3h0.4V371z"/>
		<path class="st3" d="M643.5,378.5c-0.8,0.8-1.8,1.7-3.2,1.7c-1.5,0-2.4-0.8-2.4-2.8v-4.7c0-0.6-0.2-0.8-1-0.9l-0.3,0v-0.6l2.6-0.4
			h0.3v6.3c0,1.2,0.5,1.8,1.6,1.8c0.9,0,1.8-0.4,2.4-0.9v-5.3c0-0.6-0.2-0.8-1-0.9l-0.3,0v-0.6l2.6-0.4h0.3v7.3c0,0.6,0.2,0.7,1,0.8
			l0.4,0.1v0.6l-2.7,0.6h-0.2V378.5z"/>
		<path class="st3" d="M654.1,378.7c-0.7,0.9-1.5,1.5-2.8,1.5c-2.3,0-3.6-1.9-3.6-4.2c0-3.1,1.9-5.1,4.3-5.1c0.9,0,1.7,0.4,2.1,0.9
			v-2.9l-1.2-0.6v-0.4l2.4-0.8h0.4v11.1c0,0.6,0.2,0.7,1,0.8l0.4,0.1v0.6l-2.7,0.6h-0.3V378.7z M649.2,375.3c0,1.9,0.8,3.7,2.7,3.7
			c0.9,0,1.7-0.3,2.2-0.9V374c0-1.6-0.9-2.4-2.2-2.4C650.3,371.6,649.2,373.1,649.2,375.3z"/>
		<path class="st3" d="M658.5,372.3c-0.2-0.4-0.2-0.4-1-0.7V371h4v0.6c-0.9,0.1-1.2,0.2-1.2,0.6c0,0.1,0,0.2,0.1,0.5l2.2,5.5
			l2.1-5.5c0.1-0.2,0.1-0.3,0.1-0.5c0-0.4-0.4-0.5-1.2-0.6V371h3.3v0.6c-0.8,0.3-0.9,0.3-1,0.7l-3.8,9.5c-0.4,1.1-1,1.8-2,1.8
			c-0.6,0-1-0.3-1.3-0.6v-0.8h0.9c1.1,0,1.5-0.2,1.8-1.2l0.3-0.9L658.5,372.3z"/>
		<path class="st3" d="M679,376.1h-5l-0.7,1.9c-0.1,0.3-0.2,0.5-0.2,0.7c0,0.5,0.4,0.7,1.6,0.7v0.7h-3.8v-0.7c0.5-0.1,0.8-0.2,1-0.6
			l4-9.7l-0.5-1.1h1.9l4.7,10.8c0.2,0.5,0.5,0.6,1,0.6v0.7h-4.6v-0.7c1.2,0,1.6-0.2,1.6-0.7c0-0.2-0.1-0.4-0.2-0.7L679,376.1z
			 M674.3,375.3h4.4l-2.2-5.3L674.3,375.3z"/>
		<path class="st3" d="M690.2,378.7c-0.7,0.9-1.5,1.5-2.8,1.5c-2.3,0-3.6-1.9-3.6-4.2c0-3.1,1.9-5.1,4.3-5.1c0.9,0,1.7,0.4,2.1,0.9
			v-2.9l-1.2-0.6v-0.4l2.4-0.8h0.4v11.1c0,0.6,0.2,0.7,1,0.8l0.4,0.1v0.6l-2.7,0.6h-0.3V378.7z M685.3,375.3c0,1.9,0.8,3.7,2.7,3.7
			c0.8,0,1.7-0.3,2.2-0.9V374c0-1.6-0.9-2.4-2.2-2.4C686.4,371.6,685.3,373.1,685.3,375.3z"/>
		<path class="st3" d="M705.1,380v-0.6c0.8-0.1,1.3-0.2,1.3-1v-4.7c0-1.2-0.4-1.6-1.5-1.6c-0.9,0-1.7,0.4-2.4,0.9v5.5
			c0,0.8,0.6,0.9,1.3,1v0.6h-4.2v-0.6c0.8-0.1,1.3-0.2,1.3-1v-4.7c0-1.2-0.4-1.6-1.5-1.6c-0.9,0-1.8,0.4-2.4,0.9v5.5
			c0,0.8,0.5,0.9,1.3,1v0.6h-4.2v-0.6c0.7-0.1,1.3-0.2,1.3-1v-5.8l-1.2-0.6v-0.4l2.4-0.9h0.4v1.7c0.8-0.8,1.8-1.7,3.2-1.7
			c1.2,0,1.9,0.5,2.2,1.7c0.8-0.8,1.9-1.7,3.2-1.7c1.5,0,2.3,0.9,2.3,2.8v4.8c0,0.8,0.6,0.9,1.3,1v0.6H705.1z"/>
		<path class="st3" d="M713.3,378.4c0,0.8,0.5,0.9,1.3,1v0.6h-4.2v-0.6c0.7-0.1,1.3-0.2,1.3-1v-5.8l-1.2-0.6v-0.4l2.4-0.9h0.4V378.4
			z M711.3,368.5c0-0.6,0.5-1.1,1.1-1.1s1.1,0.5,1.1,1.1s-0.5,1.1-1.1,1.1S711.3,369.1,711.3,368.5z"/>
		<path class="st3" d="M722.8,373.7c0-1.2-0.5-1.6-1.6-1.6c-0.9,0-1.9,0.4-2.5,0.9v5.5c0,0.8,0.5,0.9,1.3,1v0.6h-4.2v-0.6
			c0.7-0.1,1.3-0.2,1.3-1v-5.8L716,372v-0.4l2.4-0.9h0.4v1.7c0.8-0.8,1.9-1.7,3.3-1.7c1.5,0,2.4,0.8,2.4,2.8v4.8
			c0,0.8,0.6,0.9,1.3,1v0.6h-4.2v-0.6c0.7-0.1,1.3-0.2,1.3-1V373.7z"/>
		<path class="st3" d="M729.7,378.4c0,0.8,0.5,0.9,1.3,1v0.6h-4.2v-0.6c0.7-0.1,1.3-0.2,1.3-1v-5.8l-1.2-0.6v-0.4l2.4-0.9h0.4V378.4
			z M727.7,368.5c0-0.6,0.5-1.1,1.1-1.1c0.6,0,1.1,0.5,1.1,1.1s-0.5,1.1-1.1,1.1C728.2,369.6,727.7,369.1,727.7,368.5z"/>
		<path class="st3" d="M732.4,379.3l-0.1-2.3h0.6c0.3,1.4,1.2,2.3,2.6,2.3c1.1,0,1.7-0.5,1.7-1.4c0-1.1-0.8-1.5-2.3-2
			c-1.5-0.5-2.5-1.1-2.5-2.7c0-1.5,1.1-2.6,2.9-2.6c1.1,0,2.1,0.3,2.8,0.7v2.1h-0.6c-0.2-1.4-1-2-2.2-2c-0.9,0-1.5,0.6-1.5,1.3
			c0,0.9,0.7,1.4,2,1.8c1.7,0.5,2.8,1,2.8,2.8c0,1.5-1.2,2.6-3.2,2.6C734.3,380.2,733.2,380,732.4,379.3z"/>
		<path class="st3" d="M742.4,371h2.6v0.9h-2.6v6c0,0.9,0.4,1.3,1.3,1.3c0.5,0,1.1-0.2,1.5-0.4l0.2,0.4c-0.6,0.6-1.5,1.1-2.6,1.1
			c-1.2,0-2-0.6-2-2v-6.3h-1.3v-0.5c0.9-0.5,1.6-1.2,2.4-2.3h0.4V371z"/>
		<path class="st3" d="M749.2,373.5c1.1-2,1.5-2.7,2.6-2.7c0.3,0,0.5,0.1,0.6,0.2v1.5H752c-1.1,0-1.7,0.2-2.8,1.5v4.3
			c0,0.9,0.4,0.9,1.6,1v0.6h-4.5v-0.6c0.7-0.1,1.3-0.2,1.3-1v-5.8l-1.2-0.6v-0.4l2.3-0.9h0.4V373.5z"/>
		<path class="st3" d="M760,377.9c0,0.7,0.3,1.2,0.8,1.2c0.2,0,0.5,0,0.8-0.1l0.1,0.4c-0.6,0.6-1.1,0.8-1.7,0.8
			c-0.9,0-1.3-0.6-1.4-1.5c-0.6,0.7-1.6,1.5-2.8,1.5c-1.5,0-2.3-1.1-2.3-2.3c0-1.6,1.3-2.1,2.4-2.5l2.7-1v-0.8c0-1-0.4-1.9-1.7-1.9
			c-0.9,0-1.4,0.4-1.4,1.3c0,0.3,0,0.5,0.1,0.9l-1.3,0.2c-0.2-0.2-0.4-0.5-0.4-0.9c0-1.4,1.4-2.2,3.2-2.2c2,0,2.9,1,2.9,2.9
			C760,374.2,760,377.2,760,377.9z M758.5,378.2v-3l-2.4,0.9c-0.6,0.2-1,0.7-1,1.4c0,1,0.5,1.5,1.4,1.5
			C757.2,379,757.7,378.7,758.5,378.2z"/>
		<path class="st3" d="M764.8,371h2.6v0.9h-2.6v6c0,0.9,0.4,1.3,1.3,1.3c0.5,0,1.1-0.2,1.5-0.4l0.2,0.4c-0.6,0.6-1.5,1.1-2.6,1.1
			c-1.2,0-2-0.6-2-2v-6.3H762v-0.5c0.9-0.5,1.6-1.2,2.4-2.3h0.4V371z"/>
		<path class="st3" d="M771.6,378.4c0,0.8,0.5,0.9,1.3,1v0.6h-4.2v-0.6c0.7-0.1,1.3-0.2,1.3-1v-5.8l-1.2-0.6v-0.4l2.4-0.9h0.4V378.4
			z M769.6,368.5c0-0.6,0.5-1.1,1.1-1.1s1.1,0.5,1.1,1.1s-0.5,1.1-1.1,1.1S769.6,369.1,769.6,368.5z"/>
		<path class="st3" d="M774.2,375.7c0-2.9,1.9-4.8,4.2-4.8c2.5,0,4.1,1.9,4.1,4.5c0,2.9-1.9,4.8-4.2,4.8
			C775.8,380.2,774.2,378.3,774.2,375.7z M780.9,375.6c0-2.1-1-3.9-2.7-3.9c-1.6,0-2.4,1.5-2.4,3.7c0,2.1,1,3.9,2.7,3.9
			C780.1,379.3,780.9,377.8,780.9,375.6z"/>
		<path class="st3" d="M790.8,373.7c0-1.2-0.5-1.6-1.6-1.6c-0.9,0-1.9,0.4-2.5,0.9v5.5c0,0.8,0.5,0.9,1.3,1v0.6h-4.2v-0.6
			c0.7-0.1,1.3-0.2,1.3-1v-5.8L784,372v-0.4l2.4-0.9h0.4v1.7c0.8-0.8,1.9-1.7,3.3-1.7c1.5,0,2.4,0.8,2.4,2.8v4.8
			c0,0.8,0.6,0.9,1.3,1v0.6h-4.2v-0.6c0.7-0.1,1.3-0.2,1.3-1V373.7z"/>
		<path class="st3" d="M657.1,398.8c0,3.9-2.6,6.4-5.7,6.4c-3.5,0-5.6-2.7-5.6-5.9c0-3.9,2.6-6.4,5.7-6.4
			C655.1,392.9,657.1,395.6,657.1,398.8z M655.3,399.1c0-2.6-1.2-5.3-4-5.3c-2.4,0-3.6,2.2-3.6,5.2c0,2.6,1.2,5.3,4,5.3
			C654.1,404.2,655.3,402,655.3,399.1z"/>
		<path class="st3" d="M661.2,406.8c0,0.8,0.6,0.9,1.3,1v0.6h-4.2v-0.6c0.8-0.1,1.3-0.2,1.3-1v-9.2l-1.2-0.6v-0.4l2.4-0.9h0.4v1.5
			c0.7-0.9,1.6-1.5,2.9-1.5c2.3,0,3.5,1.9,3.5,4.2c0,3.1-2,5.1-4.2,5.1c-1.1,0-1.9-0.4-2.2-0.9V406.8z M666,400.8
			c0-1.9-0.7-3.8-2.7-3.8c-0.8,0-1.7,0.3-2.2,0.8v4.2c0,1.6,0.9,2.4,2.2,2.4C664.9,404.4,666,403,666,400.8z"/>
		<path class="st3" d="M676.6,399.6v0.5h-6.1c0,2.2,1.2,3.7,3.1,3.7c1.3,0,2.1-0.6,2.7-1.5l0.3,0.2c-0.4,1.5-1.7,2.6-3.6,2.6
			c-2.5,0-3.9-2-3.9-4.4c0-3,1.7-5,4.1-5C675.5,395.8,676.6,397.4,676.6,399.6z M670.6,399.3h4.5c0-1.6-0.7-2.7-2.1-2.7
			C671.6,396.7,670.7,397.9,670.6,399.3z"/>
		<path class="st3" d="M680.9,398.5c1.1-2,1.5-2.7,2.6-2.7c0.3,0,0.5,0.1,0.6,0.2v1.5h-0.4c-1.1,0-1.7,0.2-2.8,1.5v4.3
			c0,0.9,0.4,0.9,1.6,1v0.6H678v-0.6c0.7-0.1,1.3-0.2,1.3-1v-5.8l-1.2-0.6v-0.4l2.3-0.9h0.4V398.5z"/>
		<path class="st3" d="M691.7,402.9c0,0.7,0.3,1.2,0.8,1.2c0.2,0,0.5,0,0.8-0.1l0.1,0.4c-0.6,0.6-1.1,0.8-1.7,0.8
			c-0.9,0-1.3-0.6-1.4-1.5c-0.6,0.7-1.6,1.5-2.8,1.5c-1.5,0-2.3-1.1-2.3-2.3c0-1.6,1.3-2.1,2.4-2.5l2.7-1v-0.8c0-1-0.4-1.9-1.7-1.9
			c-0.9,0-1.4,0.4-1.4,1.3c0,0.3,0,0.5,0.1,0.9l-1.3,0.2c-0.2-0.2-0.4-0.5-0.4-0.9c0-1.4,1.4-2.2,3.2-2.2c2,0,2.9,1,2.9,2.9
			C691.7,399.2,691.7,402.2,691.7,402.9z M690.1,403.2v-3l-2.4,0.9c-0.6,0.2-1,0.7-1,1.4c0,1,0.5,1.5,1.4,1.5
			C688.8,404,689.4,403.7,690.1,403.2z"/>
		<path class="st3" d="M696.5,396h2.6v0.9h-2.6v6c0,0.9,0.4,1.3,1.3,1.3c0.5,0,1.1-0.2,1.5-0.4l0.2,0.4c-0.6,0.6-1.5,1.1-2.6,1.1
			c-1.2,0-2-0.6-2-2v-6.3h-1.3v-0.5c0.9-0.5,1.6-1.2,2.4-2.3h0.4V396z"/>
		<path class="st3" d="M703.3,403.4c0,0.8,0.5,0.9,1.3,1v0.6h-4.2v-0.6c0.7-0.1,1.3-0.2,1.3-1v-5.8l-1.2-0.6v-0.4l2.4-0.9h0.4V403.4
			z M701.3,393.5c0-0.6,0.5-1.1,1.1-1.1c0.6,0,1.1,0.5,1.1,1.1s-0.5,1.1-1.1,1.1C701.8,394.6,701.3,394.1,701.3,393.5z"/>
		<path class="st3" d="M712.8,398.7c0-1.2-0.5-1.6-1.6-1.6c-0.9,0-1.9,0.4-2.5,0.9v5.5c0,0.8,0.5,0.9,1.3,1v0.6h-4.2v-0.6
			c0.7-0.1,1.3-0.2,1.3-1v-5.8l-1.2-0.6v-0.4l2.4-0.9h0.4v1.7c0.8-0.8,1.9-1.7,3.3-1.7c1.5,0,2.4,0.8,2.4,2.8v4.8
			c0,0.8,0.6,0.9,1.3,1v0.6h-4.2v-0.6c0.7-0.1,1.3-0.2,1.3-1V398.7z"/>
		<path class="st3" d="M718.9,401.5c-0.5,0.6-0.7,0.9-0.7,1.3c0,0.4,0.2,0.5,0.6,0.5h3.8c1.5,0,2.4,0.5,2.4,2c0,1.9-2.1,3.2-5,3.2
			c-2.4,0-3.8-0.7-3.8-2.1c0-1,0.8-1.4,1.6-1.8c-0.7-0.2-1-0.6-1-1.2c0-0.8,0.7-1.5,1.6-2c-0.9-0.5-1.5-1.3-1.5-2.5
			c0-1.9,1.5-3.1,3.4-3.1c0.6,0,1.1,0.1,1.5,0.3l3.1-0.2v1.2h-0.6l-1.8-0.4v0.1c0.7,0.4,1.2,1.2,1.2,2.1c0,1.8-1.4,3-3.4,3
			C719.9,401.8,719.4,401.7,718.9,401.5z M718.2,404.8c-0.3,0.3-0.4,0.7-0.4,1.1c0,1.3,1.1,1.8,2.7,1.8c2,0,3.3-0.7,3.3-1.9
			c0-0.8-0.5-1-1.4-1H718.2z M722.4,398.9c0-1.3-0.7-2.4-2-2.4c-1.2,0-1.7,0.9-1.7,2.2c0,1.3,0.7,2.4,2,2.4
			C721.8,401.1,722.4,400.2,722.4,398.9z"/>
		<path class="st3" d="M730,404l-0.1-2.8h0.6c0.5,1.8,1.5,3.1,3.3,3.1c1.6,0,2.6-0.8,2.6-2.2c0-1.2-0.8-1.7-2.8-2.5
			c-2.3-0.8-3.5-1.6-3.5-3.6c0-1.8,1.3-3.2,3.7-3.2c1.4,0,2.6,0.5,3.5,1.1v2.6h-0.6c-0.4-1.6-1.4-2.8-3.1-2.8
			c-1.4,0-2.2,0.8-2.2,1.9c0,1.2,0.6,1.7,2.7,2.5c2.5,0.9,3.7,1.8,3.7,3.7c0,2.2-1.9,3.4-4.2,3.4C732.1,405.2,730.7,404.6,730,404z"
			/>
		<path class="st3" d="M741.7,396h2.6v0.9h-2.6v6c0,0.9,0.4,1.3,1.3,1.3c0.5,0,1.1-0.2,1.5-0.4l0.2,0.4c-0.6,0.6-1.5,1.1-2.6,1.1
			c-1.2,0-2-0.6-2-2v-6.3h-1.3v-0.5c0.9-0.5,1.6-1.2,2.4-2.3h0.4V396z"/>
		<path class="st3" d="M752.3,402.9c0,0.7,0.3,1.2,0.8,1.2c0.2,0,0.5,0,0.8-0.1l0.1,0.4c-0.6,0.6-1.1,0.8-1.7,0.8
			c-0.9,0-1.3-0.6-1.4-1.5c-0.6,0.7-1.6,1.5-2.8,1.5c-1.5,0-2.3-1.1-2.3-2.3c0-1.6,1.3-2.1,2.4-2.5l2.7-1v-0.8c0-1-0.4-1.9-1.7-1.9
			c-0.9,0-1.4,0.4-1.4,1.3c0,0.3,0,0.5,0.1,0.9l-1.3,0.2c-0.2-0.2-0.4-0.5-0.4-0.9c0-1.4,1.4-2.2,3.2-2.2c2,0,2.9,1,2.9,2.9
			C752.3,399.2,752.3,402.2,752.3,402.9z M750.7,403.2v-3l-2.4,0.9c-0.6,0.2-1,0.7-1,1.4c0,1,0.5,1.5,1.4,1.5
			C749.5,404,750,403.7,750.7,403.2z"/>
		<path class="st3" d="M762.3,393.2c0.5-0.7,1.4-1.2,2.5-1.2c1.2,0,1.9,0.5,1.9,1.3c0,0.4-0.2,0.7-0.5,0.9h-0.8v-0.4
			c0-0.6-0.2-1.1-0.9-1.1c-0.9,0-1.3,0.9-1.3,2.5v0.9h2.2v0.9h-2.2v6.5c0,0.9,0.4,0.9,1.6,1v0.6h-4.5v-0.6c0.7-0.1,1.3-0.2,1.3-1
			v-6.5h-4v6.5c0,0.8,0.5,0.9,1.3,1v0.6h-4.2v-0.6c0.7-0.1,1.3-0.2,1.3-1v-6.5h-1.3v-0.6l1.3-0.4v-0.2c0-2.1,1.6-3.5,3.6-3.5
			C760.8,392.2,761.8,392.6,762.3,393.2z M761.7,394.4c-0.4-0.8-1.2-1.5-2.2-1.5c-1.2,0-2,0.8-2,2.4v0.8h4v-0.4
			C761.6,395.2,761.6,394.8,761.7,394.4z"/>
	</g>
	<g>
		<path class="st3" d="M29.5,172.4c-0.1,2.2-2.3,5-6.4,5c-4.9,0-6.5-3.4-6.5-6c0-4.5,3.3-6.3,6.7-6.3c3.2,0,5.4,1.4,6,4.4h-2.9
			c-0.4-1.1-1.5-1.9-3.1-1.9c-2.5,0-3.3,2-3.3,3.7c0,2.2,1.3,3.5,3.2,3.5c1.6,0,3-0.9,3.2-2.4H29.5z"/>
		<path class="st3" d="M36.2,168.5c3.2,0,5.1,1.9,5.1,4.4c0,2.8-2.4,4.5-5.1,4.5c-3.2,0-5-2.2-5-4.5
			C31.1,170.4,33.1,168.5,36.2,168.5z M38.2,172.9c0-1.4-0.7-2.4-2-2.4c-1.3,0-2,0.9-2,2.4c0,1.4,0.6,2.4,2,2.4
			C37.5,175.3,38.2,174.2,38.2,172.9z"/>
		<path class="st3" d="M53.3,177.1h-2.9v-1.7c-0.7,1.2-1.9,1.9-3.4,1.9c-2,0-3.4-1.3-3.4-3.8v-4.7h2.9v4.4c0,1.3,0.7,1.9,1.5,1.9
			c1.2,0,2.3-1.1,2.3-2.8v-3.5h2.9V177.1z"/>
		<path class="st3" d="M56.3,168.8h2.9v1.8c0.6-1.4,1.9-2,3.4-2c2.4,0,3.5,1.7,3.5,3.3v5.2h-2.9v-4.4c0-1.3-0.6-1.9-1.5-1.9
			c-1.2,0-2.4,1-2.4,3v3.3h-2.9V168.8z"/>
		<path class="st3" d="M75.2,171.7c-0.3-0.8-0.9-1.2-1.9-1.2c-1.1,0-2,0.8-2,2.6c0,1.6,0.9,2.4,2,2.4c1,0,1.7-0.4,2.1-1.4h3
			c-0.3,1-1.4,3.3-5,3.3c-3.1,0-5.1-1.8-5.1-4.5c0-2.5,2.1-4.5,5.1-4.5c3.5,0,4.8,2.1,5,3.3H75.2z"/>
		<path class="st3" d="M80.5,165.4h2.9v2.2h-2.9V165.4z M80.5,168.8h2.9v8.3h-2.9V168.8z"/>
		<path class="st3" d="M86.4,165.4h3v11.7h-3V165.4z"/>
		<path class="st3" d="M94,174.7c0.2,0.4,0.4,0.6,0.7,0.8c0.3,0.1,0.7,0.2,1.1,0.2c1,0,1.6-0.2,1.6-0.7c0-0.1-0.1-0.3-0.2-0.4
			c-0.6-0.6-3.8-0.5-5.1-1.8c-0.4-0.4-0.6-1-0.6-1.5c0-1.5,1.4-2.9,4-2.9c2.7,0,4,1,4.2,2.7h-2.4c-0.1-0.5-0.6-1-1.7-1
			c-0.9,0-1.3,0.3-1.3,0.6c0,0.1,0.1,0.3,0.1,0.3c0.6,0.7,3.4,0.4,4.7,1.7c0.5,0.5,0.7,1.2,0.7,1.8c0,0.5-0.2,2.7-4.2,2.7
			c-3.9,0-4.3-1.9-4.3-2.6H94z"/>
		<path class="st3" d="M107.1,171.4c0-0.6,0.3-1.2,0.7-1.6c0.7-0.7,1.6-1.3,4.1-1.3c3.9,0,4.3,1.8,4.3,3.2v2.8c0,0.7,0.2,1,1,1
			c0.3,0,0.7-0.1,1.2-0.2v1.7c-1.2,0.4-1.8,0.4-2.3,0.4c-1.4,0-2.3-0.5-2.7-1.5c-1,1.1-2.7,1.5-3.9,1.5c-1.8,0-2.8-1.2-2.8-2.4
			c0-0.6,0.2-1.1,0.6-1.5c1.2-1.2,3.6-1,6.2-1.6v-0.3c0-0.8-0.6-1.4-2-1.4c-1,0-1.6,0.4-1.8,1.2H107.1z M113.4,172.9
			c-1.9,0.3-3.7,0.4-3.7,1.7c0,0.5,0.4,1,1.3,1c0.8,0,2-0.5,2.4-1.6V172.9z"/>
		<path class="st3" d="M120.2,168.8h2.9v1.8c0.6-1.4,1.9-2,3.4-2c2.4,0,3.5,1.7,3.5,3.3v5.2H127v-4.4c0-1.3-0.6-1.9-1.5-1.9
			c-1.2,0-2.4,1-2.4,3v3.3h-2.9V168.8z"/>
		<path class="st3" d="M139.8,165.4h2.9v11.7h-2.9v-1.2c-0.7,0.8-1.8,1.4-3.2,1.4c-2.5,0-4.3-2-4.3-4.4c0-3,2.6-4.4,4.5-4.4
			c1,0,2.1,0.4,3.1,1.2V165.4z M137.3,170.2c-1.3,0-2,1.1-2,2.7c0,1.5,0.6,2.6,2.1,2.6c1,0,2.1-0.8,2.1-2.7
			C139.4,171.2,138.5,170.2,137.3,170.2z"/>
		<path class="st3" d="M150.9,165.4h6.7c2.3,0,4.2,0.7,4.2,2.7c0,1.1-0.7,2.2-2.9,2.6c2.9,0.4,3.7,1.6,3.7,3c0,2.4-2.5,3.4-5.7,3.4
			h-6V165.4z M154.2,169.8h2.8c0.9,0,1.6-0.4,1.6-1.2c0-0.9-0.7-1.2-1.7-1.2h-2.7V169.8z M154.2,174.8h3.1c1.6,0,2.1-0.6,2.1-1.4
			c0-0.9-0.7-1.4-1.8-1.4h-3.3V174.8z"/>
		<path class="st3" d="M169.7,168.5c3.2,0,5.1,1.9,5.1,4.4c0,2.8-2.4,4.5-5.1,4.5c-3.2,0-5-2.2-5-4.5
			C164.6,170.4,166.6,168.5,169.7,168.5z M171.7,172.9c0-1.4-0.7-2.4-2-2.4c-1.3,0-2,0.9-2,2.4c0,1.4,0.6,2.4,2,2.4
			C171,175.3,171.7,174.2,171.7,172.9z"/>
		<path class="st3" d="M177.2,171.4c0-0.6,0.3-1.2,0.7-1.6c0.7-0.7,1.6-1.3,4.1-1.3c3.9,0,4.3,1.8,4.3,3.2v2.8c0,0.7,0.2,1,1,1
			c0.3,0,0.7-0.1,1.2-0.2v1.7c-1.2,0.4-1.8,0.4-2.3,0.4c-1.4,0-2.3-0.5-2.7-1.5c-1,1.1-2.7,1.5-3.9,1.5c-1.8,0-2.8-1.2-2.8-2.4
			c0-0.6,0.2-1.1,0.6-1.5c1.2-1.2,3.6-1,6.2-1.6v-0.3c0-0.8-0.6-1.4-2-1.4c-1,0-1.6,0.4-1.8,1.2H177.2z M183.5,172.9
			c-1.9,0.3-3.7,0.4-3.7,1.7c0,0.5,0.4,1,1.3,1c0.8,0,2-0.5,2.4-1.6V172.9z"/>
		<path class="st3" d="M193.1,171.1c0.6-1.4,1.6-2.5,3.2-2.5h0.6v2.7h-0.4c-1.5,0-2.2,0.2-2.7,0.7c-0.5,0.5-0.7,1.1-0.7,1.7v3.3
			h-2.9v-8.3h2.9V171.1z"/>
		<path class="st3" d="M205.6,165.4h2.9v11.7h-2.9v-1.2c-0.7,0.8-1.8,1.4-3.2,1.4c-2.5,0-4.3-2-4.3-4.4c0-3,2.6-4.4,4.5-4.4
			c1,0,2.1,0.4,3.1,1.2V165.4z M203.1,170.2c-1.3,0-2,1.1-2,2.7c0,1.5,0.6,2.6,2.1,2.6c1,0,2.1-0.8,2.1-2.7
			C205.2,171.2,204.3,170.2,203.1,170.2z"/>
		<path class="st3" d="M213.3,174.7c0.2,0.4,0.4,0.6,0.7,0.8c0.3,0.1,0.7,0.2,1.1,0.2c1,0,1.6-0.2,1.6-0.7c0-0.1-0.1-0.3-0.2-0.4
			c-0.6-0.6-3.8-0.5-5.1-1.8c-0.4-0.4-0.6-1-0.6-1.5c0-1.5,1.4-2.9,4-2.9c2.7,0,4,1,4.2,2.7h-2.4c-0.1-0.5-0.6-1-1.7-1
			c-0.9,0-1.3,0.3-1.3,0.6c0,0.1,0.1,0.3,0.1,0.3c0.6,0.7,3.4,0.4,4.7,1.7c0.5,0.5,0.7,1.2,0.7,1.8c0,0.5-0.2,2.7-4.2,2.7
			c-3.9,0-4.3-1.9-4.3-2.6H213.3z"/>
		<path class="st3" d="M64.3,198.2h-5l-0.7,1.9c-0.1,0.3-0.2,0.5-0.2,0.7c0,0.5,0.4,0.7,1.6,0.7v0.7h-3.8v-0.7
			c0.5-0.1,0.9-0.2,1-0.6l4-9.7l-0.5-1.1h1.9l4.7,10.8c0.2,0.5,0.5,0.6,1,0.6v0.7h-4.6v-0.7c1.2,0,1.6-0.2,1.6-0.7
			c0-0.2-0.1-0.4-0.2-0.7L64.3,198.2z M59.6,197.4H64l-2.2-5.3L59.6,197.4z"/>
		<path class="st3" d="M75.4,200.8c-0.7,0.9-1.5,1.5-2.8,1.5c-2.3,0-3.6-1.9-3.6-4.2c0-3.1,1.9-5.1,4.3-5.1c0.9,0,1.7,0.4,2.1,0.9
			V191l-1.2-0.6V190l2.4-0.8H77v11.1c0,0.6,0.2,0.7,1,0.8l0.4,0.1v0.6l-2.7,0.6h-0.3V200.8z M70.6,197.4c0,1.9,0.8,3.7,2.7,3.7
			c0.9,0,1.7-0.3,2.2-0.9v-4.2c0-1.6-0.9-2.4-2.2-2.4C71.6,193.7,70.6,195.2,70.6,197.4z"/>
		<path class="st3" d="M88.1,193.7c-0.8,0.3-0.8,0.3-1,0.7l-3.4,7.9h-0.4l-3.5-7.9c-0.2-0.4-0.2-0.4-1-0.7v-0.6h4v0.6
			c-0.9,0.1-1.2,0.2-1.2,0.6c0,0.1,0,0.3,0.1,0.5l2.1,5.2l2.1-5.2c0.1-0.2,0.1-0.3,0.1-0.5c0-0.4-0.4-0.5-1.2-0.6v-0.6h3.3V193.7z"
			/>
		<path class="st3" d="M91.7,200.5c0,0.8,0.5,0.9,1.3,1v0.6h-4.2v-0.6c0.7-0.1,1.3-0.2,1.3-1v-5.8l-1.2-0.6v-0.4l2.4-0.9h0.4V200.5z
			 M89.8,190.6c0-0.6,0.5-1.1,1.1-1.1s1.1,0.5,1.1,1.1s-0.5,1.1-1.1,1.1S89.8,191.2,89.8,190.6z"/>
		<path class="st3" d="M94.4,201.4l-0.1-2.3h0.6c0.3,1.4,1.2,2.3,2.6,2.3c1.1,0,1.7-0.5,1.7-1.4c0-1.1-0.8-1.5-2.3-2
			c-1.5-0.5-2.5-1.1-2.5-2.7c0-1.5,1.1-2.6,2.9-2.6c1.1,0,2.1,0.3,2.8,0.7v2.1h-0.6c-0.2-1.4-1-2-2.2-2c-0.9,0-1.5,0.6-1.5,1.3
			c0,0.9,0.7,1.4,2,1.8c1.7,0.5,2.8,1,2.8,2.8c0,1.5-1.2,2.6-3.2,2.6C96.4,202.3,95.2,202.1,94.4,201.4z"/>
		<path class="st3" d="M102.1,197.8c0-2.9,1.9-4.8,4.2-4.8c2.5,0,4.1,1.9,4.1,4.5c0,2.9-1.9,4.8-4.2,4.8
			C103.8,202.3,102.1,200.4,102.1,197.8z M108.9,197.7c0-2.1-1-3.9-2.7-3.9c-1.6,0-2.4,1.5-2.4,3.7c0,2.1,1,3.9,2.7,3.9
			C108.1,201.4,108.9,199.9,108.9,197.7z"/>
		<path class="st3" d="M114.7,195.6c1.1-2,1.5-2.7,2.6-2.7c0.3,0,0.5,0.1,0.6,0.2v1.5h-0.4c-1.1,0-1.7,0.2-2.8,1.5v4.3
			c0,0.9,0.4,0.9,1.6,1v0.6h-4.5v-0.6c0.7-0.1,1.3-0.2,1.3-1v-5.8l-1.2-0.6v-0.4l2.3-0.9h0.4V195.6z"/>
		<path class="st3" d="M119.5,194.4c-0.2-0.4-0.2-0.4-1-0.7v-0.6h4v0.6c-0.9,0.1-1.2,0.2-1.2,0.6c0,0.1,0,0.2,0.1,0.5l2.2,5.5
			l2.1-5.5c0.1-0.2,0.1-0.3,0.1-0.5c0-0.4-0.4-0.5-1.2-0.6v-0.6h3.3v0.6c-0.8,0.3-0.9,0.3-1,0.7l-3.8,9.5c-0.4,1.1-1,1.8-2,1.8
			c-0.6,0-1-0.3-1.3-0.6v-0.8h0.9c1.1,0,1.5-0.2,1.8-1.2l0.3-0.9L119.5,194.4z"/>
		<path class="st3" d="M132.4,201.4c1.1,0,1.7-0.2,1.7-1.2v-8.1c0-1-0.6-1.2-1.7-1.2v-0.7h5.2c2.6,0,4.1,1,4.1,3
			c0,1.7-1.4,2.5-3,2.8c2.3,0.2,3.6,1.3,3.6,3c0,1.9-1.6,3.2-4.4,3.2h-5.5V201.4z M135.7,190.9v4.7h1.3c1.9,0,2.8-0.8,2.8-2.5
			c0-1.2-0.9-2.2-2.8-2.2H135.7z M135.7,196.4v3.8c0,0.9,0.5,1.1,1.7,1.1h0.2c2,0,2.8-0.8,2.8-2.4c0-1.4-0.8-2.5-3.1-2.5H135.7z"/>
		<path class="st3" d="M144,197.8c0-2.9,1.9-4.8,4.2-4.8c2.5,0,4.1,1.9,4.1,4.5c0,2.9-1.9,4.8-4.2,4.8
			C145.6,202.3,144,200.4,144,197.8z M150.7,197.7c0-2.1-1-3.9-2.7-3.9c-1.6,0-2.4,1.5-2.4,3.7c0,2.1,1,3.9,2.7,3.9
			C149.9,201.4,150.7,199.9,150.7,197.7z"/>
		<path class="st3" d="M160.4,200c0,0.7,0.3,1.2,0.8,1.2c0.2,0,0.5,0,0.8-0.1l0.1,0.4c-0.6,0.6-1.1,0.8-1.7,0.8
			c-0.9,0-1.3-0.6-1.4-1.5c-0.6,0.7-1.6,1.5-2.8,1.5c-1.5,0-2.3-1.1-2.3-2.3c0-1.6,1.3-2.1,2.4-2.5l2.7-1v-0.8c0-1-0.4-1.9-1.7-1.9
			c-0.9,0-1.4,0.4-1.4,1.3c0,0.3,0,0.5,0.1,0.9l-1.3,0.2c-0.2-0.2-0.4-0.5-0.4-0.9c0-1.4,1.4-2.2,3.2-2.2c2,0,2.9,1,2.9,2.9
			C160.4,196.3,160.4,199.3,160.4,200z M158.9,200.3v-3l-2.4,0.9c-0.6,0.2-1,0.7-1,1.4c0,1,0.5,1.5,1.4,1.5
			C157.6,201.1,158.1,200.8,158.9,200.3z"/>
		<path class="st3" d="M165.7,195.6c1.1-2,1.5-2.7,2.6-2.7c0.3,0,0.5,0.1,0.6,0.2v1.5h-0.4c-1.1,0-1.7,0.2-2.8,1.5v4.3
			c0,0.9,0.4,0.9,1.6,1v0.6h-4.5v-0.6c0.7-0.1,1.3-0.2,1.3-1v-5.8l-1.2-0.6v-0.4l2.3-0.9h0.4V195.6z"/>
		<path class="st3" d="M176.2,200.8c-0.7,0.9-1.5,1.5-2.8,1.5c-2.3,0-3.6-1.9-3.6-4.2c0-3.1,1.9-5.1,4.3-5.1c0.9,0,1.7,0.4,2.1,0.9
			V191l-1.2-0.6V190l2.4-0.8h0.4v11.1c0,0.6,0.2,0.7,1,0.8l0.4,0.1v0.6l-2.7,0.6h-0.3V200.8z M171.3,197.4c0,1.9,0.8,3.7,2.7,3.7
			c0.9,0,1.7-0.3,2.2-0.9v-4.2c0-1.6-0.9-2.4-2.2-2.4C172.4,193.7,171.3,195.2,171.3,197.4z"/>
		<path class="st3" d="M54.9,215.2l0.3,3.6h-0.5c-1-2.3-1.2-2.8-2.7-2.8h-1.3v9.3c0,1,0.7,1.2,1.8,1.2v0.7h-5.2v-0.7
			c1.1,0,1.8-0.2,1.8-1.2v-9.3h-1.3c-1.5,0-1.7,0.5-2.8,2.8h-0.5l0.3-3.6H54.9z"/>
		<path class="st3" d="M58.8,219.6c0.8-0.8,1.8-1.7,3.2-1.7c1.5,0,2.4,0.8,2.4,2.8v4.8c0,0.8,0.6,0.9,1.3,1v0.6h-4.2v-0.6
			c0.7-0.1,1.3-0.2,1.3-1v-4.7c0-1.2-0.5-1.6-1.6-1.6c-0.9,0-1.8,0.4-2.5,0.9v5.5c0,0.8,0.6,0.9,1.3,1v0.6h-4.2v-0.6
			c0.8-0.1,1.3-0.2,1.3-1V216l-1.2-0.6V215l2.4-0.8h0.4V219.6z"/>
		<path class="st3" d="M74.4,221.7v0.5h-6.1c0,2.2,1.2,3.7,3.1,3.7c1.3,0,2.1-0.6,2.7-1.5l0.3,0.2c-0.4,1.5-1.7,2.6-3.6,2.6
			c-2.5,0-3.9-2-3.9-4.4c0-3,1.7-5,4.1-5C73.2,217.9,74.4,219.5,74.4,221.7z M68.4,221.4h4.5c0-1.6-0.7-2.7-2.1-2.7
			C69.4,218.8,68.5,220,68.4,221.4z"/>
		<path class="st3" d="M79.7,226.1l-0.1-2.8h0.6c0.5,1.8,1.5,3.1,3.3,3.1c1.6,0,2.6-0.8,2.6-2.2c0-1.2-0.8-1.7-2.8-2.5
			c-2.3-0.8-3.5-1.6-3.5-3.6c0-1.8,1.3-3.2,3.7-3.2c1.4,0,2.6,0.5,3.5,1.1v2.6h-0.6c-0.4-1.6-1.4-2.8-3.1-2.8
			c-1.4,0-2.2,0.8-2.2,1.9c0,1.2,0.6,1.7,2.7,2.5c2.5,0.9,3.7,1.8,3.7,3.7c0,2.2-1.9,3.4-4.2,3.4C81.8,227.3,80.4,226.7,79.7,226.1z
			"/>
		<path class="st3" d="M91.4,218.1H94v0.9h-2.6v5.9c0,0.9,0.4,1.3,1.3,1.3c0.5,0,1.1-0.2,1.5-0.4l0.2,0.4c-0.6,0.6-1.5,1.1-2.6,1.1
			c-1.2,0-2-0.6-2-2V219h-1.3v-0.5c0.9-0.5,1.6-1.2,2.4-2.3h0.4V218.1z"/>
		<path class="st3" d="M101.9,225.6c-0.8,0.8-1.8,1.7-3.2,1.7c-1.5,0-2.4-0.8-2.4-2.8v-4.7c0-0.6-0.2-0.8-1-0.9l-0.3,0v-0.6l2.6-0.4
			h0.3v6.3c0,1.2,0.5,1.8,1.6,1.8c0.9,0,1.8-0.4,2.4-0.9v-5.3c0-0.6-0.2-0.8-1-0.9l-0.3,0v-0.6l2.6-0.4h0.3v7.3c0,0.6,0.2,0.7,1,0.8
			l0.4,0.1v0.6l-2.7,0.6h-0.2V225.6z"/>
		<path class="st3" d="M112.4,225.8c-0.7,0.9-1.5,1.5-2.8,1.5c-2.3,0-3.6-1.9-3.6-4.2c0-3.1,1.9-5.1,4.3-5.1c0.9,0,1.7,0.4,2.1,0.9
			V216l-1.2-0.6V215l2.4-0.8h0.4v11.1c0,0.6,0.2,0.7,1,0.8l0.4,0.1v0.6l-2.7,0.6h-0.3V225.8z M107.6,222.4c0,1.9,0.8,3.7,2.7,3.7
			c0.9,0,1.7-0.3,2.2-0.9v-4.2c0-1.6-0.9-2.4-2.2-2.4C108.7,218.7,107.6,220.2,107.6,222.4z"/>
		<path class="st3" d="M116.9,219.4c-0.2-0.4-0.2-0.4-1-0.7v-0.6h4v0.6c-0.9,0.1-1.2,0.2-1.2,0.6c0,0.1,0,0.2,0.1,0.5l2.2,5.5
			l2.1-5.5c0.1-0.2,0.1-0.3,0.1-0.5c0-0.4-0.4-0.5-1.2-0.6v-0.6h3.3v0.6c-0.8,0.3-0.9,0.3-1,0.7l-3.8,9.5c-0.4,1.1-1,1.8-2,1.8
			c-0.6,0-1-0.3-1.3-0.6v-0.8h0.9c1.1,0,1.5-0.2,1.8-1.2l0.3-0.9L116.9,219.4z"/>
		<path class="st3" d="M139.2,223.4h0.6l-0.4,2.9c-1.1,0.6-2.2,0.9-4,0.9c-3.4,0-5.6-2.5-5.6-5.9c0-4,2.6-6.4,5.9-6.4
			c1.8,0,2.9,0.5,3.7,1.1v2.6h-0.6c-0.5-2-1.6-2.8-3.2-2.8c-2.7,0-3.9,2.3-3.9,5c0,3.1,1.4,5.5,4.1,5.5
			C137.5,226.4,138.5,225.4,139.2,223.4z"/>
		<path class="st3" d="M141.4,222.8c0-2.9,1.9-4.8,4.2-4.8c2.5,0,4.1,1.9,4.1,4.5c0,2.9-1.9,4.8-4.2,4.8
			C143,227.3,141.4,225.4,141.4,222.8z M148.2,222.7c0-2.1-1-3.9-2.7-3.9c-1.6,0-2.4,1.5-2.4,3.7c0,2.1,1,3.9,2.7,3.9
			C147.4,226.4,148.2,224.9,148.2,222.7z"/>
		<path class="st3" d="M157.7,225.6c-0.8,0.8-1.8,1.7-3.2,1.7c-1.5,0-2.4-0.8-2.4-2.8v-4.7c0-0.6-0.2-0.8-1-0.9l-0.3,0v-0.6l2.6-0.4
			h0.3v6.3c0,1.2,0.5,1.8,1.6,1.8c0.9,0,1.8-0.4,2.4-0.9v-5.3c0-0.6-0.2-0.8-1-0.9l-0.3,0v-0.6l2.6-0.4h0.3v7.3c0,0.6,0.2,0.7,1,0.8
			l0.4,0.1v0.6l-2.7,0.6h-0.2V225.6z"/>
		<path class="st3" d="M168.8,220.8c0-1.2-0.5-1.6-1.6-1.6c-0.9,0-1.9,0.4-2.5,0.9v5.5c0,0.8,0.5,0.9,1.3,1v0.6h-4.2v-0.6
			c0.7-0.1,1.3-0.2,1.3-1v-5.8l-1.2-0.6v-0.4l2.4-0.9h0.4v1.7c0.8-0.8,1.9-1.7,3.3-1.7c1.5,0,2.4,0.8,2.4,2.8v4.8
			c0,0.8,0.6,0.9,1.3,1v0.6h-4.2v-0.6c0.7-0.1,1.3-0.2,1.3-1V220.8z"/>
		<path class="st3" d="M177.2,226c1.2,0,1.9-0.5,2.6-1.4l0.3,0.2c-0.5,1.7-1.7,2.6-3.5,2.6c-2.3,0-3.9-1.8-3.9-4.4
			c0-2.7,1.7-5,4.4-5c1.8,0,2.9,0.8,2.9,2.1c0,0.6-0.3,0.9-0.7,1h-0.9v-0.6c0-1-0.5-1.7-1.5-1.7c-1.6,0-2.7,1.5-2.7,3.5
			C174.2,224.5,175.3,226,177.2,226z"/>
		<path class="st3" d="M184.3,225.5c0,0.8,0.5,0.9,1.3,1v0.6h-4.2v-0.6c0.7-0.1,1.3-0.2,1.3-1v-5.8l-1.2-0.6v-0.4l2.4-0.9h0.4V225.5
			z M182.3,215.6c0-0.6,0.5-1.1,1.1-1.1s1.1,0.5,1.1,1.1s-0.5,1.1-1.1,1.1S182.3,216.2,182.3,215.6z"/>
		<path class="st3" d="M189.6,225.5c0,0.8,0.6,0.9,1.3,1v0.6h-4.2v-0.6c0.8-0.1,1.3-0.2,1.3-1V216l-1.2-0.6V215l2.4-0.8h0.4V225.5z"
			/>
		<path class="st3" d="M62.8,252.1v-0.7c1.1,0,1.7-0.2,1.7-1.2v-8.1c0-1-0.6-1.2-1.7-1.2v-0.7h9.2v2.9h-0.4
			c-0.6-1.5-1.1-2.2-2.5-2.2h-3v4.9h2.6c0.7,0,1.1-0.5,1.2-1.5h0.6v3.8H70c-0.2-1-0.5-1.5-1.2-1.5h-2.6v3.6c0,1,0.8,1.2,2.2,1.2v0.7
			H62.8z"/>
		<path class="st3" d="M79.6,250c0,0.7,0.3,1.2,0.8,1.2c0.2,0,0.5,0,0.8-0.1l0.1,0.4c-0.6,0.6-1.1,0.8-1.7,0.8
			c-0.9,0-1.3-0.6-1.4-1.5c-0.6,0.7-1.6,1.5-2.8,1.5c-1.5,0-2.3-1.1-2.3-2.3c0-1.6,1.3-2.1,2.4-2.5l2.7-1v-0.8c0-1-0.4-1.9-1.7-1.9
			c-0.9,0-1.4,0.4-1.4,1.3c0,0.3,0,0.5,0.1,0.9l-1.3,0.2c-0.2-0.2-0.4-0.5-0.4-0.9c0-1.4,1.4-2.2,3.2-2.2c2,0,2.9,1,2.9,2.9
			C79.6,246.3,79.6,249.3,79.6,250z M78,250.3v-3l-2.4,0.9c-0.6,0.2-1,0.7-1,1.4c0,1,0.5,1.5,1.4,1.5
			C76.8,251.1,77.3,250.8,78,250.3z"/>
		<path class="st3" d="M86.4,251c1.2,0,1.9-0.5,2.6-1.4l0.3,0.2c-0.5,1.7-1.7,2.6-3.5,2.6c-2.3,0-3.9-1.8-3.9-4.4c0-2.7,1.7-5,4.4-5
			c1.8,0,2.9,0.8,2.9,2.1c0,0.6-0.3,0.9-0.7,1h-0.9v-0.6c0-1-0.5-1.7-1.5-1.7c-1.6,0-2.7,1.5-2.7,3.5C83.4,249.5,84.5,251,86.4,251z
			"/>
		<path class="st3" d="M97.1,250.6c-0.8,0.8-1.8,1.7-3.2,1.7c-1.5,0-2.4-0.8-2.4-2.8v-4.7c0-0.6-0.2-0.8-1-0.9l-0.3,0v-0.6l2.6-0.4
			h0.3v6.3c0,1.2,0.5,1.8,1.6,1.8c0.9,0,1.8-0.4,2.4-0.9v-5.3c0-0.6-0.2-0.8-1-0.9l-0.3,0v-0.6l2.6-0.4h0.3v7.3c0,0.6,0.2,0.7,1,0.8
			l0.4,0.1v0.6l-2.7,0.6h-0.2V250.6z"/>
		<path class="st3" d="M104.1,250.5c0,0.8,0.6,0.9,1.3,1v0.6h-4.2v-0.6c0.8-0.1,1.3-0.2,1.3-1V241l-1.2-0.6V240l2.4-0.8h0.4V250.5z"
			/>
		<path class="st3" d="M109,243.1h2.6v0.9H109v5.9c0,0.9,0.4,1.3,1.3,1.3c0.5,0,1.1-0.2,1.5-0.4l0.2,0.4c-0.6,0.6-1.5,1.1-2.6,1.1
			c-1.2,0-2-0.6-2-2V244h-1.3v-0.5c0.9-0.5,1.6-1.2,2.4-2.3h0.4V243.1z"/>
		<path class="st3" d="M113.3,244.4c-0.2-0.4-0.2-0.4-1-0.7v-0.6h4v0.6c-0.9,0.1-1.2,0.2-1.2,0.6c0,0.1,0,0.2,0.1,0.5l2.2,5.5
			l2.1-5.5c0.1-0.2,0.1-0.3,0.1-0.5c0-0.4-0.4-0.5-1.2-0.6v-0.6h3.3v0.6c-0.8,0.3-0.9,0.3-1,0.7l-3.8,9.5c-0.4,1.1-1,1.8-2,1.8
			c-0.6,0-1-0.3-1.3-0.6v-0.8h0.9c1.1,0,1.5-0.2,1.8-1.2l0.3-0.9L113.3,244.4z"/>
		<path class="st3" d="M126.2,251.4c1.1,0,1.7-0.2,1.7-1.2v-8.1c0-1-0.6-1.2-1.7-1.2v-0.7h5.2c2.6,0,4.1,1,4.1,3
			c0,1.7-1.4,2.5-3,2.8c2.3,0.2,3.6,1.3,3.6,3c0,1.9-1.6,3.2-4.4,3.2h-5.5V251.4z M129.5,240.9v4.7h1.3c1.9,0,2.8-0.8,2.8-2.5
			c0-1.2-0.9-2.2-2.8-2.2H129.5z M129.5,246.4v3.8c0,0.9,0.5,1.1,1.7,1.1h0.2c2,0,2.8-0.8,2.8-2.4c0-1.4-0.8-2.5-3.1-2.5H129.5z"/>
		<path class="st3" d="M137.8,247.8c0-2.9,1.9-4.8,4.2-4.8c2.5,0,4.1,1.9,4.1,4.5c0,2.9-1.9,4.8-4.2,4.8
			C139.4,252.3,137.8,250.4,137.8,247.8z M144.5,247.7c0-2.1-1-3.9-2.7-3.9c-1.6,0-2.4,1.5-2.4,3.7c0,2.1,1,3.9,2.7,3.9
			C143.7,251.4,144.5,249.9,144.5,247.7z"/>
		<path class="st3" d="M154.2,250c0,0.7,0.3,1.2,0.8,1.2c0.2,0,0.5,0,0.8-0.1l0.1,0.4c-0.6,0.6-1.1,0.8-1.7,0.8
			c-0.9,0-1.3-0.6-1.4-1.5c-0.6,0.7-1.6,1.5-2.8,1.5c-1.5,0-2.3-1.1-2.3-2.3c0-1.6,1.3-2.1,2.4-2.5l2.7-1v-0.8c0-1-0.4-1.9-1.7-1.9
			c-0.9,0-1.4,0.4-1.4,1.3c0,0.3,0,0.5,0.1,0.9l-1.3,0.2c-0.2-0.2-0.4-0.5-0.4-0.9c0-1.4,1.4-2.2,3.2-2.2c2,0,2.9,1,2.9,2.9
			C154.2,246.3,154.2,249.3,154.2,250z M152.6,250.3v-3l-2.4,0.9c-0.6,0.2-1,0.7-1,1.4c0,1,0.5,1.5,1.4,1.5
			C151.3,251.1,151.9,250.8,152.6,250.3z"/>
		<path class="st3" d="M159.5,245.6c1.1-2,1.5-2.7,2.6-2.7c0.3,0,0.5,0.1,0.6,0.2v1.5h-0.4c-1.1,0-1.7,0.2-2.8,1.5v4.3
			c0,0.9,0.4,0.9,1.6,1v0.6h-4.5v-0.6c0.7-0.1,1.3-0.2,1.3-1v-5.8l-1.2-0.6v-0.4l2.3-0.9h0.4V245.6z"/>
		<path class="st3" d="M169.9,250.8c-0.7,0.9-1.5,1.5-2.8,1.5c-2.3,0-3.6-1.9-3.6-4.2c0-3.1,1.9-5.1,4.3-5.1c0.9,0,1.7,0.4,2.1,0.9
			V241l-1.2-0.6V240l2.4-0.8h0.4v11.1c0,0.6,0.2,0.7,1,0.8l0.4,0.1v0.6l-2.7,0.6h-0.3V250.8z M165.1,247.4c0,1.9,0.8,3.7,2.7,3.7
			c0.9,0,1.7-0.3,2.2-0.9v-4.2c0-1.6-0.9-2.4-2.2-2.4C166.2,243.7,165.1,245.2,165.1,247.4z"/>
		<path class="st3" d="M46.5,265.2l0.3,3.6h-0.5c-1-2.3-1.2-2.8-2.7-2.8h-1.3v9.3c0,1,0.7,1.2,1.8,1.2v0.7h-5.2v-0.7
			c1.1,0,1.8-0.2,1.8-1.2v-9.3h-1.3c-1.5,0-1.7,0.5-2.8,2.8H36l0.3-3.6H46.5z"/>
		<path class="st3" d="M50.5,269.6c0.8-0.8,1.8-1.7,3.2-1.7c1.5,0,2.4,0.8,2.4,2.8v4.8c0,0.8,0.6,0.9,1.3,1v0.6h-4.2v-0.6
			c0.7-0.1,1.3-0.2,1.3-1v-4.7c0-1.2-0.5-1.6-1.6-1.6c-0.9,0-1.8,0.4-2.5,0.9v5.5c0,0.8,0.6,0.9,1.3,1v0.6h-4.2v-0.6
			c0.8-0.1,1.3-0.2,1.3-1V266l-1.2-0.6V265l2.4-0.8h0.4V269.6z"/>
		<path class="st3" d="M66,271.7v0.5H60c0,2.2,1.2,3.7,3.1,3.7c1.3,0,2.1-0.6,2.7-1.5l0.3,0.2c-0.4,1.5-1.7,2.6-3.6,2.6
			c-2.5,0-3.9-2-3.9-4.4c0-3,1.7-5,4.1-5C64.9,267.9,66,269.5,66,271.7z M60,271.4h4.5c0-1.6-0.7-2.7-2.1-2.7
			C61,268.8,60.2,270,60,271.4z"/>
		<path class="st3" d="M71.4,276.1l-0.1-2.8h0.6c0.5,1.8,1.5,3.1,3.3,3.1c1.6,0,2.6-0.8,2.6-2.2c0-1.2-0.8-1.7-2.8-2.5
			c-2.3-0.8-3.5-1.6-3.5-3.6c0-1.8,1.3-3.2,3.7-3.2c1.4,0,2.6,0.5,3.5,1.1v2.6h-0.6c-0.4-1.6-1.4-2.8-3.1-2.8
			c-1.4,0-2.2,0.8-2.2,1.9c0,1.2,0.6,1.7,2.7,2.5c2.5,0.9,3.7,1.8,3.7,3.7c0,2.2-1.9,3.4-4.2,3.4C73.5,277.3,72.1,276.7,71.4,276.1z
			"/>
		<path class="st3" d="M83.1,268.1h2.6v0.9h-2.6v5.9c0,0.9,0.4,1.3,1.3,1.3c0.5,0,1.1-0.2,1.5-0.4l0.2,0.4c-0.6,0.6-1.5,1.1-2.6,1.1
			c-1.2,0-2-0.6-2-2V269h-1.3v-0.5c0.9-0.5,1.6-1.2,2.4-2.3h0.4V268.1z"/>
		<path class="st3" d="M93.5,275.6c-0.8,0.8-1.8,1.7-3.2,1.7c-1.5,0-2.4-0.8-2.4-2.8v-4.7c0-0.6-0.2-0.8-1-0.9l-0.3,0v-0.6l2.6-0.4
			h0.3v6.3c0,1.2,0.5,1.8,1.6,1.8c0.9,0,1.8-0.4,2.4-0.9v-5.3c0-0.6-0.2-0.8-1-0.9l-0.3,0v-0.6l2.6-0.4h0.3v7.3c0,0.6,0.2,0.7,1,0.8
			l0.4,0.1v0.6l-2.7,0.6h-0.2V275.6z"/>
		<path class="st3" d="M104.1,275.8c-0.7,0.9-1.5,1.5-2.8,1.5c-2.3,0-3.6-1.9-3.6-4.2c0-3.1,1.9-5.1,4.3-5.1c0.9,0,1.7,0.4,2.1,0.9
			V266l-1.2-0.6V265l2.4-0.8h0.4v11.1c0,0.6,0.2,0.7,1,0.8l0.4,0.1v0.6l-2.7,0.6h-0.3V275.8z M99.2,272.4c0,1.9,0.8,3.7,2.7,3.7
			c0.9,0,1.7-0.3,2.2-0.9v-4.2c0-1.6-0.9-2.4-2.2-2.4C100.3,268.7,99.2,270.2,99.2,272.4z"/>
		<path class="st3" d="M115.7,271.7v0.5h-6.1c0,2.2,1.2,3.7,3.1,3.7c1.3,0,2.1-0.6,2.7-1.5l0.3,0.2c-0.4,1.5-1.7,2.6-3.6,2.6
			c-2.5,0-3.9-2-3.9-4.4c0-3,1.7-5,4.1-5C114.5,267.9,115.7,269.5,115.7,271.7z M109.7,271.4h4.5c0-1.6-0.7-2.7-2.1-2.7
			C110.7,268.8,109.8,270,109.7,271.4z"/>
		<path class="st3" d="M124,270.8c0-1.2-0.5-1.6-1.6-1.6c-0.9,0-1.9,0.4-2.5,0.9v5.5c0,0.8,0.5,0.9,1.3,1v0.6h-4.2v-0.6
			c0.7-0.1,1.3-0.2,1.3-1v-5.8l-1.2-0.6v-0.4l2.4-0.9h0.4v1.7c0.8-0.8,1.9-1.7,3.3-1.7c1.5,0,2.4,0.8,2.4,2.8v4.8
			c0,0.8,0.6,0.9,1.3,1v0.6h-4.2v-0.6c0.7-0.1,1.3-0.2,1.3-1V270.8z"/>
		<path class="st3" d="M130.4,268.1h2.6v0.9h-2.6v5.9c0,0.9,0.4,1.3,1.3,1.3c0.5,0,1.1-0.2,1.5-0.4l0.2,0.4
			c-0.6,0.6-1.5,1.1-2.6,1.1c-1.2,0-2-0.6-2-2V269h-1.3v-0.5c0.9-0.5,1.6-1.2,2.4-2.3h0.4V268.1z"/>
		<path class="st3" d="M147.5,273.4h0.6l-0.4,2.9c-1.1,0.6-2.2,0.9-4,0.9c-3.4,0-5.6-2.5-5.6-5.9c0-4,2.6-6.4,5.9-6.4
			c1.8,0,2.9,0.5,3.7,1.1v2.6h-0.6c-0.5-2-1.6-2.8-3.2-2.8c-2.7,0-3.9,2.3-3.9,5c0,3.1,1.4,5.5,4.1,5.5
			C145.9,276.4,146.8,275.4,147.5,273.4z"/>
		<path class="st3" d="M149.8,272.8c0-2.9,1.9-4.8,4.2-4.8c2.5,0,4.1,1.9,4.1,4.5c0,2.9-1.9,4.8-4.2,4.8
			C151.4,277.3,149.8,275.4,149.8,272.8z M156.5,272.7c0-2.1-1-3.9-2.7-3.9c-1.6,0-2.4,1.5-2.4,3.7c0,2.1,1,3.9,2.7,3.9
			C155.7,276.4,156.5,274.9,156.5,272.7z"/>
		<path class="st3" d="M166,275.6c-0.8,0.8-1.8,1.7-3.2,1.7c-1.5,0-2.4-0.8-2.4-2.8v-4.7c0-0.6-0.2-0.8-1-0.9l-0.3,0v-0.6l2.6-0.4
			h0.3v6.3c0,1.2,0.5,1.8,1.6,1.8c0.9,0,1.8-0.4,2.4-0.9v-5.3c0-0.6-0.2-0.8-1-0.9l-0.3,0v-0.6l2.6-0.4h0.3v7.3c0,0.6,0.2,0.7,1,0.8
			l0.4,0.1v0.6l-2.7,0.6H166V275.6z"/>
		<path class="st3" d="M177.1,270.8c0-1.2-0.5-1.6-1.6-1.6c-0.9,0-1.9,0.4-2.5,0.9v5.5c0,0.8,0.5,0.9,1.3,1v0.6h-4.2v-0.6
			c0.7-0.1,1.3-0.2,1.3-1v-5.8l-1.2-0.6v-0.4l2.4-0.9h0.4v1.7c0.8-0.8,1.9-1.7,3.3-1.7c1.5,0,2.4,0.8,2.4,2.8v4.8
			c0,0.8,0.6,0.9,1.3,1v0.6h-4.2v-0.6c0.7-0.1,1.3-0.2,1.3-1V270.8z"/>
		<path class="st3" d="M185.6,276c1.2,0,1.9-0.5,2.6-1.4l0.3,0.2c-0.5,1.7-1.7,2.6-3.5,2.6c-2.3,0-3.9-1.8-3.9-4.4
			c0-2.7,1.7-5,4.4-5c1.8,0,2.9,0.8,2.9,2.1c0,0.6-0.3,0.9-0.7,1h-0.9v-0.6c0-1-0.5-1.7-1.5-1.7c-1.6,0-2.7,1.5-2.7,3.5
			C182.5,274.5,183.6,276,185.6,276z"/>
		<path class="st3" d="M192.6,275.5c0,0.8,0.5,0.9,1.3,1v0.6h-4.2v-0.6c0.7-0.1,1.3-0.2,1.3-1v-5.8l-1.2-0.6v-0.4l2.4-0.9h0.4V275.5
			z M190.6,265.6c0-0.6,0.5-1.1,1.1-1.1s1.1,0.5,1.1,1.1s-0.5,1.1-1.1,1.1S190.6,266.2,190.6,265.6z"/>
		<path class="st3" d="M197.9,275.5c0,0.8,0.6,0.9,1.3,1v0.6H195v-0.6c0.8-0.1,1.3-0.2,1.3-1V266l-1.2-0.6V265l2.4-0.8h0.4V275.5z"
			/>
		<path class="st3" d="M11.7,290.2l0.3,3.6h-0.5c-1-2.3-1.2-2.8-2.7-2.8H7.4v9.3c0,1,0.7,1.2,1.8,1.2v0.7H4v-0.7
			c1.1,0,1.8-0.2,1.8-1.2v-9.3H4.5c-1.5,0-1.7,0.5-2.8,2.8H1.3l0.3-3.6H11.7z"/>
		<path class="st3" d="M15.7,294.6c0.8-0.8,1.8-1.7,3.2-1.7c1.5,0,2.4,0.8,2.4,2.8v4.8c0,0.8,0.6,0.9,1.3,1v0.6h-4.2v-0.6
			c0.7-0.1,1.3-0.2,1.3-1v-4.7c0-1.2-0.5-1.6-1.6-1.6c-0.9,0-1.8,0.4-2.5,0.9v5.5c0,0.8,0.6,0.9,1.3,1v0.6h-4.2v-0.6
			c0.8-0.1,1.3-0.2,1.3-1V291l-1.2-0.6V290l2.4-0.8h0.4V294.6z"/>
		<path class="st3" d="M31.3,296.7v0.5h-6.1c0,2.2,1.2,3.7,3.1,3.7c1.3,0,2.1-0.6,2.7-1.5l0.3,0.2c-0.4,1.5-1.7,2.6-3.6,2.6
			c-2.5,0-3.9-2-3.9-4.4c0-3,1.7-5,4.1-5C30.1,292.9,31.3,294.5,31.3,296.7z M25.2,296.4h4.5c0-1.6-0.7-2.7-2.1-2.7
			C26.2,293.8,25.4,295,25.2,296.4z"/>
		<path class="st3" d="M36.6,301.1l-0.1-2.8h0.6c0.5,1.8,1.5,3.1,3.3,3.1c1.6,0,2.6-0.8,2.6-2.2c0-1.2-0.8-1.7-2.8-2.5
			c-2.3-0.8-3.5-1.6-3.5-3.6c0-1.8,1.3-3.2,3.7-3.2c1.4,0,2.6,0.5,3.5,1.1v2.6h-0.6c-0.4-1.6-1.4-2.8-3.1-2.8
			c-1.4,0-2.2,0.8-2.2,1.9c0,1.2,0.6,1.7,2.7,2.5c2.5,0.9,3.7,1.8,3.7,3.7c0,2.2-1.9,3.4-4.2,3.4C38.7,302.3,37.3,301.7,36.6,301.1z
			"/>
		<path class="st3" d="M48.3,293.1h2.6v0.9h-2.6v6c0,0.9,0.4,1.3,1.3,1.3c0.5,0,1.1-0.2,1.5-0.4l0.2,0.4c-0.6,0.6-1.5,1.1-2.6,1.1
			c-1.2,0-2-0.6-2-2V294h-1.3v-0.5c0.9-0.5,1.6-1.2,2.4-2.3h0.4V293.1z"/>
		<path class="st3" d="M58.9,300c0,0.7,0.3,1.2,0.8,1.2c0.2,0,0.5,0,0.8-0.1l0.1,0.4c-0.6,0.6-1.1,0.8-1.7,0.8
			c-0.9,0-1.3-0.6-1.4-1.5c-0.6,0.7-1.6,1.5-2.8,1.5c-1.5,0-2.3-1.1-2.3-2.3c0-1.6,1.3-2.1,2.4-2.5l2.7-1v-0.8c0-1-0.4-1.9-1.7-1.9
			c-0.9,0-1.4,0.4-1.4,1.3c0,0.3,0,0.5,0.1,0.9l-1.3,0.2c-0.2-0.2-0.4-0.5-0.4-0.9c0-1.4,1.4-2.2,3.2-2.2c2,0,2.9,1,2.9,2.9
			C58.9,296.3,58.9,299.3,58.9,300z M57.3,300.3v-3l-2.4,0.9c-0.6,0.2-1,0.7-1,1.4c0,1,0.5,1.5,1.4,1.5
			C56,301.1,56.6,300.8,57.3,300.3z"/>
		<path class="st3" d="M68.9,290.3c0.5-0.7,1.4-1.2,2.5-1.2c1.2,0,1.9,0.5,1.9,1.3c0,0.4-0.2,0.7-0.5,0.9H72v-0.4
			c0-0.6-0.2-1.1-0.9-1.1c-0.9,0-1.3,0.9-1.3,2.5v0.9H72v0.9h-2.2v6.5c0,0.9,0.4,0.9,1.6,1v0.6h-4.5v-0.6c0.7-0.1,1.3-0.2,1.3-1V294
			h-4v6.5c0,0.8,0.5,0.9,1.3,1v0.6h-4.2v-0.6c0.7-0.1,1.3-0.2,1.3-1V294h-1.3v-0.6l1.3-0.4v-0.2c0-2.1,1.6-3.5,3.6-3.5
			C67.4,289.3,68.4,289.7,68.9,290.3z M68.3,291.5c-0.4-0.8-1.2-1.5-2.2-1.5c-1.2,0-2,0.8-2,2.4v0.8h4v-0.4
			C68.2,292.3,68.2,291.9,68.3,291.5z"/>
		<path class="st3" d="M72.9,297.6v-1.3h4.4v1.3H72.9z"/>
		<path class="st3" d="M79.2,301.1l-0.1-2.8h0.6c0.5,1.8,1.5,3.1,3.3,3.1c1.6,0,2.6-0.8,2.6-2.2c0-1.2-0.8-1.7-2.8-2.5
			c-2.3-0.8-3.5-1.6-3.5-3.6c0-1.8,1.3-3.2,3.7-3.2c1.4,0,2.6,0.5,3.5,1.1v2.6h-0.6c-0.4-1.6-1.4-2.8-3.1-2.8
			c-1.4,0-2.2,0.8-2.2,1.9c0,1.2,0.6,1.7,2.7,2.5c2.5,0.9,3.7,1.8,3.7,3.7c0,2.2-1.9,3.4-4.2,3.4C81.3,302.3,79.9,301.7,79.2,301.1z
			"/>
		<path class="st3" d="M90.9,293.1h2.6v0.9h-2.6v6c0,0.9,0.4,1.3,1.3,1.3c0.5,0,1.1-0.2,1.5-0.4l0.2,0.4c-0.6,0.6-1.5,1.1-2.6,1.1
			c-1.2,0-2-0.6-2-2V294h-1.3v-0.5c0.9-0.5,1.6-1.2,2.4-2.3h0.4V293.1z"/>
		<path class="st3" d="M101.3,300.6c-0.8,0.8-1.8,1.7-3.2,1.7c-1.5,0-2.4-0.8-2.4-2.8v-4.7c0-0.6-0.2-0.8-1-0.9l-0.3,0v-0.6l2.6-0.4
			h0.3v6.3c0,1.2,0.5,1.8,1.6,1.8c0.9,0,1.8-0.4,2.4-0.9v-5.3c0-0.6-0.2-0.8-1-0.9l-0.3,0v-0.6l2.6-0.4h0.3v7.3c0,0.6,0.2,0.7,1,0.8
			l0.4,0.1v0.6l-2.7,0.6h-0.2V300.6z"/>
		<path class="st3" d="M111.9,300.8c-0.7,0.9-1.5,1.5-2.8,1.5c-2.3,0-3.6-1.9-3.6-4.2c0-3.1,1.9-5.1,4.3-5.1c0.9,0,1.7,0.4,2.1,0.9
			V291l-1.2-0.6V290l2.4-0.8h0.4v11.1c0,0.6,0.2,0.7,1,0.8l0.4,0.1v0.6l-2.7,0.6h-0.3V300.8z M107,297.4c0,1.9,0.8,3.7,2.7,3.7
			c0.9,0,1.7-0.3,2.2-0.9v-4.2c0-1.6-0.9-2.4-2.2-2.4C108.1,293.7,107,295.2,107,297.4z"/>
		<path class="st3" d="M123.5,296.7v0.5h-6.1c0,2.2,1.2,3.7,3.1,3.7c1.3,0,2.1-0.6,2.7-1.5l0.3,0.2c-0.4,1.5-1.7,2.6-3.6,2.6
			c-2.5,0-3.9-2-3.9-4.4c0-3,1.7-5,4.1-5C122.3,292.9,123.5,294.5,123.5,296.7z M117.5,296.4h4.5c0-1.6-0.7-2.7-2.1-2.7
			C118.5,293.8,117.6,295,117.5,296.4z"/>
		<path class="st3" d="M131.8,295.8c0-1.2-0.5-1.6-1.6-1.6c-0.9,0-1.9,0.4-2.5,0.9v5.5c0,0.8,0.5,0.9,1.3,1v0.6h-4.2v-0.6
			c0.7-0.1,1.3-0.2,1.3-1v-5.8l-1.2-0.6v-0.4l2.4-0.9h0.4v1.7c0.8-0.8,1.9-1.7,3.3-1.7c1.5,0,2.4,0.8,2.4,2.8v4.8
			c0,0.8,0.6,0.9,1.3,1v0.6h-4.2v-0.6c0.7-0.1,1.3-0.2,1.3-1V295.8z"/>
		<path class="st3" d="M138.2,293.1h2.6v0.9h-2.6v6c0,0.9,0.4,1.3,1.3,1.3c0.5,0,1.1-0.2,1.5-0.4l0.2,0.4c-0.6,0.6-1.5,1.1-2.6,1.1
			c-1.2,0-2-0.6-2-2V294h-1.3v-0.5c0.9-0.5,1.6-1.2,2.4-2.3h0.4V293.1z"/>
		<path class="st3" d="M155.3,298.4h0.6l-0.4,2.9c-1.1,0.6-2.2,0.9-4,0.9c-3.4,0-5.6-2.5-5.6-5.9c0-4,2.6-6.4,5.9-6.4
			c1.8,0,2.9,0.5,3.7,1.1v2.6h-0.6c-0.5-2-1.6-2.8-3.2-2.8c-2.7,0-3.9,2.3-3.9,5c0,3.1,1.4,5.5,4.1,5.5
			C153.7,301.4,154.6,300.4,155.3,298.4z"/>
		<path class="st3" d="M157.6,297.8c0-2.9,1.9-4.8,4.2-4.8c2.5,0,4.1,1.9,4.1,4.5c0,2.9-1.9,4.8-4.2,4.8
			C159.2,302.3,157.6,300.4,157.6,297.8z M164.3,297.7c0-2.1-1-3.9-2.7-3.9c-1.6,0-2.4,1.5-2.4,3.7c0,2.1,1,3.9,2.7,3.9
			C163.5,301.4,164.3,299.9,164.3,297.7z"/>
		<path class="st3" d="M178.1,302.1v-0.6c0.8-0.1,1.3-0.2,1.3-1v-4.7c0-1.2-0.4-1.6-1.5-1.6c-0.9,0-1.7,0.4-2.4,0.9v5.5
			c0,0.8,0.6,0.9,1.3,1v0.6h-4.2v-0.6c0.8-0.1,1.3-0.2,1.3-1v-4.7c0-1.2-0.4-1.6-1.5-1.6c-0.9,0-1.8,0.4-2.4,0.9v5.5
			c0,0.8,0.5,0.9,1.3,1v0.6h-4.2v-0.6c0.7-0.1,1.3-0.2,1.3-1v-5.8l-1.2-0.6v-0.4l2.4-0.9h0.4v1.7c0.8-0.8,1.8-1.7,3.2-1.7
			c1.2,0,1.9,0.5,2.2,1.7c0.8-0.8,1.9-1.7,3.2-1.7c1.5,0,2.3,0.9,2.3,2.8v4.8c0,0.8,0.6,0.9,1.3,1v0.6H178.1z"/>
		<path class="st3" d="M194.2,302.1v-0.6c0.8-0.1,1.3-0.2,1.3-1v-4.7c0-1.2-0.4-1.6-1.5-1.6c-0.9,0-1.7,0.4-2.4,0.9v5.5
			c0,0.8,0.6,0.9,1.3,1v0.6h-4.2v-0.6c0.8-0.1,1.3-0.2,1.3-1v-4.7c0-1.2-0.4-1.6-1.5-1.6c-0.9,0-1.8,0.4-2.4,0.9v5.5
			c0,0.8,0.5,0.9,1.3,1v0.6h-4.2v-0.6c0.7-0.1,1.3-0.2,1.3-1v-5.8l-1.2-0.6v-0.4l2.4-0.9h0.4v1.7c0.8-0.8,1.8-1.7,3.2-1.7
			c1.2,0,1.9,0.5,2.2,1.7c0.8-0.8,1.9-1.7,3.2-1.7c1.5,0,2.3,0.9,2.3,2.8v4.8c0,0.8,0.6,0.9,1.3,1v0.6H194.2z"/>
		<path class="st3" d="M202.4,300.5c0,0.8,0.5,0.9,1.3,1v0.6h-4.2v-0.6c0.7-0.1,1.3-0.2,1.3-1v-5.8l-1.2-0.6v-0.4l2.4-0.9h0.4V300.5
			z M200.4,290.6c0-0.6,0.5-1.1,1.1-1.1s1.1,0.5,1.1,1.1s-0.5,1.1-1.1,1.1S200.4,291.2,200.4,290.6z"/>
		<path class="st3" d="M207.3,293.1h2.6v0.9h-2.6v6c0,0.9,0.4,1.3,1.3,1.3c0.5,0,1.1-0.2,1.5-0.4l0.2,0.4c-0.6,0.6-1.5,1.1-2.6,1.1
			c-1.2,0-2-0.6-2-2V294h-1.3v-0.5c0.9-0.5,1.6-1.2,2.4-2.3h0.4V293.1z"/>
		<path class="st3" d="M213.6,293.1h2.6v0.9h-2.6v6c0,0.9,0.4,1.3,1.3,1.3c0.5,0,1.1-0.2,1.5-0.4l0.2,0.4c-0.6,0.6-1.5,1.1-2.6,1.1
			c-1.2,0-2-0.6-2-2V294h-1.3v-0.5c0.9-0.5,1.6-1.2,2.4-2.3h0.4V293.1z"/>
		<path class="st3" d="M225,296.7v0.5h-6.1c0,2.2,1.2,3.7,3.1,3.7c1.3,0,2.1-0.6,2.7-1.5l0.3,0.2c-0.4,1.5-1.7,2.6-3.6,2.6
			c-2.5,0-3.9-2-3.9-4.4c0-3,1.7-5,4.1-5C223.8,292.9,225,294.5,225,296.7z M218.9,296.4h4.5c0-1.6-0.7-2.7-2.1-2.7
			C219.9,293.8,219.1,295,218.9,296.4z"/>
		<path class="st3" d="M233.9,296.7v0.5h-6.1c0,2.2,1.2,3.7,3.1,3.7c1.3,0,2.1-0.6,2.7-1.5l0.3,0.2c-0.4,1.5-1.7,2.6-3.6,2.6
			c-2.5,0-3.9-2-3.9-4.4c0-3,1.7-5,4.1-5C232.7,292.9,233.9,294.5,233.9,296.7z M227.9,296.4h4.5c0-1.6-0.7-2.7-2.1-2.7
			C228.9,293.8,228,295,227.9,296.4z"/>
		<path class="st3" d="M26.2,317.3c0.1-0.3,0.2-0.5,0.2-0.7c0-0.5-0.4-0.7-1.6-0.7v-0.7h3.7v0.7c-0.5,0.1-0.9,0.1-1,0.6l-3.9,10.8
			h-0.5l-2.6-7.3l-2.6,7.3h-0.5l-4-10.8c-0.2-0.5-0.6-0.6-1-0.6v-0.7h4.5v0.7c-1.2,0-1.6,0.2-1.6,0.7c0,0.2,0.1,0.4,0.2,0.7l2.6,7.3
			l2-5.9l-0.8-2.2c-0.2-0.5-0.6-0.6-1-0.6v-0.7h4.4v0.7c-1.2,0-1.6,0.2-1.6,0.7c0,0.2,0.1,0.4,0.2,0.7l2.4,7.3L26.2,317.3z"/>
		<path class="st3" d="M28.4,322.8c0-2.9,1.9-4.8,4.2-4.8c2.5,0,4.1,1.9,4.1,4.5c0,2.9-1.9,4.8-4.2,4.8
			C30.1,327.3,28.4,325.4,28.4,322.8z M35.2,322.7c0-2.1-1-3.9-2.7-3.9c-1.6,0-2.4,1.5-2.4,3.7c0,2.1,1,3.9,2.7,3.9
			C34.4,326.4,35.2,324.9,35.2,322.7z"/>
		<path class="st3" d="M41,320.6c1.1-2,1.5-2.7,2.6-2.7c0.3,0,0.5,0.1,0.6,0.2v1.5h-0.4c-1.1,0-1.7,0.2-2.8,1.5v4.3
			c0,0.9,0.4,0.9,1.6,1v0.6h-4.5v-0.6c0.7-0.1,1.3-0.2,1.3-1v-5.8l-1.2-0.6v-0.4l2.3-0.9H41V320.6z"/>
		<path class="st3" d="M47.9,325.5c0,0.8,0.6,0.9,1.3,1v0.6H45v-0.6c0.8-0.1,1.3-0.2,1.3-1V316l-1.2-0.6V315l2.4-0.8h0.4V325.5z
			 M50.9,319.6c0.2-0.2,0.3-0.3,0.3-0.5c0-0.3-0.3-0.3-1.3-0.5v-0.6h3.9v0.6c-0.7,0.2-1,0.3-1.4,0.6l-2.7,2.5l4.4,4.8v0.5h-1.7
			l-4.3-4.8L50.9,319.6z"/>
		<path class="st3" d="M68,323.4h0.6l-0.4,2.9c-1.1,0.6-2.2,0.9-4,0.9c-3.4,0-5.6-2.5-5.6-5.9c0-4,2.6-6.4,5.9-6.4
			c1.8,0,2.9,0.5,3.7,1.1v2.6h-0.6c-0.5-2-1.6-2.8-3.2-2.8c-2.7,0-3.9,2.3-3.9,5c0,3.1,1.4,5.5,4.1,5.5
			C66.4,326.4,67.3,325.4,68,323.4z"/>
		<path class="st3" d="M70.3,322.8c0-2.9,1.9-4.8,4.2-4.8c2.5,0,4.1,1.9,4.1,4.5c0,2.9-1.9,4.8-4.2,4.8
			C71.9,327.3,70.3,325.4,70.3,322.8z M77,322.7c0-2.1-1-3.9-2.7-3.9c-1.6,0-2.4,1.5-2.4,3.7c0,2.1,1,3.9,2.7,3.9
			C76.2,326.4,77,324.9,77,322.7z"/>
		<path class="st3" d="M80.2,322.8c0-2.9,1.9-4.8,4.2-4.8c2.5,0,4.1,1.9,4.1,4.5c0,2.9-1.9,4.8-4.2,4.8
			C81.8,327.3,80.2,325.4,80.2,322.8z M86.9,322.7c0-2.1-1-3.9-2.7-3.9c-1.6,0-2.4,1.5-2.4,3.7c0,2.1,1,3.9,2.7,3.9
			C86.1,326.4,86.9,324.9,86.9,322.7z"/>
		<path class="st3" d="M92.5,328.9c0,0.8,0.6,0.9,1.3,1v0.6h-4.2v-0.6c0.8-0.1,1.3-0.2,1.3-1v-9.2l-1.2-0.6v-0.4l2.4-0.9h0.4v1.5
			c0.7-0.9,1.6-1.5,2.9-1.5c2.3,0,3.5,1.9,3.5,4.2c0,3.1-2,5.1-4.2,5.1c-1.1,0-1.9-0.4-2.2-0.9V328.9z M97.4,322.9
			c0-1.9-0.7-3.8-2.7-3.8c-0.8,0-1.7,0.3-2.2,0.8v4.2c0,1.6,0.9,2.4,2.2,2.4C96.3,326.5,97.4,325.1,97.4,322.9z"/>
		<path class="st3" d="M107.9,321.7v0.5h-6.1c0,2.2,1.2,3.7,3.1,3.7c1.3,0,2.1-0.6,2.7-1.5l0.3,0.2c-0.4,1.5-1.7,2.6-3.6,2.6
			c-2.5,0-3.9-2-3.9-4.4c0-3,1.7-5,4.1-5C106.8,317.9,107.9,319.5,107.9,321.7z M101.9,321.4h4.5c0-1.6-0.7-2.7-2.1-2.7
			C102.9,318.8,102.1,320,101.9,321.4z"/>
		<path class="st3" d="M112.2,320.6c1.1-2,1.5-2.7,2.6-2.7c0.3,0,0.5,0.1,0.6,0.2v1.5H115c-1.1,0-1.7,0.2-2.8,1.5v4.3
			c0,0.9,0.4,0.9,1.6,1v0.6h-4.5v-0.6c0.7-0.1,1.3-0.2,1.3-1v-5.8l-1.2-0.6v-0.4l2.3-0.9h0.4V320.6z"/>
		<path class="st3" d="M123,325c0,0.7,0.3,1.2,0.8,1.2c0.2,0,0.5,0,0.8-0.1l0.1,0.4c-0.6,0.6-1.1,0.8-1.7,0.8
			c-0.9,0-1.3-0.6-1.4-1.5c-0.6,0.7-1.6,1.5-2.8,1.5c-1.5,0-2.3-1.1-2.3-2.3c0-1.6,1.3-2.1,2.4-2.5l2.7-1v-0.8c0-1-0.4-1.9-1.7-1.9
			c-0.9,0-1.4,0.4-1.4,1.3c0,0.3,0,0.5,0.1,0.9l-1.3,0.2c-0.2-0.2-0.4-0.5-0.4-0.9c0-1.4,1.4-2.2,3.2-2.2c2,0,2.9,1,2.9,2.9
			C123,321.3,123,324.3,123,325z M121.5,325.3v-3l-2.4,0.9c-0.6,0.2-1,0.7-1,1.4c0,1,0.5,1.5,1.4,1.5
			C120.2,326.1,120.7,325.8,121.5,325.3z"/>
		<path class="st3" d="M127.8,318.1h2.6v0.9h-2.6v6c0,0.9,0.4,1.3,1.3,1.3c0.5,0,1.1-0.2,1.5-0.4l0.2,0.4c-0.6,0.6-1.5,1.1-2.6,1.1
			c-1.2,0-2-0.6-2-2V319H125v-0.5c0.9-0.5,1.6-1.2,2.4-2.3h0.4V318.1z"/>
		<path class="st3" d="M134.6,325.5c0,0.8,0.5,0.9,1.3,1v0.6h-4.2v-0.6c0.7-0.1,1.3-0.2,1.3-1v-5.8l-1.2-0.6v-0.4l2.4-0.9h0.4V325.5
			z M132.6,315.6c0-0.6,0.5-1.1,1.1-1.1s1.1,0.5,1.1,1.1s-0.5,1.1-1.1,1.1S132.6,316.2,132.6,315.6z"/>
		<path class="st3" d="M137.2,322.8c0-2.9,1.9-4.8,4.2-4.8c2.5,0,4.1,1.9,4.1,4.5c0,2.9-1.9,4.8-4.2,4.8
			C138.8,327.3,137.2,325.4,137.2,322.8z M143.9,322.7c0-2.1-1-3.9-2.7-3.9c-1.6,0-2.4,1.5-2.4,3.7c0,2.1,1,3.9,2.7,3.9
			C143.1,326.4,143.9,324.9,143.9,322.7z"/>
		<path class="st3" d="M153.8,320.8c0-1.2-0.5-1.6-1.6-1.6c-0.9,0-1.9,0.4-2.5,0.9v5.5c0,0.8,0.5,0.9,1.3,1v0.6h-4.2v-0.6
			c0.7-0.1,1.3-0.2,1.3-1v-5.8l-1.2-0.6v-0.4l2.4-0.9h0.4v1.7c0.8-0.8,1.9-1.7,3.3-1.7c1.5,0,2.4,0.8,2.4,2.8v4.8
			c0,0.8,0.6,0.9,1.3,1v0.6h-4.2v-0.6c0.7-0.1,1.3-0.2,1.3-1V320.8z"/>
		<path class="st3" d="M171,323.4h0.6l-0.4,2.9c-1.1,0.6-2.2,0.9-4,0.9c-3.4,0-5.6-2.5-5.6-5.9c0-4,2.6-6.4,5.9-6.4
			c1.8,0,2.9,0.5,3.7,1.1v2.6h-0.6c-0.5-2-1.6-2.8-3.2-2.8c-2.7,0-3.9,2.3-3.9,5c0,3.1,1.4,5.5,4.1,5.5
			C169.4,326.4,170.4,325.4,171,323.4z"/>
		<path class="st3" d="M173.3,322.8c0-2.9,1.9-4.8,4.2-4.8c2.5,0,4.1,1.9,4.1,4.5c0,2.9-1.9,4.8-4.2,4.8
			C174.9,327.3,173.3,325.4,173.3,322.8z M180,322.7c0-2.1-1-3.9-2.7-3.9c-1.6,0-2.4,1.5-2.4,3.7c0,2.1,1,3.9,2.7,3.9
			C179.2,326.4,180,324.9,180,322.7z"/>
		<path class="st3" d="M189.5,325.6c-0.8,0.8-1.8,1.7-3.2,1.7c-1.5,0-2.4-0.8-2.4-2.8v-4.7c0-0.6-0.2-0.8-1-0.9l-0.3,0v-0.6l2.6-0.4
			h0.3v6.3c0,1.2,0.5,1.8,1.6,1.8c0.9,0,1.8-0.4,2.4-0.9v-5.3c0-0.6-0.2-0.8-1-0.9l-0.3,0v-0.6l2.6-0.4h0.3v7.3c0,0.6,0.2,0.7,1,0.8
			l0.4,0.1v0.6l-2.7,0.6h-0.2V325.6z"/>
		<path class="st3" d="M200.6,320.8c0-1.2-0.5-1.6-1.6-1.6c-0.9,0-1.9,0.4-2.5,0.9v5.5c0,0.8,0.5,0.9,1.3,1v0.6h-4.2v-0.6
			c0.7-0.1,1.3-0.2,1.3-1v-5.8l-1.2-0.6v-0.4l2.4-0.9h0.4v1.7c0.8-0.8,1.9-1.7,3.3-1.7c1.5,0,2.4,0.8,2.4,2.8v4.8
			c0,0.8,0.6,0.9,1.3,1v0.6h-4.2v-0.6c0.7-0.1,1.3-0.2,1.3-1V320.8z"/>
		<path class="st3" d="M209.1,326c1.2,0,1.9-0.5,2.6-1.4l0.3,0.2c-0.5,1.7-1.7,2.6-3.5,2.6c-2.3,0-3.9-1.8-3.9-4.4
			c0-2.7,1.7-5,4.4-5c1.8,0,2.9,0.8,2.9,2.1c0,0.6-0.3,0.8-0.7,1h-0.9v-0.6c0-1-0.5-1.7-1.5-1.7c-1.6,0-2.7,1.5-2.7,3.5
			C206.1,324.5,207.2,326,209.1,326z"/>
		<path class="st3" d="M216.1,325.5c0,0.8,0.5,0.9,1.3,1v0.6h-4.2v-0.6c0.7-0.1,1.3-0.2,1.3-1v-5.8l-1.2-0.6v-0.4l2.4-0.9h0.4V325.5
			z M214.2,315.6c0-0.6,0.5-1.1,1.1-1.1s1.1,0.5,1.1,1.1s-0.5,1.1-1.1,1.1S214.2,316.2,214.2,315.6z"/>
		<path class="st3" d="M221.5,325.5c0,0.8,0.6,0.9,1.3,1v0.6h-4.2v-0.6c0.8-0.1,1.3-0.2,1.3-1V316l-1.2-0.6V315l2.4-0.8h0.4V325.5z"
			/>
	</g>
	<g>
		<path class="st5" d="M707.2,241.5c-53.8,0-97.5-43.7-97.5-97.5s43.7-97.5,97.5-97.5c53.8,0,97.5,43.7,97.5,97.5
			S761,241.5,707.2,241.5z"/>
	</g>
	<g>
		<path class="st3" d="M636.6,130.9h3.1l5.2,11.8h-3.2l-1-2.4h-5.1l-0.9,2.4h-3L636.6,130.9z M638,134l-1.6,4.3h3.5L638,134z"/>
		<path class="st3" d="M653.8,131h2.9v11.7h-2.9v-1.2c-0.7,0.8-1.8,1.4-3.2,1.4c-2.5,0-4.3-2-4.3-4.4c0-3,2.6-4.4,4.5-4.4
			c1,0,2.1,0.4,3.1,1.2V131z M651.3,135.8c-1.3,0-2,1.1-2,2.7c0,1.5,0.6,2.6,2.1,2.6c1,0,2.1-0.8,2.1-2.7
			C653.4,136.8,652.5,135.8,651.3,135.8z"/>
		<path class="st3" d="M659.7,134.4h2.8v1.7c0.7-1.4,2-1.9,3.3-1.9c1.4,0,2.7,0.7,3.2,2c0.7-1.2,2.1-2,3.5-2c1.9,0,3.5,1.2,3.5,3.8
			v4.7h-2.9v-4.4c0-1.3-0.7-1.9-1.4-1.9c-1.4,0-2.4,1.1-2.4,2.8v3.5h-2.9v-4.2c0-1.4-0.6-2-1.5-2c-1.2,0-2.4,1.1-2.4,2.9v3.3h-2.9
			V134.4z"/>
		<path class="st3" d="M679,131h2.9v2.2H679V131z M679,134.4h2.9v8.3H679V134.4z"/>
		<path class="st3" d="M684.8,134.4h2.9v1.8c0.6-1.4,1.9-2,3.4-2c2.4,0,3.5,1.7,3.5,3.3v5.2h-2.9v-4.4c0-1.3-0.6-1.9-1.5-1.9
			c-1.2,0-2.4,1-2.4,3v3.3h-2.9V134.4z"/>
		<path class="st3" d="M697.4,131h2.9v2.2h-2.9V131z M697.4,134.4h2.9v8.3h-2.9V134.4z"/>
		<path class="st3" d="M705,140.4c0.2,0.4,0.4,0.6,0.7,0.8c0.3,0.1,0.7,0.2,1.1,0.2c1,0,1.6-0.2,1.6-0.7c0-0.1-0.1-0.3-0.2-0.4
			c-0.6-0.6-3.8-0.5-5.1-1.8c-0.4-0.4-0.6-1-0.6-1.5c0-1.5,1.4-2.9,4-2.9c2.7,0,4,1,4.2,2.7h-2.4c-0.1-0.5-0.6-1-1.7-1
			c-0.9,0-1.3,0.3-1.3,0.6c0,0.1,0.1,0.3,0.1,0.3c0.6,0.7,3.4,0.4,4.7,1.7c0.5,0.5,0.7,1.2,0.7,1.8c0,0.5-0.2,2.7-4.2,2.7
			c-3.9,0-4.3-1.9-4.3-2.6H705z"/>
		<path class="st3" d="M719.4,142.6c-0.6,0.2-1.4,0.3-2.4,0.3c-1.9,0-3-0.8-3-2v-4.4h-1.9v-2.1h2l0.5-3h2.3v3h2.5v2.1h-2.5v3.3
			c0,0.9,0.2,1.2,1.3,1.2c0.3,0,0.8,0,1.2-0.2V142.6z"/>
		<path class="st3" d="M724.5,136.7c0.6-1.4,1.6-2.5,3.2-2.5h0.6v2.7h-0.4c-1.5,0-2.2,0.2-2.7,0.7c-0.5,0.5-0.7,1.1-0.7,1.7v3.3
			h-2.9v-8.3h2.9V136.7z"/>
		<path class="st3" d="M729.6,137c0-0.6,0.3-1.2,0.7-1.6c0.7-0.7,1.6-1.3,4.1-1.3c3.9,0,4.3,1.8,4.3,3.2v2.8c0,0.7,0.2,1,1,1
			c0.3,0,0.7-0.1,1.2-0.2v1.7c-1.2,0.4-1.8,0.4-2.3,0.4c-1.4,0-2.3-0.5-2.7-1.5c-1,1.1-2.7,1.5-3.9,1.5c-1.8,0-2.8-1.2-2.8-2.4
			c0-0.6,0.2-1.1,0.6-1.5c1.2-1.2,3.6-1,6.2-1.6v-0.3c0-0.8-0.6-1.4-2-1.4c-1,0-1.6,0.4-1.8,1.2H729.6z M735.8,138.5
			c-1.9,0.3-3.7,0.4-3.7,1.7c0,0.5,0.4,1,1.3,1c0.8,0,2-0.5,2.4-1.6V138.5z"/>
		<path class="st3" d="M748.1,142.6c-0.6,0.2-1.4,0.3-2.4,0.3c-1.9,0-3-0.8-3-2v-4.4h-1.9v-2.1h2l0.5-3h2.3v3h2.5v2.1h-2.5v3.3
			c0,0.9,0.2,1.2,1.3,1.2c0.3,0,0.8,0,1.2-0.2V142.6z"/>
		<path class="st3" d="M750.4,131h2.9v2.2h-2.9V131z M750.4,134.4h2.9v8.3h-2.9V134.4z"/>
		<path class="st3" d="M760.8,134.1c3.2,0,5.1,1.9,5.1,4.4c0,2.8-2.4,4.5-5.1,4.5c-3.2,0-5-2.2-5-4.5
			C755.7,136,757.8,134.1,760.8,134.1z M762.8,138.5c0-1.4-0.7-2.4-2-2.4c-1.3,0-2,0.9-2,2.4c0,1.4,0.6,2.4,2,2.4
			C762.1,140.9,762.8,139.8,762.8,138.5z"/>
		<path class="st3" d="M768.3,134.4h2.9v1.8c0.6-1.4,1.9-2,3.4-2c2.4,0,3.5,1.7,3.5,3.3v5.2h-2.9v-4.4c0-1.3-0.6-1.9-1.5-1.9
			c-1.2,0-2.4,1-2.4,3v3.3h-2.9V134.4z"/>
		<path class="st3" d="M670.7,163c-0.5,0.2-1.1,0.3-1.8,0.3c-1.4,0-2.6-0.5-3.7-1.4c-1.9,1.3-3.4,1.4-4.6,1.4c-4,0-4.3-2.4-4.3-2.9
			c0-0.8,0.4-2.5,4-3.7c-0.5-0.7-0.8-1.4-0.8-2.3c0-1.2,1.1-3.1,3.4-3.1c2.5,0,3.4,1.5,3.4,2.8c0,1-0.7,2.3-2.3,2.8
			c0.6,0.7,1.2,1.2,1.8,1.8c0.7-0.6,1.3-1.7,1.6-2.4h2.1c-0.5,1.5-1.3,2.8-2.3,3.7c1,0.9,2,1.3,3.1,1.3h0.4V163z M661.3,158.1
			c-1.4,0.6-1.8,1.1-1.8,1.7c0,0.8,0.8,1.4,2,1.4c0.9,0,1.7-0.3,2.2-0.7L661.3,158.1z M661.9,154.1c0,0.5,0.5,1.2,0.9,1.5
			c1.3-0.4,1.6-1,1.6-1.5c0-0.7-0.6-1.2-1.3-1.2C662.4,152.9,661.9,153.4,661.9,154.1z"/>
		<path class="st3" d="M677.6,151.4h9.8v2.6h-6.6v2h5.3v2.5h-5.3v4.6h-3.2V151.4z"/>
		<path class="st3" d="M689,151.4h2.9v2.2H689V151.4z M689,154.8h2.9v8.3H689V154.8z"/>
		<path class="st3" d="M694.9,154.8h2.9v1.8c0.6-1.4,1.9-2,3.4-2c2.4,0,3.5,1.7,3.5,3.3v5.2h-2.9v-4.4c0-1.3-0.6-1.9-1.5-1.9
			c-1.2,0-2.4,1-2.4,3v3.3h-2.9V154.8z"/>
		<path class="st3" d="M707.5,157.4c0-0.6,0.3-1.2,0.7-1.6c0.7-0.7,1.6-1.3,4.1-1.3c3.9,0,4.3,1.8,4.3,3.2v2.8c0,0.7,0.2,1,1,1
			c0.3,0,0.7-0.1,1.2-0.2v1.7c-1.2,0.4-1.8,0.4-2.3,0.4c-1.4,0-2.3-0.5-2.7-1.5c-1,1.1-2.7,1.5-3.9,1.5c-1.8,0-2.8-1.2-2.8-2.4
			c0-0.6,0.2-1.1,0.6-1.5c1.2-1.2,3.6-1,6.2-1.6v-0.3c0-0.8-0.6-1.4-2-1.4c-1,0-1.6,0.4-1.8,1.2H707.5z M713.8,158.9
			c-1.9,0.3-3.7,0.4-3.7,1.7c0,0.5,0.4,1,1.3,1c0.8,0,2-0.5,2.4-1.6V158.9z"/>
		<path class="st3" d="M720.6,154.8h2.9v1.8c0.6-1.4,1.9-2,3.4-2c2.4,0,3.5,1.7,3.5,3.3v5.2h-2.9v-4.4c0-1.3-0.6-1.9-1.5-1.9
			c-1.2,0-2.4,1-2.4,3v3.3h-2.9V154.8z"/>
		<path class="st3" d="M739.5,157.7c-0.3-0.8-0.9-1.2-1.9-1.2c-1.1,0-2,0.8-2,2.6c0,1.6,0.9,2.4,2,2.4c1,0,1.7-0.4,2.1-1.4h3
			c-0.3,1-1.4,3.3-5,3.3c-3.1,0-5.1-1.8-5.1-4.5c0-2.5,2.1-4.5,5.1-4.5c3.5,0,4.8,2.1,5,3.3H739.5z"/>
		<path class="st3" d="M754.5,160.7c-0.4,0.8-1.8,2.7-4.9,2.7c-4.1,0-5.2-2.7-5.2-4.4c0-2.4,2-4.5,5-4.5c3.3,0,5.1,2.4,5.2,4.9h-7.1
			c0.1,1.1,0.6,2.1,2.4,2.1c0.8,0,1.4-0.3,1.9-0.9H754.5z M751.6,158.1c-0.1-0.9-0.7-1.7-2-1.7c-1.1,0-1.9,0.7-2,1.7H751.6z"/>
	</g>
</g>
<g>
</g>
<g>
</g>
<g>
</g>
<g>
</g>
<g>
</g>
<g>
</g>
<g>
</g>
<g>
</g>
<g>
</g>
<g>
</g>
<g>
</g>
<g>
</g>
<g>
</g>
<g>
</g>
<g>
</g>
</svg>
