<?xml version="1.0" standalone="no"?>
<!DOCTYPE svg PUBLIC "-//W3C//DTD SVG 20010904//EN"
 "http://www.w3.org/TR/2001/REC-SVG-20010904/DTD/svg10.dtd">
<svg version="1.0" xmlns="http://www.w3.org/2000/svg"
 width="1024.000000pt" height="1024.000000pt" viewBox="0 0 1024.000000 1024.000000"
 preserveAspectRatio="xMidYMid meet">
<metadata>
Created by potrace 1.11, written by Peter Selinger 2001-2013
</metadata>
<g transform="translate(0.000000,1024.000000) scale(0.100000,-0.100000)"
fill="#000000" stroke="none">
<path d="M0 5120 l0 -5120 5120 0 5120 0 0 5120 0 5120 -5120 0 -5120 0 0
-5120z m5401 3810 c1347 -105 2524 -891 3128 -2090 211 -418 340 -857 393
-1335 17 -157 17 -613 0 -770 -124 -1122 -695 -2096 -1609 -2743 -516 -365
-1149 -601 -1808 -674 -157 -17 -613 -17 -770 0 -1322 146 -2447 924 -3032
2097 -205 410 -333 849 -385 1320 -17 157 -17 613 0 770 53 478 182 917 393
1335 527 1047 1500 1789 2651 2024 330 67 709 91 1039 66z"/>
<path d="M4910 8834 c-25 -2 -97 -9 -160 -15 -704 -66 -1384 -342 -1948 -791
-163 -130 -460 -427 -590 -590 -358 -449 -611 -982 -727 -1529 -187 -881 -54
-1800 371 -2573 173 -315 371 -575 643 -846 245 -244 439 -397 711 -561 1165
-702 2655 -702 3820 0 251 152 455 309 673 521 288 279 494 548 688 899 501
907 586 2048 224 3044 -132 365 -339 733 -587 1045 -130 163 -427 460 -590
590 -553 440 -1193 705 -1903 788 -125 14 -532 26 -625 18z m586 -79 c711 -75
1354 -340 1921 -791 126 -101 446 -421 547 -547 451 -567 716 -1210 791 -1921
20 -190 20 -562 0 -752 -65 -614 -277 -1193 -622 -1693 -237 -344 -601 -709
-943 -944 -414 -284 -888 -482 -1380 -576 -257 -49 -340 -55 -690 -55 -350 0
-433 6 -690 55 -592 113 -1149 373 -1619 756 -136 111 -413 388 -524 524 -403
495 -668 1081 -771 1709 -36 217 -46 352 -46 600 0 248 10 383 46 600 87 530
287 1026 591 1470 235 342 600 706 944 943 495 341 1075 555 1679 621 176 19
586 20 766 1z"/>
<path d="M4886 8719 c-1014 -65 -1946 -552 -2588 -1354 -863 -1077 -1029
-2573 -423 -3820 399 -823 1108 -1471 1965 -1798 811 -310 1746 -310 2560 0
469 179 875 440 1239 797 232 229 398 434 559 696 698 1130 703 2602 14 3738
-365 600 -896 1086 -1517 1387 -437 211 -870 324 -1370 355 -178 11 -251 11
-439 -1z m284 -93 c20 -8 15 -106 -6 -106 -8 0 -14 9 -14 20 0 38 -44 70 -95
70 -35 0 -52 -6 -70 -25 -24 -23 -25 -30 -25 -142 0 -151 7 -167 77 -171 66
-4 83 12 83 79 0 42 -3 49 -20 49 -11 0 -20 7 -20 15 0 12 14 15 70 15 56 0
70 -3 70 -15 0 -8 -7 -15 -15 -15 -12 0 -15 -16 -15 -80 0 -44 -4 -80 -9 -80
-5 0 -11 5 -13 10 -2 7 -23 6 -63 -5 -48 -12 -71 -13 -111 -5 -72 15 -102 50
-116 131 -22 127 11 231 82 257 34 12 178 11 210 -2z m237 -12 c36 -4 50 -9
47 -18 -3 -7 -16 -11 -33 -8 l-28 4 -13 -156 c-13 -162 -11 -186 14 -186 9 0
13 -6 11 -12 -5 -13 -100 -14 -153 -2 -28 6 -19 24 12 24 23 0 24 4 30 98 4
53 9 130 12 170 l6 72 -31 0 c-19 0 -31 5 -31 14 0 13 26 13 157 0z m-617 -59
c0 -64 -17 -73 -40 -22 -14 30 -18 32 -74 35 l-59 3 7 -73 c9 -85 15 -96 53
-82 20 7 29 18 33 38 8 47 27 41 34 -10 13 -97 3 -134 -22 -79 -9 18 -19 25
-41 25 -16 0 -32 -4 -35 -8 -3 -5 0 -39 6 -75 l11 -67 36 0 c50 0 83 20 100
58 23 51 43 42 39 -20 l-3 -52 -135 -17 c-74 -10 -138 -18 -142 -18 -5 -1 -8
6 -8 14 0 8 9 15 20 15 16 0 19 5 15 23 -2 12 -14 78 -25 147 -28 168 -26 163
-61 156 -21 -4 -29 -2 -29 8 0 10 23 18 73 27 93 15 174 26 215 28 l32 1 0
-55z m961 16 c86 -16 238 -50 246 -55 1 -1 -4 -24 -11 -51 -13 -51 -38 -68
-44 -30 -9 64 -19 73 -93 90 -24 6 -26 3 -38 -52 -7 -32 -15 -68 -18 -80 -5
-21 -1 -23 31 -23 27 0 39 6 52 25 9 14 21 25 26 25 11 0 7 -30 -13 -102 -10
-40 -29 -52 -29 -19 0 22 -16 37 -51 46 -24 6 -26 4 -37 -58 -16 -88 -18 -84
35 -95 53 -12 87 -3 103 28 15 29 44 27 36 -2 -4 -13 -9 -35 -12 -50 -4 -16
-11 -28 -17 -28 -6 0 -65 12 -131 26 -67 14 -132 28 -145 30 -28 6 -17 21 19
26 22 3 26 10 36 70 12 75 15 71 -61 82 -40 6 -40 6 -88 -61 l-47 -68 30 -3
c30 -3 39 -15 21 -27 -17 -10 -121 7 -121 20 0 7 8 15 18 17 19 5 238 302 225
305 -5 0 -20 4 -35 7 -31 7 -38 26 -10 26 10 0 65 -9 123 -19z m-1386 -47 c24
-9 45 -58 45 -103 0 -32 -6 -44 -31 -65 l-31 -26 34 0 c46 0 56 -9 76 -66 13
-36 24 -50 40 -52 34 -5 26 -30 -12 -37 -64 -12 -79 -5 -96 50 -8 28 -19 56
-23 63 -9 13 -83 17 -91 4 -3 -4 2 -36 11 -70 15 -60 16 -61 44 -55 21 4 29 2
29 -8 0 -15 -155 -63 -171 -53 -16 9 -10 24 10 24 11 0 22 4 25 8 2 4 -16 78
-41 164 l-46 157 -27 -6 c-47 -9 -44 15 2 27 24 6 70 20 103 30 62 19 122 24
150 14z m-455 -135 c0 -5 -6 -9 -13 -9 -7 0 -21 -6 -30 -12 -15 -12 -12 -26
42 -163 33 -82 63 -149 68 -148 39 7 46 7 50 -3 6 -17 -155 -80 -169 -66 -8 8
-4 14 14 22 l25 12 -60 144 c-34 79 -63 142 -64 140 -2 -2 4 -83 13 -181 14
-147 15 -178 4 -185 -10 -6 -54 29 -147 117 -73 69 -133 122 -133 117 1 -5 31
-65 68 -134 65 -120 73 -129 111 -119 7 2 15 -1 18 -7 5 -14 -105 -76 -118
-68 -15 9 -10 22 11 29 11 3 20 10 20 15 0 10 -151 290 -157 290 -2 0 -14 -5
-25 -11 -14 -7 -23 -8 -30 -1 -8 8 13 23 66 49 l76 37 105 -104 c119 -119 111
-125 91 65 -7 66 -11 123 -7 127 11 11 156 66 164 61 4 -2 7 -8 7 -14z m2478
-189 c2 -188 3 -196 25 -212 37 -28 10 -33 -51 -8 -31 13 -71 30 -89 37 -22 9
-31 18 -27 28 5 11 11 12 24 5 31 -17 40 -11 40 26 0 33 -3 37 -55 60 -70 30
-79 30 -105 -3 l-21 -28 21 -9 c18 -8 24 -24 10 -29 -16 -6 -130 38 -130 50 0
10 9 12 33 9 30 -5 38 1 162 134 73 78 137 139 145 137 13 -2 15 -33 18 -197z
m357 38 c22 -11 57 -34 77 -50 l38 -29 -23 -40 c-12 -21 -27 -39 -33 -39 -6 0
-14 21 -17 47 -6 58 -41 93 -92 93 -43 0 -89 -43 -128 -121 -49 -99 -49 -167
3 -194 39 -20 66 -19 101 6 38 27 54 17 34 -21 -20 -39 -19 -45 9 -58 21 -9
40 1 186 98 89 60 169 106 177 103 16 -6 16 -6 -36 -228 -25 -104 -35 -164
-29 -172 6 -7 7 -17 3 -22 -6 -11 -145 84 -145 100 0 13 24 11 38 -3 15 -15
27 -3 36 34 5 23 0 31 -50 66 l-57 40 -33 -21 c-34 -22 -34 -22 -13 -39 11
-10 18 -22 14 -28 -7 -11 -81 26 -120 60 -11 10 -36 23 -55 29 -153 49 -204
143 -145 269 37 80 64 112 109 133 47 22 88 18 151 -13z m-3365 -89 c0 -6 -9
-18 -21 -28 -20 -16 -20 -17 50 -135 79 -134 92 -173 66 -212 -23 -35 -103
-84 -138 -84 -43 0 -61 14 -113 87 -128 181 -123 176 -149 159 -21 -14 -35
-12 -35 4 0 3 34 30 75 59 51 35 82 51 93 46 14 -5 13 -9 -11 -23 -15 -9 -27
-19 -27 -22 1 -3 38 -59 83 -125 72 -104 87 -120 113 -123 19 -2 40 5 57 18
45 36 37 73 -44 205 l-71 115 -29 -15 c-25 -13 -29 -14 -29 -1 0 8 26 30 58
50 62 38 72 42 72 25z m2055 -30 c480 -50 957 -221 1351 -485 172 -115 304
-225 464 -384 500 -499 786 -1098 871 -1820 14 -123 14 -497 0 -620 -85 -720
-373 -1323 -871 -1820 -489 -490 -1095 -783 -1785 -865 -186 -22 -505 -22
-690 0 -386 46 -788 173 -1108 351 -256 143 -472 307 -687 524 -493 495 -780
1100 -861 1815 -15 131 -15 482 0 615 58 502 221 959 486 1355 223 333 532
640 864 859 395 261 872 429 1347 476 205 20 423 20 619 -1z m1930 -306 c89
-74 121 -132 106 -190 -22 -80 -119 -175 -191 -188 -44 -8 -93 17 -190 98 -66
55 -83 86 -40 72 15 -5 40 20 120 122 l101 128 -21 17 c-12 10 -19 22 -15 28
7 12 29 -2 130 -87z m-4425 30 c0 -4 -9 -16 -20 -28 l-20 -21 106 -127 105
-127 35 28 c39 31 49 57 40 107 -9 46 5 44 45 -7 l33 -41 -39 -31 c-21 -17
-72 -60 -113 -94 -51 -45 -78 -62 -90 -57 -15 6 -14 9 6 26 l24 19 -24 28
c-12 15 -61 71 -107 125 -84 96 -85 97 -109 81 -14 -9 -28 -12 -33 -7 -5 5 22
35 64 70 65 57 97 75 97 56z m4744 -334 c58 -62 106 -114 106 -118 0 -3 -19
-21 -41 -40 -28 -23 -44 -30 -51 -23 -7 7 -5 17 6 33 24 35 20 64 -15 104
l-31 35 -59 -51 c-49 -42 -57 -54 -48 -66 22 -26 48 -34 70 -22 13 7 25 7 30
2 6 -6 -11 -28 -45 -57 -34 -29 -57 -42 -61 -35 -4 6 -2 16 4 22 17 17 13 42
-9 62 -19 17 -21 16 -69 -26 -28 -24 -50 -49 -51 -55 0 -7 18 -28 41 -49 33
-30 46 -36 68 -31 69 17 74 6 20 -42 l-35 -31 -107 114 c-63 66 -103 116 -96
120 5 4 19 -1 30 -11 19 -17 23 -15 139 101 l120 119 -20 21 c-11 12 -20 24
-20 28 0 20 28 -3 124 -104z m-5031 65 l-16 -26 117 -116 117 -117 34 37 c36
39 44 73 24 110 -21 40 7 38 46 -2 l39 -40 -106 -107 c-65 -65 -110 -103 -118
-98 -8 5 -6 13 7 27 18 20 16 22 -102 134 l-120 113 -22 -21 c-12 -11 -27 -17
-33 -13 -8 5 13 33 61 81 70 71 106 89 72 38z m-158 -174 c-22 -24 -34 -10
126 -148 105 -90 107 -91 125 -71 11 12 21 16 27 10 10 -10 -87 -134 -109
-139 -18 -4 -18 8 0 33 13 19 6 26 -91 105 -166 135 -150 126 -172 99 -10 -13
-23 -19 -30 -15 -8 6 -1 21 25 54 66 83 97 113 108 102 6 -6 3 -17 -9 -30z
m5389 -124 l45 -59 -81 -119 c-44 -65 -79 -121 -76 -123 2 -2 26 2 53 11 28 8
89 25 137 38 l87 24 47 -75 c30 -49 43 -78 37 -84 -7 -7 -17 0 -29 20 l-19 30
-142 -87 -141 -86 14 -27 c11 -21 11 -28 1 -32 -11 -4 -107 133 -107 154 0 5
7 9 15 9 8 0 15 -5 15 -10 0 -30 39 -16 143 50 153 99 156 103 51 74 -269 -74
-263 -73 -273 -60 -8 10 16 54 95 171 59 86 100 153 92 149 -8 -5 -67 -49
-131 -99 -111 -87 -115 -91 -101 -112 17 -27 18 -33 1 -33 -18 0 -90 97 -82
110 5 8 14 5 29 -9 l21 -20 115 90 c153 120 148 114 126 138 -10 11 -15 25
-11 31 9 14 10 12 69 -64z m-5517 -94 c40 -35 32 -58 -14 -40 -26 10 -35 9
-57 -6 -32 -20 -66 -73 -66 -100 0 -38 159 -163 231 -181 21 -5 31 0 57 30 43
49 41 76 -8 115 -39 31 -42 32 -55 14 -10 -14 -17 -16 -24 -8 -8 7 0 27 29 67
43 59 66 73 57 35 -4 -19 6 -31 56 -68 38 -27 56 -45 47 -47 -9 -2 -24 -26
-33 -54 -22 -62 -77 -124 -123 -139 -56 -19 -136 15 -221 93 -70 65 -76 128
-20 212 29 43 89 105 102 105 5 -1 24 -13 42 -28z m-246 -300 c-6 -11 -11 -23
-11 -26 0 -2 64 -41 142 -86 l142 -81 17 23 c37 48 32 3 -8 -70 -42 -77 -60
-90 -56 -41 2 23 -10 32 -140 102 l-142 76 -13 -24 c-7 -14 -16 -25 -21 -25
-17 0 -19 13 -7 34 7 11 30 52 51 89 24 46 40 66 47 59 6 -6 6 -17 -1 -30z
m6089 -105 c43 -82 49 -130 9 -75 l-19 26 -138 -70 c-75 -39 -141 -74 -145
-78 -4 -4 -3 -18 4 -32 11 -25 12 -26 183 -32 94 -4 179 -10 189 -12 17 -5 17
-3 3 30 -9 23 -11 38 -5 42 6 3 12 4 14 2 9 -8 89 -206 115 -284 l28 -81 -51
-16 c-62 -20 -79 -6 -36 30 16 14 29 34 29 45 0 36 -23 99 -34 95 -6 -2 -39
-14 -73 -27 -35 -12 -63 -28 -63 -34 0 -6 7 -22 16 -35 12 -17 24 -22 45 -19
51 8 32 -18 -31 -41 -66 -24 -98 -19 -60 9 18 14 21 23 15 48 -3 18 -11 32
-15 32 -13 0 -123 -41 -132 -49 -11 -10 37 -107 57 -114 9 -4 28 -7 41 -7 43
0 27 -28 -23 -42 l-48 -14 -36 101 c-20 55 -43 117 -52 139 -16 37 -15 56 3
56 4 0 11 -11 14 -25 l6 -25 52 21 c93 37 90 32 67 88 l-21 48 -60 7 c-101 10
-110 9 -98 -13 13 -26 13 -41 -2 -41 -20 0 -139 243 -125 252 7 5 16 0 21 -12
5 -11 13 -20 18 -20 12 0 288 151 288 157 0 2 -5 13 -10 24 -11 19 -5 43 8 35
4 -2 27 -43 52 -89z m-6176 -141 c-4 -10 -15 -13 -38 -9 -28 4 -37 0 -59 -27
-33 -39 -34 -64 -2 -95 36 -37 60 -31 124 29 31 30 69 60 85 66 61 23 145 -28
160 -97 9 -38 -15 -111 -53 -166 l-31 -46 -48 22 c-36 16 -48 27 -44 39 3 14
9 15 30 7 38 -15 70 -3 92 34 26 42 25 70 -2 101 -44 49 -69 45 -143 -24 -67
-62 -67 -62 -118 -57 -41 3 -56 10 -79 36 -46 52 -37 121 29 208 l24 33 39
-20 c26 -13 37 -25 34 -34z m-117 -349 c15 -13 42 -29 60 -36 17 -7 41 -23 54
-37 25 -26 54 -30 94 -12 30 14 40 6 26 -20 -6 -12 -27 -22 -53 -27 l-43 -8
40 -7 40 -7 -46 -2 c-50 -1 -134 23 -163 48 -16 13 -18 14 -15 1 3 -8 28 -26
57 -40 39 -19 51 -30 49 -45 -1 -11 -8 -19 -14 -18 -19 4 -28 -39 -10 -52 12
-8 3 -11 -39 -11 -53 0 -62 11 -14 18 20 2 26 10 28 34 3 28 0 32 -37 43 -44
13 -71 43 -71 78 0 28 -17 38 -55 35 l-30 -3 30 30 c17 17 36 37 43 46 18 21
36 19 69 -8z m6373 -243 c8 -8 30 -22 49 -30 20 -8 50 -29 68 -46 l31 -30 47
15 c46 16 46 16 43 -6 -2 -15 -14 -25 -43 -33 l-40 -12 35 -1 c26 -1 31 -4 22
-13 -15 -15 -118 3 -174 31 -21 10 -37 14 -35 8 3 -9 67 -47 100 -59 13 -5 -4
-38 -19 -38 -17 0 -19 -47 -2 -52 6 -2 -12 -4 -42 -5 -33 0 -47 2 -39 8 8 5
21 9 30 9 18 0 31 33 22 56 -3 8 -13 14 -22 14 -9 0 -31 9 -48 20 -25 15 -33
27 -33 48 0 36 -16 52 -53 52 l-28 0 33 40 c36 43 75 53 98 24z m-6510 -78
c51 -15 59 -37 15 -43 -47 -7 -62 -24 -78 -94 -7 -26 -5 -27 56 -38 34 -7 70
-14 80 -17 14 -4 17 1 17 34 0 32 -4 41 -26 50 -34 16 -21 35 19 27 75 -15
107 -27 102 -35 -4 -6 -14 -10 -24 -10 -23 0 -38 -18 -43 -49 -3 -23 2 -26 57
-38 92 -19 86 -22 101 59 5 33 2 41 -25 68 -50 50 -43 58 33 39 l44 -11 -14
-56 c-8 -32 -21 -99 -31 -149 -11 -62 -21 -93 -30 -93 -8 0 -13 11 -13 28 l0
27 -157 27 c-86 15 -160 25 -165 22 -4 -3 -8 -20 -8 -37 0 -31 5 -34 173 -124
122 -65 172 -96 172 -109 0 -14 -36 -27 -192 -68 -192 -50 -193 -51 -193 -78
0 -18 -5 -28 -15 -28 -13 0 -14 14 -9 88 3 48 7 93 10 100 7 22 23 12 26 -17
l3 -28 128 30 c70 17 127 34 127 39 0 4 -54 35 -119 68 l-119 59 -6 -24 c-8
-31 -26 -33 -26 -2 0 57 68 397 79 397 3 0 26 -6 51 -14z m6804 -339 c10 -70
15 -138 12 -152 -13 -51 -129 -74 -178 -36 -24 20 -48 79 -48 121 0 21 -2 22
-62 15 -77 -9 -81 -11 -75 -41 4 -22 -8 -42 -19 -32 -4 4 -13 51 -30 156 -6
38 20 47 30 9 l6 -24 142 24 c201 33 185 27 180 64 -3 24 -1 30 9 27 9 -3 20
-46 33 -131z m30 -299 c11 -92 8 -138 -9 -138 -10 0 -15 10 -15 27 l0 26 -97
-6 c-54 -4 -128 -7 -165 -7 -66 0 -68 -1 -68 -25 0 -16 -6 -25 -15 -25 -11 0
-15 12 -15 44 0 24 -3 64 -6 90 -6 38 -4 46 10 46 11 0 16 -9 16 -26 l0 -27
162 7 c90 4 167 10 171 13 5 3 7 16 4 29 -2 15 1 24 8 24 7 0 15 -21 19 -52z
m-6574 -29 c0 -35 -6 -60 -20 -79 -18 -25 -19 -34 -10 -77 13 -61 -2 -138 -32
-171 -29 -30 -85 -44 -180 -44 -136 0 -188 46 -188 165 0 70 19 119 56 143 38
25 202 32 262 11 l43 -15 24 33 c14 17 25 44 25 58 0 15 5 27 10 27 6 0 10
-23 10 -51z m6505 -194 c55 -28 78 -71 77 -148 0 -34 -5 -81 -11 -104 -12 -42
-12 -43 -56 -43 -48 0 -69 18 -40 34 10 6 31 22 47 35 25 21 29 29 26 69 -3
40 -8 50 -36 68 -38 26 -137 40 -203 29 -106 -18 -135 -140 -42 -176 37 -14
23 -34 -23 -31 -64 5 -64 5 -64 89 0 151 57 207 205 201 55 -2 93 -10 120 -23z
m-6532 -192 c3 -5 8 -47 12 -95 6 -77 5 -88 -9 -88 -11 0 -16 9 -16 26 0 26
-1 26 -47 21 -27 -4 -99 -12 -161 -18 -61 -7 -110 -14 -108 -16 2 -2 81 -19
176 -38 156 -31 197 -45 185 -66 -3 -3 -74 -46 -160 -95 -85 -48 -153 -89
-151 -91 1 -2 69 10 151 27 81 16 150 30 152 30 2 0 2 12 1 26 -2 15 2 29 9
31 11 4 33 -74 33 -117 0 -28 -18 -25 -26 5 -3 14 -11 25 -18 25 -6 -1 -78
-15 -161 -33 l-150 -33 3 -33 c3 -24 0 -32 -10 -29 -7 3 -20 39 -29 81 -19 89
-35 70 133 162 60 34 102 62 95 66 -6 3 -71 17 -143 30 l-132 23 -6 66 c-8 91
-8 120 4 120 5 0 12 -16 16 -36 l7 -36 46 6 c25 3 78 8 116 11 162 13 165 14
165 46 0 27 13 39 23 22z m6550 -160 l39 -6 -7 -46 c-11 -87 -47 -296 -51
-302 -7 -12 -104 13 -104 27 0 8 10 14 24 14 31 0 62 28 70 62 7 32 17 28
-159 58 -66 11 -130 23 -142 25 -19 5 -23 1 -23 -19 0 -24 -16 -43 -26 -33 -3
3 0 48 7 101 9 67 16 96 26 96 8 0 13 -12 13 -30 0 -16 1 -30 3 -31 43 -10
314 -46 319 -43 10 7 10 55 0 71 -4 6 -20 16 -35 22 -30 12 -37 41 -9 41 9 0
34 -3 55 -7z m-212 -369 c124 -37 167 -80 155 -158 -16 -112 -53 -171 -113
-182 -45 -8 -163 18 -217 49 -54 30 -81 70 -80 115 2 65 24 124 59 159 29 29
39 33 87 33 30 0 79 -7 109 -16z m-6249 -64 c24 -18 58 -110 58 -154 0 -39
-53 -72 -188 -117 l-133 -44 6 -32 c4 -24 2 -33 -8 -33 -19 0 -74 177 -60 191
7 7 14 1 21 -20 l10 -30 136 44 c75 23 143 48 151 55 33 27 4 115 -41 126 -16
4 -75 -6 -157 -28 l-132 -35 3 -31 c5 -53 -16 -36 -34 26 -8 31 -18 65 -20 75
-4 10 0 17 9 17 8 0 18 -11 21 -25 8 -31 15 -31 151 4 133 35 174 37 207 11z
m101 -275 c10 -27 16 -54 13 -62 -3 -7 -31 -24 -62 -38 l-57 -25 6 -46 c2 -25
7 -47 9 -50 3 -2 33 7 67 22 47 21 61 31 56 43 -11 27 -10 33 1 38 9 3 43 -63
81 -154 3 -7 -2 -13 -11 -13 -9 0 -16 3 -16 8 0 4 -4 13 -9 21 -13 21 -313
-116 -305 -139 16 -40 17 -53 3 -48 -18 6 -100 189 -106 239 -7 47 6 65 64 91
46 20 66 17 104 -19 l26 -24 -4 25 c-10 49 5 75 55 99 43 21 47 26 44 56 -4
48 19 35 41 -24z m5863 -2 c-6 -28 -5 -28 141 -83 81 -30 151 -56 155 -58 4
-2 12 8 18 22 9 25 30 36 30 17 0 -17 -72 -196 -91 -227 -48 -79 -179 -32
-179 65 l-1 36 -17 -28 c-23 -37 -56 -44 -111 -23 l-46 17 -21 -27 c-33 -40
-38 -12 -9 46 28 55 42 60 102 35 50 -21 69 -19 92 11 31 39 26 49 -30 73 -64
26 -75 26 -82 1 -5 -21 -27 -28 -27 -8 0 27 56 158 68 158 10 0 12 -8 8 -27z
m-5706 -375 c38 -27 80 -101 86 -155 4 -27 -1 -47 -15 -71 -26 -41 -129 -108
-197 -128 -71 -20 -112 -4 -154 62 -84 133 -57 206 105 284 74 36 129 39 175
8z m5558 -30 c20 -20 15 -66 -9 -78 -16 -9 -26 -8 -45 5 -41 27 -27 85 21 85
12 0 26 -5 33 -12z m223 -129 c18 -34 -3 -69 -41 -69 -22 0 -33 6 -41 24 -16
35 3 66 41 66 20 0 33 -7 41 -21z m-331 -65 c25 -17 37 -31 33 -40 -3 -9 -12
-13 -20 -10 -50 19 -63 18 -93 -12 -48 -48 -37 -104 23 -125 20 -8 66 13 88
39 43 52 120 50 173 -5 47 -49 35 -116 -35 -196 l-30 -34 -40 26 c-45 30 -39
53 11 45 63 -9 106 72 60 113 -25 22 -59 14 -104 -25 -48 -43 -87 -55 -130
-40 -76 25 -108 108 -70 181 14 28 81 109 90 109 3 0 22 -12 44 -26z m-5207
-143 c31 -44 57 -82 57 -85 0 -15 -30 -4 -44 15 -15 22 -17 21 -145 -76 -72
-53 -131 -100 -131 -104 0 -4 11 -18 25 -31 23 -22 28 -23 60 -11 35 12 60 8
50 -9 -3 -5 -23 -22 -44 -39 l-39 -31 -79 107 c-44 60 -92 126 -106 148 l-27
39 46 30 c31 20 48 26 55 19 8 -8 5 -17 -10 -32 -25 -25 -27 -58 -3 -88 l17
-23 120 86 c66 47 126 89 134 93 11 7 11 12 -3 33 -14 22 -13 38 3 38 4 0 32
-36 64 -79z m5052 -155 c54 -23 106 -67 137 -115 51 -82 31 -160 -63 -245 -28
-25 -54 -46 -58 -46 -4 0 -22 13 -41 28 -43 37 -34 53 28 45 42 -5 50 -2 75
22 57 57 43 113 -48 190 -98 83 -149 94 -196 44 -29 -31 -39 -81 -19 -94 15
-9 12 -45 -3 -45 -7 0 -26 13 -42 30 -25 26 -27 33 -17 54 15 34 81 105 117
128 36 22 83 23 130 4z m-4863 -74 c86 -92 87 -172 1 -263 -74 -80 -158 -108
-222 -75 -34 18 -104 93 -126 137 l-17 33 33 28 c37 30 56 31 51 2 -16 -85
-15 -93 16 -124 51 -50 103 -37 194 48 85 80 100 137 48 187 -26 25 -34 27
-74 22 -25 -4 -48 -3 -51 2 -3 5 11 23 30 40 43 37 50 35 117 -37z m238 -247
c36 -33 80 -72 98 -87 17 -15 32 -31 32 -37 0 -14 -27 -14 -35 -1 -3 6 -10 10
-15 10 -10 0 -210 -238 -210 -250 0 -5 9 -15 19 -22 12 -8 17 -19 12 -26 -7
-12 -60 30 -204 159 l-49 44 41 40 c32 30 44 36 53 27 9 -9 9 -15 0 -24 -24
-24 -14 -72 23 -108 l35 -34 50 55 c27 30 49 57 50 61 0 4 -12 15 -26 25 -25
16 -28 16 -55 1 -49 -28 -45 0 7 53 27 27 52 49 57 49 4 0 5 -15 2 -33 -5 -26
-2 -37 15 -52 l22 -20 49 55 50 55 -43 38 c-43 39 -48 40 -115 21 -33 -9 -29
14 9 53 36 37 29 40 128 -52z m4434 -45 c112 -109 113 -110 131 -90 13 14 22
17 29 10 14 -14 -127 -156 -144 -145 -8 5 -5 14 11 31 l22 24 -93 97 c-121
126 -131 133 -167 111 -37 -22 -58 -59 -50 -89 4 -13 30 -51 59 -84 29 -34 70
-80 90 -105 37 -43 38 -43 58 -25 14 13 24 15 31 8 12 -12 -96 -108 -112 -98
-7 5 -3 15 11 30 l22 24 -91 107 c-106 126 -121 159 -94 207 29 49 98 97 140
97 31 0 47 -12 147 -110z m-381 -87 c4 -3 -1 -16 -12 -27 -19 -21 -18 -22 81
-149 l100 -128 25 17 c16 10 29 12 35 6 6 -6 -21 -32 -73 -71 -56 -41 -86 -58
-93 -51 -7 7 -3 15 13 26 12 9 20 22 17 30 -9 22 -186 254 -194 254 -5 0 -25
-16 -46 -35 -37 -33 -38 -38 -33 -80 4 -24 3 -46 -1 -49 -4 -2 -22 18 -39 45
l-33 48 58 40 c31 21 84 59 116 85 61 47 68 51 79 39z m-3741 -116 c36 -25 55
-44 51 -53 -4 -12 -10 -11 -34 3 -15 9 -30 15 -32 12 -2 -2 -44 -62 -92 -133
l-88 -129 22 -19 c30 -24 50 -23 77 3 13 12 30 19 38 16 13 -5 11 -13 -12 -51
-15 -25 -31 -46 -35 -46 -12 0 -204 132 -252 173 l-40 35 30 38 c42 51 60 41
40 -23 -5 -17 0 -28 20 -48 16 -14 31 -25 34 -25 3 0 24 26 47 58 22 31 65 90
94 131 l54 73 -23 19 c-12 10 -20 23 -16 29 7 11 8 11 117 -63z m3471 -81 c4
-9 -2 -17 -14 -21 -10 -4 -19 -11 -19 -16 0 -7 150 -258 167 -278 1 -2 14 2
28 9 25 14 42 9 31 -8 -9 -15 -208 -129 -237 -136 -33 -7 -70 20 -93 68 -32
67 -17 109 54 156 19 13 37 25 39 26 7 6 -61 114 -73 114 -6 0 -18 -6 -24 -12
-10 -10 -15 -10 -22 2 -7 11 9 25 68 61 88 54 88 54 95 35z m-3231 -71 c32
-17 46 -30 42 -39 -5 -12 -11 -13 -30 -4 -13 6 -26 9 -28 7 -6 -7 -122 -212
-140 -248 -17 -32 -17 -33 3 -48 22 -15 28 -33 10 -33 -9 0 -111 57 -158 89
-7 5 -10 14 -6 20 5 9 14 8 32 -4 14 -9 26 -15 27 -13 2 2 40 65 86 142 l83
139 -23 17 c-36 27 -15 45 23 20 18 -11 53 -32 79 -45z m151 -81 c85 -43 81
-40 73 -53 -5 -7 -15 -7 -32 -1 -24 10 -27 7 -55 -55 -16 -35 -29 -68 -29 -73
0 -5 26 -19 57 -33 32 -13 61 -25 65 -27 4 -2 17 18 29 45 41 94 41 92 14 105
-15 8 -21 18 -17 25 6 10 28 4 87 -22 86 -37 108 -59 55 -53 l-32 3 -54 -135
c-71 -177 -68 -165 -39 -178 34 -15 33 -36 -1 -28 -52 13 -164 69 -164 82 0
10 6 11 27 3 32 -12 35 -9 67 63 18 42 22 60 13 65 -22 14 -109 53 -118 53 -7
0 -69 -111 -69 -124 0 -3 11 -11 25 -18 14 -8 21 -18 17 -25 -8 -13 -173 66
-180 87 -3 9 1 11 14 8 11 -3 25 -7 33 -9 9 -3 39 45 88 139 75 142 75 144 54
158 -22 16 -28 34 -11 34 6 0 43 -16 83 -36z m2727 -44 c0 -6 -11 -16 -25 -22
-14 -6 -25 -15 -25 -19 0 -4 29 -72 65 -151 40 -87 70 -142 77 -140 7 2 24 10
37 19 20 13 22 20 17 53 -9 57 16 59 42 4 12 -25 22 -47 22 -49 0 -10 -301
-145 -324 -145 -2 0 -12 20 -22 45 -13 34 -14 49 -6 57 9 9 17 4 32 -15 21
-26 51 -34 84 -21 9 3 16 12 16 19 0 22 -117 290 -126 289 -5 -1 -19 -5 -31
-9 -16 -4 -23 -2 -23 8 0 8 35 29 83 50 88 38 107 43 107 27z m-2252 -145 c43
-20 56 -32 72 -67 25 -55 25 -80 0 -162 -37 -120 -109 -171 -206 -147 -49 12
-144 57 -144 68 0 3 5 23 12 45 14 48 39 48 49 -1 9 -44 37 -70 82 -78 32 -5
41 -1 71 29 38 38 76 143 76 208 0 50 -33 89 -82 97 -30 4 -41 1 -63 -21 -14
-14 -32 -26 -40 -26 -18 0 -18 -3 0 52 l16 45 52 -9 c29 -5 76 -20 105 -33z
m1968 -27 c38 -42 73 -131 80 -207 7 -78 -15 -111 -93 -141 -32 -13 -80 -23
-106 -24 -44 -1 -52 3 -82 36 -61 66 -95 231 -61 296 23 45 116 84 186 78 35
-3 51 -11 76 -38z m-1729 -51 c11 -11 11 -23 3 -65 -14 -62 -3 -88 41 -97 40
-9 46 -2 54 66 6 52 5 57 -14 62 -12 3 -21 12 -21 20 0 12 8 13 43 5 24 -5
103 -17 177 -26 83 -11 135 -22 138 -30 2 -8 -7 -12 -28 -12 -30 0 -31 -1 -25
-32 4 -18 9 -35 12 -38 2 -2 34 -6 71 -8 l67 -4 18 36 17 36 -25 0 c-16 0 -25
6 -25 15 0 12 14 15 70 15 56 0 70 -3 70 -15 0 -9 -9 -15 -24 -15 -22 0 -35
-21 -113 -172 -67 -130 -94 -173 -108 -173 -15 0 -28 31 -74 185 l-56 185 -42
3 c-40 3 -42 2 -48 -30 -9 -54 -45 -287 -45 -293 0 -3 14 -5 30 -5 28 0 40
-13 22 -24 -13 -8 -233 34 -264 50 -33 17 -45 67 -28 119 12 37 51 65 92 66
18 0 15 3 -15 16 -43 18 -52 42 -42 108 6 43 5 46 -23 58 -16 6 -27 17 -25 23
5 15 99 -8 120 -29z m1363 -2 c0 -8 -9 -15 -20 -15 -11 0 -20 -6 -20 -12 0 -7
14 -82 32 -166 l31 -154 28 6 c17 3 29 0 32 -8 4 -9 -27 -18 -107 -34 -167
-33 -195 -29 -215 29 -19 54 -14 88 19 120 l29 30 -29 6 c-38 7 -53 25 -65 82
-9 42 -13 46 -43 49 -51 5 -33 26 27 32 66 7 80 -3 92 -64 12 -63 23 -76 70
-76 45 0 46 5 28 90 -10 47 -13 51 -34 46 -15 -4 -25 -1 -28 8 -4 10 13 18 66
29 95 20 107 20 107 2z m-568 -150 c16 -14 35 -25 42 -25 7 0 32 -16 55 -37
l43 -36 47 15 48 15 -5 -23 c-3 -18 -14 -25 -46 -33 -39 -9 -40 -9 -8 -10 17
-1 32 -6 32 -12 0 -19 -115 -2 -171 25 -61 29 -60 10 0 -21 24 -12 48 -24 54
-26 13 -4 -1 -47 -16 -44 -6 1 -13 -8 -15 -20 -2 -13 1 -23 7 -23 6 0 11 -3
11 -7 0 -5 -23 -8 -50 -8 -28 0 -50 3 -50 7 0 5 11 8 24 8 29 0 49 22 44 51
-2 17 -13 25 -38 32 -47 12 -70 34 -70 67 0 35 -22 54 -55 48 -14 -3 -25 -3
-25 -1 0 14 78 82 94 83 10 0 31 -11 48 -25z"/>
<path d="M5666 8479 c-26 -39 -46 -72 -44 -74 2 -2 24 -5 48 -7 l44 -3 12 65
c7 36 13 71 13 78 2 30 -28 6 -73 -59z"/>
<path d="M4241 8493 c-26 -5 -26 -15 5 -118 18 -64 32 -68 75 -26 24 24 28 35
23 63 -12 67 -44 92 -103 81z"/>
<path d="M6261 8253 c-28 -31 -51 -60 -51 -64 0 -7 91 -42 95 -36 4 4 13 157
10 157 -2 0 -26 -26 -54 -57z"/>
<path d="M6941 7921 c-79 -58 -78 -55 -28 -90 l46 -31 15 53 c21 74 29 107 25
107 -2 0 -28 -18 -58 -39z"/>
<path d="M4875 8080 c-716 -64 -1342 -356 -1851 -864 -480 -481 -756 -1040
-851 -1726 -23 -173 -23 -566 0 -740 95 -685 371 -1246 851 -1726 480 -480
1043 -757 1726 -850 173 -24 567 -24 740 0 699 95 1291 394 1770 892 873 907
1078 2262 512 3389 -401 802 -1182 1399 -2057 1574 -247 50 -608 71 -840 51z
m266 -54 c6 -13 20 -27 30 -29 24 -7 14 -37 -12 -37 -14 0 -19 -7 -19 -30 0
-20 5 -30 15 -30 8 0 15 -7 15 -15 0 -25 36 -17 49 11 9 21 14 24 26 14 8 -7
15 -19 15 -26 0 -8 9 -14 20 -14 13 0 20 -7 20 -20 0 -11 -5 -20 -12 -20 -7 0
-22 -12 -34 -27 l-22 -28 -13 28 c-13 29 -49 38 -49 12 0 -8 -7 -15 -15 -15
-10 0 -15 -10 -15 -30 0 -24 6 -32 34 -44 37 -15 56 -42 56 -76 0 -20 -1 -20
-22 -6 -26 19 -138 22 -170 5 -27 -15 -33 -5 -18 32 9 20 26 37 47 45 27 12
33 20 33 44 0 20 -5 30 -15 30 -8 0 -15 7 -15 15 0 8 -9 15 -20 15 -11 0 -20
-6 -20 -14 0 -7 -6 -19 -14 -25 -12 -10 -18 -7 -31 13 -10 14 -24 26 -31 26
-21 0 -17 31 5 37 10 2 24 16 30 30 9 21 14 23 26 13 8 -7 15 -19 15 -26 0 -8
9 -14 20 -14 11 0 20 7 20 15 0 8 7 15 15 15 10 0 15 10 15 30 0 23 -4 30 -20
30 -13 0 -20 7 -20 20 0 11 7 20 15 20 9 0 20 11 25 25 12 32 27 32 41 1z
m-501 -305 c20 -39 -22 -82 -60 -61 -23 12 -28 65 -7 73 27 12 57 6 67 -12z
m1028 7 c19 -19 14 -56 -8 -68 -38 -21 -80 22 -60 61 12 21 50 25 68 7z m-928
-13 c14 -17 5 -51 -16 -59 -35 -13 -73 41 -47 67 12 12 50 7 63 -8z m828 -17
c6 -47 -59 -62 -73 -17 -9 27 13 51 44 47 20 -2 27 -9 29 -30z m-1078 13 c0
-5 -11 -16 -25 -25 -13 -9 -37 -37 -52 -63 -24 -42 -28 -58 -28 -128 0 -90 17
-136 85 -236 27 -40 36 -60 28 -65 -32 -20 -156 183 -165 270 -10 87 39 193
110 236 35 22 47 25 47 11z m360 -21 c13 -25 -10 -53 -41 -48 -30 4 -39 46
-14 64 20 15 42 8 55 -16z m608 -18 c-2 -21 -9 -28 -30 -30 -39 -5 -56 30 -28
58 28 28 63 11 58 -28z m339 28 c71 -43 122 -155 110 -242 -11 -86 -135 -283
-165 -264 -8 5 1 25 28 64 66 98 84 147 84 237 1 70 -2 86 -27 128 -15 26 -39
54 -52 63 -24 16 -33 34 -17 34 4 0 21 -9 39 -20z m-1259 -32 c30 -30 3 -83
-39 -76 -32 5 -45 31 -31 62 13 28 49 35 70 14z m387 -18 c0 -16 -6 -26 -18
-28 -19 -4 -32 20 -23 44 9 25 41 13 41 -16z m430 0 c0 -16 -6 -26 -18 -28
-19 -4 -32 20 -23 44 9 25 41 13 41 -16z m416 9 c16 -30 -3 -69 -34 -69 -29 0
-47 17 -47 45 0 45 60 63 81 24z m-781 -12 c0 -19 -10 -27 -26 -20 -21 8 -17
33 6 33 11 0 20 -6 20 -13z m300 -1 c0 -15 -24 -28 -34 -19 -13 14 -5 33 14
33 11 0 20 -6 20 -14z m-135 -46 c0 -33 -2 -35 -35 -35 -29 0 -36 4 -38 23 -6
40 5 54 40 50 30 -3 33 -6 33 -38z m-112 9 c-2 -8 -10 -43 -20 -78 -17 -64
-15 -93 13 -213 5 -21 3 -28 -8 -28 -14 0 -54 76 -60 115 -3 19 -12 20 -181
23 -148 2 -177 5 -177 17 0 12 19 15 108 15 59 0 137 3 175 7 62 5 68 8 73 32
8 42 56 132 68 128 6 -2 10 -10 9 -18z m207 -38 c9 -20 21 -50 24 -67 7 -30 9
-31 74 -38 37 -3 115 -6 175 -6 88 0 107 -3 107 -15 0 -12 -29 -15 -177 -17
-169 -3 -178 -4 -181 -23 -5 -37 -45 -115 -59 -115 -17 0 -16 5 3 81 18 70 14
146 -11 206 -29 68 9 63 45 -6z m-465 34 c44 -8 101 -17 128 -20 32 -4 47 -11
47 -21 0 -24 -25 -27 -123 -14 -181 24 -216 24 -239 4 -32 -30 -21 -122 26
-210 39 -75 42 -84 24 -84 -16 0 -70 78 -97 140 -12 27 -21 67 -21 99 0 47 4
57 34 87 30 30 40 34 88 34 29 0 89 -7 133 -15z m886 -13 c44 -39 51 -116 20
-188 -29 -64 -83 -144 -98 -144 -19 0 -16 9 23 84 47 88 58 180 26 210 -23 20
-58 20 -239 -4 -98 -13 -123 -10 -123 14 0 10 15 17 48 21 26 3 79 12 117 19
39 8 98 14 132 15 55 1 66 -2 94 -27z m-1191 -32 c11 -11 20 -24 20 -29 0 -16
-30 -41 -49 -41 -38 0 -54 45 -25 74 20 21 30 20 54 -4z m1334 4 c31 -31 13
-74 -31 -74 -55 0 -47 83 9 89 4 1 14 -6 22 -15z m-1614 -49 c0 -15 -7 -26
-20 -30 -41 -13 -70 43 -33 64 25 13 53 -5 53 -34z m1910 6 c0 -26 -25 -44
-50 -36 -25 8 -27 50 -3 64 23 12 53 -4 53 -28z m-1825 -1 c0 -18 -6 -26 -23
-28 -13 -2 -25 3 -28 12 -10 26 4 48 28 44 17 -2 23 -10 23 -28z m1720 0 c0
-18 -6 -26 -23 -28 -24 -4 -38 18 -28 44 3 9 15 14 28 12 17 -2 23 -10 23 -28z
m-1351 14 c9 -3 16 -12 16 -18 0 -18 -21 -35 -36 -29 -15 5 -19 35 -7 46 8 8
8 8 27 1z m504 -6 c7 -7 12 -24 12 -38 0 -14 -5 -31 -12 -38 -7 -7 -24 -12
-38 -12 -14 0 -31 5 -38 12 -7 7 -12 24 -12 38 0 14 5 31 12 38 7 7 24 12 38
12 14 0 31 -5 38 -12z m460 -13 c5 -22 -18 -37 -35 -23 -17 13 -17 35 0 41 19
8 32 2 35 -18z m-1522 7 c22 -15 24 -42 5 -61 -25 -25 -59 -17 -67 15 -10 40
29 69 62 46z m642 -14 c-4 -27 -33 -36 -42 -13 -8 22 1 35 25 35 15 0 20 -6
17 -22z m806 13 c10 -16 -6 -42 -23 -39 -9 2 -17 13 -19 26 -3 16 2 22 17 22
11 0 22 -4 25 -9z m650 -7 c25 -25 18 -54 -17 -67 -17 -7 -57 23 -57 42 0 14
30 41 45 41 7 0 21 -7 29 -16z m-1384 -14 c0 -13 -7 -20 -20 -20 -13 0 -20 7
-20 20 0 13 7 20 20 20 13 0 20 -7 20 -20z m70 -6 c0 -14 -21 -19 -33 -7 -9 9
13 34 24 27 5 -3 9 -12 9 -20z m514 -5 c-8 -14 -34 -11 -34 4 0 8 3 17 7 20 9
9 34 -13 27 -24z m76 11 c0 -13 -7 -20 -20 -20 -13 0 -20 7 -20 20 0 13 7 20
20 20 13 0 20 -7 20 -20z m-532 -1 c-2 -6 -8 -10 -13 -10 -5 0 -11 4 -13 10
-2 6 4 11 13 11 9 0 15 -5 13 -11z m390 0 c-2 -6 -8 -10 -13 -10 -5 0 -11 4
-13 10 -2 6 4 11 13 11 9 0 15 -5 13 -11z m-833 -55 c19 -20 16 -43 -7 -58
-35 -22 -74 27 -48 59 16 19 35 19 55 -1z m1305 1 c26 -32 -13 -81 -47 -59
-24 15 -27 38 -8 58 20 20 39 20 55 1z m-1762 -7 c32 -32 -8 -80 -48 -58 -34
18 -19 70 20 70 9 0 21 -5 28 -12z m249 1 c26 -10 27 -12 8 -19 -11 -5 -42 -9
-70 -10 -59 -1 -89 -16 -116 -56 -28 -43 -25 -133 7 -209 32 -77 32 -78 12
-82 -12 -3 -25 14 -48 61 -34 71 -47 143 -36 200 8 39 57 103 90 116 31 13
120 12 153 -1z m1858 -29 c44 -43 59 -88 52 -160 -6 -74 -61 -193 -85 -187
-20 4 -20 5 12 82 32 76 35 166 7 209 -27 40 -57 55 -116 56 -27 1 -59 5 -70
10 -19 8 -19 8 5 19 14 6 55 10 92 8 62 -2 71 -6 103 -37z m113 28 c32 -32 -8
-80 -48 -58 -34 18 -19 70 20 70 9 0 21 -5 28 -12z m-1114 -24 c24 -9 21 -61
-4 -74 -30 -16 -60 4 -60 40 0 35 26 49 64 34z m-176 -133 c12 -86 11 -113 -4
-99 -4 5 -34 169 -34 191 0 5 6 7 12 5 8 -3 18 -43 26 -97z m342 92 c0 -23
-30 -186 -34 -191 -15 -14 -16 13 -6 90 6 45 13 89 15 96 5 13 25 17 25 5z
m-435 -129 c23 -100 27 -139 11 -123 -9 8 -63 238 -58 243 12 13 22 -11 47
-120z m48 17 c16 -92 17 -124 2 -110 -4 5 -25 100 -40 183 -5 29 -3 37 7 34 7
-3 20 -47 31 -107z m437 100 c0 -17 -40 -205 -45 -209 -15 -15 -15 16 0 100 9
51 18 99 20 106 5 14 25 17 25 3z m28 -121 c-17 -66 -34 -120 -39 -120 -13 0
-12 6 16 126 28 115 32 127 45 119 4 -2 -6 -59 -22 -125z m-1394 114 c9 -4 16
-18 16 -34 0 -42 -51 -56 -70 -20 -20 38 12 70 54 54z m831 -109 c16 -58 25
-108 22 -112 -4 -3 -9 -4 -11 -2 -8 9 -63 214 -59 222 10 17 22 -9 48 -108z
m612 -5 c-17 -60 -34 -110 -39 -110 -13 0 -10 18 18 120 29 105 32 113 43 105
5 -2 -5 -54 -22 -115z m863 100 c13 -23 -2 -60 -25 -60 -30 0 -45 13 -45 40 0
42 51 56 70 20z m-1756 -6 c22 -21 3 -56 -27 -52 -37 5 -33 67 5 68 4 0 14 -7
22 -16z m230 -71 c28 -92 32 -118 17 -109 -9 6 -61 164 -61 185 0 6 4 11 8 11
5 0 21 -39 36 -87z m736 76 c0 -23 -53 -180 -63 -186 -13 -8 -5 32 24 127 11
39 25 70 30 70 5 0 9 -5 9 -11z m228 2 c21 -13 11 -55 -15 -59 -30 -4 -49 31
-27 52 18 18 24 19 42 7z m-1019 -63 c23 -68 27 -98 11 -82 -9 9 -50 119 -50
136 0 4 4 8 9 8 5 0 19 -28 30 -62z m841 54 c0 -5 -9 -35 -20 -68 -21 -60 -40
-90 -40 -63 0 26 41 139 51 139 5 0 9 -4 9 -8z m-382 -54 c7 -16 22 -33 33
-38 22 -12 26 -59 7 -78 -9 -9 -6 -12 14 -12 15 0 33 -8 40 -19 7 -10 23 -21
35 -25 13 -4 24 -18 28 -36 7 -30 -8 -70 -26 -70 -5 0 -21 -12 -35 -27 -24
-26 -27 -27 -52 -12 -22 11 -34 35 -62 117 -19 56 -37 102 -40 102 -3 0 -21
-46 -40 -102 -28 -82 -40 -106 -62 -117 -25 -15 -28 -14 -52 12 -14 15 -30 27
-35 27 -18 0 -33 40 -26 70 4 18 15 32 28 36 12 4 28 15 35 25 7 11 24 19 37
19 23 0 23 1 10 27 -14 26 -6 63 14 63 5 0 18 16 30 36 19 33 24 35 63 32 35
-2 45 -8 56 -30z m-1187 -18 c25 -14 25 -56 -1 -70 -45 -24 -86 44 -42 69 21
13 20 13 43 1z m2300 0 c25 -14 25 -56 -1 -70 -45 -24 -86 44 -42 69 21 13 20
13 43 1z m-1652 -31 c11 -12 30 -27 43 -33 19 -10 23 -19 21 -51 -2 -30 0 -36
9 -27 16 16 43 15 58 -3 7 -8 20 -15 30 -15 21 0 36 -17 45 -50 4 -19 0 -33
-17 -52 -13 -14 -28 -34 -34 -44 -21 -36 -62 -7 -128 89 l-61 88 -8 -108 c-6
-84 -12 -112 -27 -127 -18 -18 -19 -18 -63 3 -25 12 -48 29 -51 37 -11 28 -6
61 10 75 9 7 20 23 25 36 5 13 15 23 23 23 13 0 13 4 -2 29 -15 27 -15 31 0
48 9 10 18 31 20 48 5 51 72 72 107 34z m1058 0 c7 -6 13 -23 13 -37 0 -14 8
-34 17 -44 16 -18 16 -21 1 -49 -15 -25 -15 -29 -2 -29 8 0 18 -10 23 -23 5
-13 16 -29 25 -36 16 -14 21 -47 10 -75 -3 -8 -26 -25 -51 -37 -44 -21 -45
-21 -64 -3 -14 15 -20 42 -26 127 l-8 109 -63 -91 c-67 -97 -105 -123 -126
-86 -6 10 -21 29 -33 43 -13 14 -23 32 -23 41 0 25 29 61 49 61 10 0 24 7 31
15 15 18 42 19 59 3 10 -11 11 -5 5 29 -6 39 -5 42 19 48 14 4 35 18 47 32 18
20 28 24 52 19 17 -3 37 -11 45 -17z m-1277 -36 c31 -49 36 -63 21 -63 -9 0
-71 91 -71 103 0 21 24 1 50 -40z m1450 40 c0 -12 -62 -103 -71 -103 -15 0
-10 14 21 63 26 41 50 61 50 40z m-1476 -87 c44 -62 55 -86 39 -86 -9 1 -91
113 -100 136 -13 35 19 8 61 -50z m1513 50 c-9 -23 -91 -135 -99 -136 -17 0
-6 26 38 86 41 58 74 85 61 50z m-1571 -49 c16 -23 41 -56 53 -74 13 -17 21
-37 19 -44 -5 -14 -118 130 -118 149 0 22 15 12 46 -31z m1614 31 c0 -19 -110
-159 -121 -153 -5 4 4 25 21 48 18 23 44 59 58 79 27 38 42 47 42 26z m-1925
-53 c0 -27 -3 -30 -30 -30 -21 0 -31 5 -33 18 -6 33 6 49 35 45 24 -3 28 -8
28 -33z m283 -20 c77 -99 66 -121 -13 -25 -42 51 -56 81 -37 79 4 0 26 -24 50
-54z m1682 42 c0 -15 -85 -120 -102 -126 -18 -6 -2 25 44 84 44 55 58 65 58
42z m285 -22 c0 -27 -3 -30 -30 -30 -21 0 -31 5 -33 18 -6 33 6 49 35 45 24
-3 28 -8 28 -33z m-2018 -37 c31 -30 43 -58 25 -58 -9 0 -72 74 -72 84 0 13
16 4 47 -26z m1773 26 c0 -10 -63 -84 -72 -84 -17 0 -7 25 24 57 29 30 48 41
48 27z m-875 -200 c-24 -18 -46 -18 -69 -1 -17 13 -17 17 4 93 12 43 25 83 28
88 3 6 17 -30 30 -78 25 -86 25 -89 7 -102z m-1087 135 c3 -28 -16 -43 -43
-33 -15 6 -21 45 -8 58 16 16 48 1 51 -25z m2160 0 c3 -28 -16 -43 -43 -33
-15 6 -21 45 -8 58 16 16 48 1 51 -25z m-2008 -8 c5 -11 10 -36 10 -55 0 -43
7 -45 35 -10 18 23 24 25 42 15 12 -6 31 -11 42 -11 25 0 37 -21 44 -78 4 -35
2 -45 -15 -56 -11 -8 -17 -19 -13 -25 10 -17 47 -13 69 9 18 16 30 18 80 13
l58 -6 -88 -33 c-49 -19 -99 -34 -111 -34 -15 0 -46 24 -90 71 -85 89 -130
113 -195 106 -26 -3 -50 -2 -53 3 -17 27 58 87 95 77 9 -2 22 4 29 14 15 25
47 24 61 0z m1861 0 c7 -10 20 -16 29 -14 37 10 112 -50 95 -77 -3 -5 -27 -6
-53 -3 -65 7 -110 -17 -195 -106 -44 -47 -75 -71 -90 -71 -12 0 -62 15 -111
34 l-88 33 58 6 c50 5 62 3 80 -13 22 -22 59 -26 69 -9 4 6 -2 17 -13 25 -17
11 -19 21 -15 56 7 57 19 78 44 78 11 0 30 5 42 11 18 10 24 8 42 -15 28 -35
35 -33 35 10 0 19 5 44 10 55 14 24 46 25 61 0z m-1362 -140 c10 -17 8 -23
-13 -36 -14 -9 -35 -15 -48 -13 -22 3 -23 7 -26 98 l-2 95 39 -61 c22 -34 44
-71 50 -83z m887 -38 c-8 -19 -50 -16 -75 5 l-21 17 47 77 48 78 3 -82 c2 -45
1 -87 -2 -95z m-636 57 l50 -17 -83 -6 c-46 -4 -99 -10 -118 -13 l-34 -6 32
22 c18 12 38 34 45 50 l13 29 22 -21 c12 -11 45 -29 73 -38z m408 31 c7 -17
27 -39 45 -51 l32 -22 -34 6 c-19 3 -72 9 -118 13 l-83 6 52 18 c29 10 60 27
68 38 20 27 23 26 38 -8z m44 -105 c122 -20 244 -48 333 -79 58 -19 69 -27 67
-43 -2 -10 -6 -21 -8 -23 -2 -2 -41 8 -86 23 -175 55 -433 96 -608 96 -175 0
-433 -41 -608 -96 -45 -15 -84 -25 -86 -23 -2 2 -6 13 -8 23 -2 16 9 24 67 43
99 34 269 72 399 88 135 17 398 13 538 -9z m-142 -67 c211 -19 520 -93 520
-124 0 -19 4 -19 -65 5 -32 11 -59 19 -60 18 -1 -2 -7 -18 -13 -36 -11 -31
-10 -33 25 -47 20 -9 47 -18 60 -21 14 -4 23 -14 23 -25 0 -17 -3 -18 -21 -8
-44 23 -167 60 -273 82 -97 19 -142 22 -356 22 -214 0 -259 -3 -356 -22 -106
-22 -229 -59 -273 -82 -18 -10 -21 -9 -21 7 0 13 15 23 56 37 56 19 56 19 50
53 -3 19 -7 36 -9 38 -2 2 -30 -5 -62 -16 -69 -24 -65 -24 -65 -5 0 29 307
105 500 123 136 13 209 13 340 1z m-2074 -232 c189 -122 356 -162 834 -196
441 -33 558 -48 755 -100 124 -33 285 -89 285 -100 0 -4 -12 -14 -27 -23 -16
-9 -40 -29 -56 -45 l-27 -29 -88 22 c-245 62 -670 104 -1046 104 -215 0 -330
22 -466 90 -167 84 -326 266 -355 410 l-7 35 64 -61 c35 -34 96 -82 134 -107z
m4058 96 c-54 -170 -235 -341 -434 -407 -109 -36 -185 -46 -365 -46 -88 0
-239 -5 -335 -10 -665 -38 -1042 -158 -1144 -362 -21 -42 -26 -66 -26 -125 0
-84 13 -118 69 -176 l36 -39 -40 16 c-93 38 -154 151 -141 263 34 293 370 490
946 557 74 9 263 25 420 37 295 21 463 44 584 80 149 44 301 134 400 238 22
22 42 39 44 36 2 -2 -4 -30 -14 -62z m-2714 -11 c0 -8 -65 -32 -84 -32 -19 0
-1 19 27 28 41 13 57 14 57 4z m1199 -3 c35 -12 44 -34 9 -23 -44 13 -68 24
-68 29 0 8 25 6 59 -6z m-299 -38 c118 -20 234 -52 283 -77 22 -12 27 -21 27
-50 l0 -35 -32 25 c-44 33 -162 72 -284 93 -140 24 -510 24 -648 0 -122 -22
-240 -60 -283 -93 l-33 -25 0 35 c0 29 5 38 29 51 70 35 273 81 446 99 95 10
384 -3 495 -23z m-690 -135 c0 -25 5 -48 10 -51 6 -4 10 13 10 44 0 39 4 51
15 51 11 0 15 -12 15 -50 0 -27 5 -50 10 -50 6 0 10 23 10 51 0 66 24 62 28
-4 4 -61 20 -61 24 1 4 63 22 60 26 -5 4 -67 22 -69 22 -3 0 38 4 50 15 50 11
0 15 -12 15 -50 0 -27 5 -50 10 -50 6 0 10 23 10 50 0 38 4 50 15 50 11 0 15
-12 15 -50 0 -27 5 -50 10 -50 6 0 10 23 10 50 0 38 4 50 15 50 11 0 15 -12
15 -50 0 -27 5 -50 10 -50 6 0 10 23 10 50 0 38 4 50 15 50 11 0 15 -12 15
-50 0 -27 5 -50 10 -50 6 0 10 23 10 50 0 38 4 50 15 50 11 0 15 -12 15 -50 0
-27 5 -50 10 -50 6 0 10 23 10 50 0 38 4 50 15 50 11 0 15 -12 15 -50 0 -27 5
-50 10 -50 6 0 10 23 10 50 0 38 4 50 15 50 11 0 15 -12 15 -50 0 -27 5 -50
10 -50 6 0 10 23 10 50 0 38 4 50 15 50 11 0 15 -12 15 -50 0 -65 18 -65 22 0
4 63 22 66 26 5 4 -59 20 -58 24 2 4 66 28 70 28 4 0 -28 5 -51 10 -51 6 0 10
23 10 50 0 38 4 50 15 50 11 0 15 -12 15 -51 0 -31 4 -48 10 -44 6 3 10 26 10
51 0 32 4 44 15 44 11 0 15 -12 15 -45 0 -25 5 -45 10 -45 6 0 10 18 10 41 0
49 23 50 28 1 4 -38 22 -43 22 -7 0 34 28 32 33 -2 4 -27 4 -27 12 -5 9 26 23
29 32 6 3 -8 11 -13 19 -10 7 3 18 -2 25 -10 49 -59 -180 -98 -581 -98 -401 0
-630 39 -581 98 7 8 18 13 25 10 8 -3 16 2 19 10 9 23 23 20 32 -6 8 -22 8
-22 12 5 5 34 33 36 33 2 0 -36 18 -31 22 7 5 49 28 48 28 -1 0 -23 5 -41 10
-41 6 0 10 20 10 45 0 33 4 45 15 45 11 0 15 -12 15 -44z m-2222 -220 c42 -39
71 -85 86 -134 7 -21 6 -21 -17 -11 -13 6 -34 30 -45 52 l-22 42 2 -39 c4 -60
-18 -56 -31 5 -6 29 -20 72 -31 97 -11 24 -20 47 -20 49 0 8 29 -15 78 -61z
m5138 -53 c0 -54 7 -113 18 -153 27 -94 25 -219 -3 -292 -29 -74 -53 -97 -40
-37 5 23 16 51 24 63 19 27 19 42 0 26 -20 -17 -20 5 0 40 18 32 19 44 0 37
-11 -5 -12 -1 -5 19 6 14 10 35 10 46 0 16 -3 18 -13 9 -20 -16 -26 -4 -16 32
5 18 9 41 9 52 -1 19 -1 19 -19 -2 -10 -12 -21 -19 -25 -16 -10 10 -7 64 8
128 8 33 13 62 11 64 -2 2 -22 -24 -43 -57 -42 -64 -42 -65 -91 -25 -10 8 151
153 169 153 3 0 6 -39 6 -87z m-413 26 c205 -104 335 -262 345 -422 4 -64 0
-85 -34 -187 l-39 -115 -1 -200 c-1 -158 -5 -224 -22 -317 -12 -64 -22 -132
-22 -150 0 -40 10 -78 19 -78 14 0 51 126 51 171 0 55 24 201 47 279 21 76 72
184 134 286 29 48 60 107 69 131 l17 45 21 -50 c61 -140 67 -296 17 -432 -60
-164 -132 -274 -208 -315 -26 -15 -55 -38 -64 -52 -17 -26 -44 -115 -37 -122
3 -3 30 20 62 51 38 37 69 58 92 63 50 10 56 16 30 30 -22 12 -20 13 36 34 92
34 92 34 51 40 l-39 6 24 21 c12 12 41 28 63 35 l40 13 -33 6 -33 5 21 23 c11
12 32 29 45 38 30 20 33 38 5 29 -19 -6 -19 -4 -8 22 6 15 21 39 32 52 18 21
19 23 3 18 -15 -5 -16 -2 -11 21 6 25 39 61 57 62 24 1 -8 -233 -43 -304 -43
-90 -137 -173 -215 -191 -46 -10 -120 -62 -148 -103 -23 -34 -51 -111 -43
-119 9 -9 129 28 152 46 35 28 69 27 99 -4 28 -28 32 -70 10 -102 -30 -43
-105 -36 -127 12 -18 40 -97 26 -145 -26 -22 -25 -96 -205 -91 -224 2 -7 16
-8 45 -2 30 6 44 14 49 30 12 39 35 57 75 57 70 0 103 -77 54 -125 -27 -28
-71 -33 -101 -11 -11 9 -30 12 -44 9 -92 -20 -97 -22 -141 -85 -99 -140 -119
-180 -119 -235 0 -61 -15 -77 -29 -31 -6 22 -10 26 -11 13 -2 -38 -27 -92 -60
-133 -18 -23 -31 -44 -28 -47 3 -3 35 22 73 55 88 78 145 99 300 111 128 9
174 20 218 51 l27 20 -30 -83 c-39 -108 -84 -181 -143 -234 -72 -66 -111 -75
-312 -75 l-171 0 -89 -51 c-130 -74 -139 -82 -171 -146 -41 -82 -59 -94 -45
-30 5 20 8 37 6 37 -2 0 -15 -20 -29 -45 -15 -25 -31 -45 -36 -45 -13 0 -12 7
0 31 6 11 7 19 1 19 -5 0 -11 -6 -14 -14 -8 -20 -96 -90 -104 -82 -4 3 9 23
29 44 58 62 86 105 98 153 l12 47 -62 77 c-33 43 -79 104 -101 136 l-39 59 70
35 70 36 22 -48 c12 -27 34 -82 50 -123 l29 -75 -6 55 c-4 30 -20 89 -37 132
-17 43 -29 79 -27 81 2 1 23 20 46 41 l43 40 21 -49 c19 -42 21 -59 15 -129
-4 -45 -13 -112 -20 -149 -16 -85 -6 -75 30 28 15 44 40 99 56 123 27 39 27
57 0 30 -21 -21 -14 27 9 67 22 37 20 56 -5 36 -26 -22 -28 19 -2 65 26 47 23
64 -7 37 -19 -17 -19 -17 -12 7 10 35 39 81 67 107 l23 22 3 -177 3 -177 -66
-109 c-60 -101 -75 -136 -59 -136 3 0 48 29 98 64 l93 65 16 76 c22 98 22 114
-5 274 l-22 134 23 86 c13 47 27 103 30 123 l6 37 41 -18 c78 -35 131 -130
105 -187 -14 -31 -25 -25 -56 34 -28 54 -33 34 -11 -40 12 -39 13 -48 1 -58
-11 -9 -18 -3 -33 32 -17 36 -20 39 -21 18 -1 -14 3 -40 8 -57 5 -18 7 -41 4
-53 -5 -19 -6 -20 -20 -3 -13 17 -14 16 -8 -7 18 -65 18 -80 1 -74 -14 6 -15
2 -1 -36 8 -23 15 -65 15 -93 0 -49 0 -50 20 -32 16 15 20 31 20 87 0 80 0 79
91 215 60 89 69 108 69 148 0 31 -6 51 -19 64 -10 10 -78 54 -151 97 -148 88
-170 109 -257 254 -34 55 -72 104 -91 117 l-33 22 52 15 c29 9 74 16 101 16
l48 0 0 -36 c0 -31 -3 -36 -20 -31 -30 8 -24 -9 9 -29 16 -10 34 -28 40 -40 9
-20 7 -23 -17 -26 -26 -3 -26 -4 14 -25 22 -12 46 -29 53 -37 12 -14 10 -16
-9 -16 -35 0 -18 -23 28 -37 50 -14 96 -43 69 -43 -27 0 -20 -19 11 -25 66
-14 100 -26 112 -40 10 -12 9 -15 -4 -15 -31 0 -6 -18 34 -25 47 -8 60 -26 60
-87 1 -40 2 -42 15 -24 8 11 15 37 15 58 0 47 -45 101 -135 160 -78 53 -142
114 -164 158 -12 22 -21 70 -25 131 -8 119 -28 189 -67 234 l-31 35 53 0 c75
0 142 -41 255 -154 126 -127 149 -166 164 -274 21 -151 25 -158 38 -69 16 104
15 121 -7 165 -13 27 -18 53 -15 97 l3 60 -12 -38 c-10 -31 -15 -36 -24 -25
-8 9 -9 26 -3 53 9 39 8 42 -36 86 -34 35 -51 45 -69 42 -78 -15 -111 99 -36
125 46 16 91 -16 91 -65 0 -18 66 -91 73 -82 2 2 9 29 15 59 11 54 10 56 -17
81 -17 16 -50 32 -82 38 -109 24 -195 101 -293 261 -32 52 -71 115 -88 139
l-30 44 64 -6 c252 -25 401 -139 427 -328 4 -36 15 -67 26 -77 17 -16 17 -11
12 128 -6 175 -14 197 -123 326 -90 107 -98 130 -119 349 -8 88 -18 181 -21
208 -4 26 -4 47 0 47 4 0 26 -10 49 -21z m-3154 -116 c24 -14 79 -59 121 -100
119 -113 208 -253 303 -473 48 -109 210 -541 205 -544 -2 -1 -51 0 -109 2
l-106 4 -19 61 c-18 57 -25 65 -72 93 -80 49 -161 54 -220 16 -29 -19 -59 -77
-73 -142 -8 -37 -15 -50 -28 -50 -14 0 -25 28 -54 133 -26 93 -56 170 -101
259 -35 70 -61 129 -58 132 18 19 50 1 88 -47 47 -61 110 -98 258 -152 55 -19
124 -48 153 -64 33 -18 53 -24 53 -17 0 7 -31 105 -69 217 -122 362 -211 535
-350 682 l-46 49 40 -17 c22 -9 60 -28 84 -42z m2095 5 c-47 -53 -142 -191
-164 -240 -13 -27 -14 -27 -97 -6 -37 9 -41 13 -33 29 20 37 125 142 185 185
50 35 137 83 153 84 2 0 -18 -24 -44 -52z m-2372 -216 c29 -42 92 -86 150
-103 18 -5 70 -12 116 -16 93 -7 86 0 126 -112 l27 -74 -89 6 c-211 13 -348
83 -411 207 -51 104 -51 199 1 266 l22 27 15 -80 c10 -49 27 -96 43 -121z
m2708 113 c16 -59 6 -125 -31 -202 -61 -127 -195 -196 -409 -209 -110 -7 -209
8 -367 57 -57 18 -105 30 -107 28 -7 -8 -335 -853 -332 -856 1 -2 21 7 44 19
22 13 43 20 47 17 13 -14 -28 -89 -59 -108 -17 -11 -47 -36 -65 -55 -41 -43
-50 -44 -80 -12 l-23 25 50 118 c118 278 286 714 362 941 27 79 51 146 53 149
3 2 24 -5 46 -17 66 -33 190 -79 271 -100 107 -27 194 -34 278 -21 161 25 240
104 258 256 l7 56 22 -21 c13 -12 28 -41 35 -65z m-3945 56 c52 -24 120 -99
151 -166 14 -30 34 -92 46 -139 l21 -85 37 57 c67 103 188 192 264 192 26 0
24 -3 -31 -43 -32 -24 -75 -63 -95 -87 -49 -57 -109 -175 -144 -283 l-29 -88
-11 94 c-16 122 -40 217 -75 295 -15 34 -29 62 -32 62 -2 0 6 -31 19 -68 40
-123 55 -244 59 -462 3 -218 2 -215 -16 30 -17 239 -27 256 -21 35 5 -189 -10
-520 -27 -580 -6 -25 -8 -26 -20 -11 -12 14 -11 41 3 174 20 196 21 454 1 587
-39 256 -139 414 -293 458 l-46 14 44 16 c62 21 146 21 195 -2z m2754 -126
c105 -165 65 -369 -84 -430 l-40 -17 36 39 c56 59 72 98 72 178 0 83 -23 137
-86 202 l-41 42 35 15 c58 26 76 21 108 -29z m-680 -92 c46 -158 235 -659 378
-1001 l55 -134 -23 -24 c-12 -13 -28 -24 -34 -24 -6 0 -30 20 -54 44 -80 82
-260 139 -380 121 -105 -16 -216 -110 -273 -231 -56 -121 -50 -319 17 -521 19
-56 48 -128 64 -161 l30 -60 -27 -7 c-15 -4 -60 -10 -101 -14 l-74 -7 -48 100
c-92 193 -125 366 -99 523 47 294 236 463 517 463 111 0 205 -20 288 -60 33
-16 61 -28 62 -26 2 2 -70 192 -274 714 -54 140 -56 144 -82 139 -14 -3 -33
-8 -42 -12 -12 -5 -27 14 -63 77 -25 46 -46 87 -47 92 0 8 155 83 176 85 6 1
21 -34 34 -76z m-2081 -66 c52 -106 63 -184 67 -457 2 -140 0 -232 -4 -215 -5
17 -9 95 -10 175 -2 232 -30 406 -86 528 -34 74 -5 47 33 -31z m762 -18 l45
-21 -42 -13 c-90 -27 -180 -96 -264 -203 -58 -72 -118 -170 -139 -227 -10 -28
-9 -28 22 10 82 100 148 145 247 166 67 14 146 -1 182 -34 l24 -22 -30 -3
c-82 -7 -165 -26 -212 -47 -118 -54 -230 -197 -309 -400 l-24 -60 6 70 c15
169 65 350 137 498 43 88 32 92 -22 8 -63 -97 -112 -280 -156 -571 -22 -149
-23 -152 -24 -80 -2 173 31 482 64 597 28 97 181 275 279 325 84 43 132 44
216 7z m-894 -131 c97 -90 164 -232 163 -346 l0 -67 -35 95 c-52 142 -120 274
-172 332 -54 59 -26 51 44 -14z m3373 -99 c29 -4 55 -10 57 -12 2 -1 -19 -72
-46 -157 -28 -85 -50 -156 -50 -157 0 0 24 12 53 27 28 16 106 49 172 75 140
54 214 99 251 155 25 38 64 54 78 32 3 -5 -24 -66 -60 -138 -45 -91 -74 -166
-98 -254 -27 -101 -37 -126 -53 -128 -16 -2 -21 7 -31 56 -30 146 -129 195
-267 133 -58 -26 -79 -55 -110 -151 -44 -136 -133 -356 -190 -471 -54 -106
-168 -283 -225 -349 l-30 -35 -55 59 c-30 33 -55 64 -55 69 0 6 22 44 49 86
105 164 194 367 360 821 49 135 101 271 116 304 24 54 27 58 53 51 15 -4 51
-11 81 -16z m-3471 -30 c159 -68 257 -263 276 -549 l5 -85 -24 95 c-26 100
-75 244 -81 237 -2 -2 3 -39 11 -82 9 -44 18 -127 21 -185 3 -58 14 -134 24
-170 10 -36 21 -78 25 -95 6 -30 6 -30 -10 -8 -9 13 -24 47 -35 77 -22 64 -96
226 -104 226 -3 0 1 -15 8 -32 8 -18 21 -58 30 -88 l16 -55 -30 35 c-16 19
-30 40 -30 46 0 24 -95 203 -151 287 l-61 90 47 -34 c66 -47 146 -136 195
-216 l42 -68 -7 60 c-26 227 -131 446 -255 528 l-25 16 35 -6 c19 -3 54 -14
78 -24z m937 -323 c47 -20 89 -82 121 -179 35 -106 57 -150 89 -175 l26 -20
-23 -16 c-12 -9 -42 -16 -66 -16 -88 0 -142 52 -197 194 -47 122 -82 166 -134
166 -44 0 -72 -18 -100 -64 -33 -52 -25 -53 20 -2 58 66 67 57 14 -15 -25 -34
-45 -66 -45 -72 0 -5 23 20 50 57 60 79 84 88 36 14 -44 -70 -88 -158 -79
-158 5 0 19 20 32 45 26 49 97 135 112 135 5 0 -11 -30 -35 -67 -55 -86 -104
-183 -128 -253 l-19 -55 5 43 c7 73 -3 49 -40 -93 -8 -29 -8 -29 -14 15 l-6
45 -13 -33 c-11 -27 -16 -31 -28 -20 -29 24 8 252 60 370 31 70 88 134 134
149 46 15 118 6 152 -18 14 -11 46 -58 71 -105 55 -105 65 -117 44 -52 -32
100 -47 140 -66 167 -22 31 -20 32 27 13z m-899 -311 c118 -116 136 -139 173
-215 56 -117 65 -165 16 -85 -49 80 -105 151 -156 200 l-43 40 40 -50 c104
-129 155 -230 203 -400 31 -111 71 -280 70 -293 0 -4 -22 55 -48 131 -62 177
-127 306 -247 492 -96 147 -165 281 -178 340 l-6 30 22 -30 c12 -16 81 -88
154 -160z m3520 -10 c158 -76 238 -226 251 -467 9 -159 -25 -303 -112 -479
-136 -276 -339 -493 -603 -644 -92 -53 -118 -55 -202 -18 l-43 19 71 42 c103
61 203 144 312 258 112 117 191 231 259 375 73 152 101 264 108 430 7 160 -10
259 -57 333 -30 46 -109 106 -141 106 -14 0 -15 6 -6 46 l11 46 40 -7 c23 -3
73 -21 112 -40z m-3012 -285 c138 -106 216 -182 247 -240 21 -40 24 -64 30
-220 6 -153 28 -308 55 -397 3 -10 -4 -2 -15 17 -31 56 -49 142 -67 314 -9 87
-22 177 -30 200 -12 37 -13 25 -10 -129 5 -215 27 -324 98 -488 50 -116 142
-260 233 -362 23 -26 21 -21 -10 35 -20 36 -57 106 -81 155 -45 89 -46 91 -41
170 8 138 57 282 57 169 0 -58 30 -175 65 -250 61 -134 157 -257 298 -382 106
-94 129 -107 77 -41 -79 100 -114 196 -123 337 -2 40 -2 71 0 68 3 -3 20 -39
38 -81 71 -164 165 -294 282 -390 69 -56 197 -125 271 -144 23 -7 42 -16 42
-21 0 -16 -25 -12 -110 19 -99 36 -182 86 -257 154 -45 41 -52 45 -35 20 54
-76 201 -174 334 -221 82 -28 97 -41 51 -43 -28 -1 -28 -1 4 -10 32 -9 54 -29
32 -29 -6 0 -63 12 -126 26 -94 21 -198 53 -378 118 -45 16 115 -64 168 -85
32 -12 56 -24 53 -26 -8 -8 -229 87 -353 152 -505 263 -844 641 -959 1069 -33
126 -29 138 10 31 45 -125 112 -253 195 -376 63 -93 151 -208 151 -197 0 3
-25 43 -56 89 -150 224 -270 536 -320 832 -26 154 -3 139 35 -23 l20 -85 -6
79 c-8 109 8 92 42 -44 15 -60 29 -110 32 -110 2 0 1 39 -3 88 -8 112 8 100
31 -23 22 -120 76 -347 81 -342 2 2 0 35 -5 73 -5 38 -13 111 -17 162 -9 125
10 121 26 -5 15 -127 42 -251 72 -334 27 -72 97 -203 105 -195 3 2 -5 30 -16
62 -60 160 -116 401 -130 556 -14 163 -54 235 -166 299 -27 16 -54 29 -58 29
-5 0 19 -30 52 -67 58 -65 98 -129 87 -140 -2 -3 -47 37 -98 88 -106 107 -155
188 -165 271 l-6 53 79 -75 c43 -42 128 -114 188 -160z m320 211 c-50 -30
-101 -99 -135 -180 -17 -42 -34 -78 -37 -81 -2 -3 -2 24 2 60 6 58 5 63 -8 44
-8 -11 -18 -33 -21 -47 -4 -15 -11 -27 -16 -27 -33 0 -15 103 27 157 30 40 65
59 141 77 78 19 83 19 47 -3z m1583 -42 c29 -9 40 -25 106 -162 126 -259 275
-456 435 -577 75 -56 230 -139 310 -165 l52 -17 -21 -30 c-12 -16 -28 -32 -35
-35 -19 -7 -188 49 -287 95 -213 100 -392 258 -539 477 -59 88 -194 351 -200
390 -6 40 87 52 179 24z m-974 -82 c75 -45 108 -147 73 -230 -15 -37 -46 -60
-98 -75 l-36 -10 24 46 c84 158 -81 268 -222 148 -114 -97 -135 -317 -47 -479
53 -97 190 -206 299 -238 42 -13 44 -15 44 -51 0 -21 -4 -38 -8 -38 -22 0
-159 53 -220 85 -141 74 -256 192 -303 312 -19 48 -23 78 -23 168 -1 103 1
114 31 177 67 143 201 222 364 215 61 -3 86 -9 122 -30z m2859 6 c157 -62 241
-190 240 -368 0 -144 -45 -246 -159 -357 -150 -145 -359 -226 -610 -236 -73
-2 -133 -2 -133 2 0 4 7 20 14 35 15 27 17 28 123 34 271 15 474 128 564 312
32 67 34 75 34 185 0 100 -3 122 -24 167 -61 137 -212 192 -292 107 -32 -34
-32 -105 0 -159 12 -21 21 -39 19 -40 -7 -7 -81 24 -100 42 -89 79 -42 248 81
288 59 19 180 13 243 -12z m-4247 -342 c86 -40 160 -123 196 -218 12 -32 10
-31 -60 59 -29 37 -67 78 -84 90 l-32 23 23 -30 c38 -50 72 -104 72 -115 0
-18 -19 -11 -31 13 -25 46 -105 141 -148 173 -39 30 -41 34 -20 34 13 0 51
-13 84 -29z m2081 -92 c73 -27 116 -75 122 -137 6 -63 -17 -108 -65 -128 -41
-17 -49 -14 -34 14 40 75 -17 158 -123 177 -40 8 -56 31 -56 81 0 24 2 24 53
18 28 -4 75 -15 103 -25z m1364 4 c0 -45 -11 -73 -29 -73 -40 0 -98 -25 -128
-55 -35 -35 -44 -86 -22 -127 15 -28 7 -31 -34 -14 -48 20 -71 65 -65 128 8
80 81 138 197 158 79 13 81 13 81 -17z m701 -84 c33 -28 59 -54 59 -57 0 -4
-10 -23 -21 -42 l-22 -35 -29 35 c-28 32 -30 33 -24 10 20 -78 21 -77 -25
-110 l-44 -32 -3 30 c-2 17 6 78 17 136 12 59 21 109 21 112 0 11 17 0 71 -47z
m-3874 19 c-3 -8 -6 -5 -6 6 -1 11 2 17 5 13 3 -3 4 -12 1 -19z m4990 -78 c-5
-37 -54 -137 -63 -128 -2 3 0 19 5 36 5 18 7 32 3 32 -3 0 -26 -19 -50 -42
l-44 -43 8 40 c6 36 6 39 -9 26 -9 -7 -26 -28 -37 -46 -26 -43 -53 -55 -40
-19 19 48 4 47 -28 -1 -25 -40 -49 -45 -54 -12 -3 20 -5 19 -25 -14 -18 -29
-58 -59 -78 -59 -12 0 45 81 85 120 56 57 102 78 198 95 43 8 86 22 101 34 14
11 28 20 30 20 2 1 1 -17 -2 -39z m-3613 -177 c-21 -69 -28 -188 -15 -258 18
-97 82 -215 159 -293 143 -142 331 -214 552 -211 69 0 96 -4 144 -24 l58 -24
-53 -6 c-148 -17 -231 -18 -319 -7 -349 45 -597 240 -670 526 -42 165 -13 351
72 459 l21 27 33 -71 c32 -69 32 -71 18 -118z m2179 109 c31 -56 61 -162 49
-174 -8 -8 -101 -28 -128 -28 -9 0 -14 12 -15 33 0 17 -6 50 -13 72 -11 35
-10 46 9 90 12 28 25 58 29 69 6 17 8 18 25 2 10 -9 30 -38 44 -64z m-3682 37
c60 -20 137 -86 164 -139 14 -27 25 -53 25 -57 0 -4 -24 16 -52 44 -52 49
-125 103 -141 103 -4 0 22 -27 58 -61 60 -56 144 -161 189 -234 10 -16 -35 22
-100 86 -132 127 -171 160 -258 212 -58 35 -59 37 -35 46 33 13 109 13 150 0z
m2430 -132 c-47 -32 -194 -104 -271 -131 -168 -61 -406 -101 -555 -94 l-70 3
-3 31 -3 31 113 6 c260 14 479 88 653 221 l70 54 46 -52 47 -51 -27 -18z m180
-226 c43 -33 87 -64 96 -70 21 -11 29 -3 -89 -93 -41 -32 -82 -58 -90 -58 -22
0 -198 134 -188 143 3 2 39 29 81 60 43 30 80 60 84 66 11 19 25 12 106 -48z
m-2460 -1 c58 -18 73 -28 159 -117 52 -54 113 -117 135 -141 l40 -43 -78 37
c-86 40 -113 41 -44 1 65 -38 194 -137 257 -196 61 -58 41 -46 -100 58 -118
88 -236 148 -317 164 -35 6 -63 15 -63 19 0 14 79 48 112 48 18 0 48 -4 66
-10 29 -8 32 -7 22 5 -31 37 -239 157 -315 181 l-40 13 51 0 c29 1 80 -8 115
-19z m1883 -92 c63 -77 196 -194 302 -264 393 -262 819 -255 1094 17 64 64
138 184 154 250 5 24 11 27 73 32 38 3 70 3 72 1 8 -8 -53 -162 -85 -212 -159
-248 -470 -376 -832 -343 -325 29 -580 135 -826 340 -87 74 -204 203 -188 209
11 3 160 29 177 30 6 1 32 -26 59 -60z m1915 -56 c53 -53 81 -119 81 -191 0
-62 -41 -146 -119 -244 -66 -83 -64 -83 41 -20 32 19 94 48 139 64 44 16 110
47 146 69 106 64 140 71 306 68 141 -3 146 -4 141 -23 -24 -76 -94 -164 -157
-196 -55 -28 -181 -59 -241 -59 -28 0 -78 6 -111 14 -133 30 -160 30 -236 -5
-76 -35 -86 -51 -15 -24 67 26 111 14 164 -43 39 -42 43 -44 37 -19 -10 37 14
36 58 -3 33 -29 64 -43 39 -18 -7 7 -12 16 -12 20 0 14 37 9 50 -7 7 -8 17
-15 22 -15 6 0 5 7 -2 15 -10 12 -9 16 4 21 9 3 23 1 31 -6 12 -10 15 -10 15
2 0 8 17 20 38 27 32 11 44 10 75 -3 20 -8 37 -19 37 -23 -1 -12 -70 -58 -117
-76 -112 -44 -199 -29 -337 57 l-72 45 -94 -30 c-51 -16 -104 -39 -118 -50
-40 -31 -53 -6 -16 32 l29 31 -33 -17 c-47 -23 -54 -9 -12 26 38 32 34 37 -11
13 -53 -27 -46 -5 19 55 l62 57 0 137 c0 146 1 151 62 257 21 36 38 75 38 87
0 34 16 28 69 -25z m-3457 -283 c26 -17 48 -32 48 -33 0 -2 -28 3 -62 10 -35
8 -81 14 -102 14 -43 0 -41 9 7 27 47 17 56 16 109 -18z m205 -129 c36 -6 70
-24 117 -60 37 -27 65 -50 63 -50 -3 0 -29 11 -59 25 -30 14 -82 29 -116 33
-67 9 -87 -1 -24 -13 106 -19 512 -203 512 -231 0 -8 -2 -14 -5 -14 -2 0 -67
29 -142 64 -238 109 -410 166 -507 166 l-39 0 24 26 c23 25 92 63 115 64 6 0
34 -4 61 -10z m2863 -122 c17 -24 65 -109 106 -190 l75 -148 50 0 c41 0 50 3
45 15 -3 9 0 15 9 15 28 0 15 17 -17 25 l-33 8 28 4 c38 6 34 19 -8 27 -44 9
-46 26 -2 26 24 0 28 3 17 10 -8 5 -25 10 -38 10 -29 0 -24 20 9 38 15 8 51
12 96 10 61 -3 78 -8 115 -34 24 -16 44 -38 46 -47 3 -14 -5 -17 -52 -17 -54
0 -55 0 -58 33 l-3 32 -14 -25 c-8 -13 -16 -55 -19 -93 -4 -62 -7 -69 -32 -82
-63 -32 -311 -48 -365 -23 -29 13 -51 51 -89 150 -49 131 -108 218 -147 218
-10 0 -47 -16 -84 -36 -42 -22 -78 -34 -95 -32 -26 3 -21 8 57 62 77 53 93 60
167 71 44 7 109 13 143 14 61 1 61 1 93 -41z m-1740 -24 c25 -13 62 -24 83
-24 49 0 71 -22 127 -128 57 -106 126 -184 185 -208 25 -11 45 -23 45 -28 0
-4 -38 -5 -85 -1 -93 7 -109 -2 -47 -29 l37 -16 -65 6 c-120 10 -136 24 -281
255 -87 138 -91 143 -133 153 -24 6 -28 4 -22 -10 4 -11 2 -15 -8 -11 -8 3
-32 11 -55 18 -23 7 -41 16 -41 20 0 8 51 25 100 33 45 7 114 -5 160 -30z
m1460 -112 c0 -5 -10 -14 -22 -20 -20 -10 -18 -11 21 -9 25 1 46 -3 48 -9 5
-16 -66 -34 -138 -34 -41 0 -59 -4 -49 -9 33 -19 96 -22 145 -6 58 17 75 19
75 6 0 -5 -18 -16 -40 -25 -30 -12 -75 -16 -180 -16 l-139 0 -81 -55 c-72 -49
-100 -59 -100 -37 0 4 27 24 60 46 34 21 59 41 56 43 -2 2 -31 -10 -65 -26
-41 -21 -61 -27 -61 -18 0 7 24 25 53 40 l52 27 -62 -6 c-93 -10 -84 13 25 59
74 32 103 39 197 46 155 12 205 12 205 3z m-720 -7 c0 -16 -26 -55 -37 -55
-16 0 -16 1 -3 34 5 14 16 26 25 26 8 0 15 -2 15 -5z m59 -27 c-11 -21 -36
-34 -46 -24 -4 3 -1 17 6 30 9 16 19 22 32 19 15 -4 17 -9 8 -25z m-132 -10
c-8 -21 -23 -34 -40 -39 -15 -4 -27 -6 -27 -3 0 8 63 74 71 74 5 0 3 -14 -4
-32z m203 1 c0 -6 -5 -19 -11 -31 -16 -29 -2 -35 24 -10 31 30 53 11 30 -25
-18 -27 -11 -42 11 -24 18 15 25 -2 33 -83 6 -56 5 -60 -11 -47 -25 21 -29 9
-12 -40 15 -43 14 -61 -3 -43 -16 18 -33 106 -22 117 13 13 14 37 2 37 -5 0
-16 -7 -24 -15 -13 -12 -13 -23 -1 -81 8 -37 12 -69 10 -71 -2 -3 -14 0 -25 7
-17 8 -21 20 -21 58 0 55 -20 79 -103 127 -41 23 -56 27 -104 23 -43 -4 -61
-10 -74 -27 -10 -12 -23 -20 -29 -16 -17 11 -11 44 11 55 31 17 149 43 201 44
38 1 50 6 68 29 21 27 50 37 50 16z m-472 -40 c61 -12 112 -25 112 -30 0 -12
-7 -12 -119 7 -53 9 -103 22 -111 30 -19 18 -15 18 118 -7z m-629 -19 c42 -11
100 -23 128 -27 53 -6 94 -25 81 -38 -8 -8 -240 57 -291 80 -18 9 -23 13 -13
10 10 -3 53 -14 95 -25z m-257 -32 c8 -7 32 -42 53 -77 21 -36 56 -82 77 -103
l39 -39 82 3 82 3 40 73 c32 57 45 72 63 72 23 0 22 -3 -24 -89 -26 -49 -57
-94 -69 -101 -30 -16 -316 -8 -360 9 -16 7 -45 27 -63 44 -35 33 -122 141
-122 151 0 3 32 6 71 6 49 0 68 3 63 11 -4 8 -27 9 -68 5 -72 -8 -72 -8 -113
0 -23 4 -33 12 -33 25 0 18 9 19 133 19 92 0 138 -4 149 -12z m911 -3 c42 -4
77 -11 77 -17 0 -10 -165 -2 -182 9 -15 9 -8 24 10 19 9 -2 52 -7 95 -11z
m1130 9 c17 -17 -30 -65 -83 -85 -128 -49 -232 -82 -332 -105 -122 -28 -118
-27 -118 -15 0 5 26 15 58 21 31 7 68 19 82 26 19 11 20 14 5 10 -11 -2 -33
-7 -50 -10 -105 -17 -105 -17 -105 -1 0 9 12 18 30 22 17 3 30 10 30 15 0 6
15 8 38 4 33 -6 35 -5 19 8 -24 18 -5 31 24 16 19 -11 20 -10 14 9 -8 25 8 27
45 6 36 -20 46 -18 25 5 -27 30 -11 35 29 10 20 -12 36 -17 36 -11 0 5 -4 13
-10 16 -5 3 -10 10 -10 16 0 15 49 10 77 -8 25 -17 25 -17 19 5 -8 25 4 28 36
11 16 -8 22 -8 29 2 12 20 99 45 112 33z m-1889 -65 c-14 -28 -28 -48 -31 -45
-10 10 28 96 43 96 11 0 8 -12 -12 -51z m60 19 c-13 -42 -51 -111 -56 -102 -7
12 42 124 54 124 5 0 6 -10 2 -22z m30 -56 c-14 -31 -28 -63 -31 -69 -5 -12
-23 -18 -23 -8 0 18 64 144 71 139 5 -2 -3 -30 -17 -62z m896 62 c0 -3 -16
-25 -35 -48 -40 -49 -43 -66 -15 -91 20 -18 20 -17 20 16 0 27 9 43 40 74 48
47 65 40 21 -10 -26 -30 -41 -65 -27 -65 2 0 23 16 47 35 42 33 77 49 51 23
-7 -7 -12 -19 -12 -27 0 -12 3 -11 18 2 34 31 52 16 52 -42 0 -15 9 -36 20
-46 30 -28 25 -43 -17 -47 -37 -4 -37 -4 15 -12 28 -5 52 -12 52 -17 0 -14
-72 -31 -109 -25 -81 13 -144 38 -173 69 -42 45 -60 84 -52 110 10 36 104 127
104 101z m-852 -84 c-17 -38 -35 -70 -41 -70 -10 0 -7 10 26 87 12 29 27 53
34 53 7 0 0 -27 -19 -70z m53 -2 c-16 -34 -34 -64 -41 -66 -7 -3 -11 0 -9 5
39 93 55 123 65 123 9 0 3 -21 -15 -62z m637 50 c21 -21 13 -28 -32 -28 -29 0
-52 7 -67 20 l-24 19 56 1 c30 0 60 -5 67 -12z m32 -112 c0 -8 -9 -17 -19 -21
-11 -3 -24 -12 -31 -20 -10 -12 -6 -12 25 -4 65 18 49 1 -41 -45 -87 -44 -103
-61 -30 -31 104 44 136 54 141 45 7 -11 -286 -154 -348 -171 -34 -9 -42 -8
-61 10 -18 17 -37 21 -131 23 -109 3 -110 3 -110 28 0 18 10 30 40 47 61 34
154 63 204 63 62 0 231 47 256 71 24 24 105 27 105 5z m765 -47 c65 -19 78
-19 178 -8 96 11 113 11 162 -5 55 -17 72 -40 38 -50 -10 -2 -41 -8 -70 -11
-40 -5 -64 -16 -108 -50 -30 -24 -68 -46 -83 -49 -34 -8 -143 20 -286 74 -60
22 -126 40 -147 40 -32 0 -39 4 -39 19 0 33 48 35 150 6 100 -29 132 -28 50 1
-27 10 -50 22 -50 26 0 12 19 10 99 -12 91 -26 112 -21 43 8 -29 13 -52 25
-52 27 0 11 49 4 115 -16z"/>
<path d="M5027 6754 c-4 -4 -7 -22 -7 -41 l0 -33 101 0 100 0 -3 38 -3 37 -90
3 c-50 1 -94 0 -98 -4z m155 -24 c10 0 17 -4 13 -9 -6 -11 -134 -12 -150 -3
-14 9 53 21 89 16 16 -2 37 -4 48 -4z"/>
<path d="M4815 6733 c-11 -2 -43 -9 -72 -14 l-51 -10 9 -31 c4 -17 10 -33 13
-35 4 -4 167 24 172 30 1 1 -1 17 -3 35 -5 33 -16 37 -68 25z m41 -30 c-9 -9
-129 -33 -135 -27 -8 7 8 16 41 24 44 10 103 12 94 3z"/>
<path d="M5356 6709 c-3 -18 -5 -34 -3 -35 6 -7 169 -35 173 -31 3 2 9 18 13
35 9 30 9 31 -37 41 -26 5 -68 12 -93 16 -46 7 -46 7 -53 -26z m148 -15 c9 -3
16 -11 16 -16 0 -6 -7 -8 -15 -4 -8 3 -37 8 -65 12 -28 4 -53 11 -57 17 -6 10
89 3 121 -9z"/>
<path d="M7353 6005 c36 -74 76 -203 103 -329 l24 -111 -3 131 c-3 129 -3 133
-40 205 -20 41 -53 92 -73 114 l-35 40 24 -50z"/>
<path d="M7357 5835 c3 -16 17 -52 30 -80 17 -37 22 -42 17 -20 -3 17 -16 53
-29 80 -18 36 -22 42 -18 20z"/>
<path d="M7337 5778 c9 -24 23 -52 31 -63 13 -19 14 -19 7 5 -9 31 -44 100
-50 100 -3 0 3 -19 12 -42z"/>
<path d="M7515 5698 c-4 -31 -5 -63 -2 -70 2 -7 8 13 12 44 4 31 5 63 2 70 -2
7 -8 -13 -12 -44z"/>
<path d="M7110 5476 c0 -3 52 -51 116 -107 64 -57 131 -126 150 -153 37 -55
42 -55 19 0 -25 60 -73 112 -176 190 -92 70 -109 80 -109 70z"/>
<path d="M7774 5347 c-23 -62 -61 -161 -85 -222 -43 -111 -80 -236 -73 -244
14 -15 99 140 139 253 37 102 68 249 63 295 -2 23 -12 6 -44 -82z"/>
<path d="M7210 5446 c0 -7 82 -57 87 -53 2 3 -13 17 -34 31 -35 24 -53 32 -53
22z"/>
<path d="M7290 5251 c25 -23 50 -41 55 -41 12 1 -51 56 -80 71 -11 5 0 -8 25
-30z"/>
<path d="M7651 5158 c-19 -85 -20 -88 -11 -83 9 6 35 124 28 131 -3 3 -11 -19
-17 -48z"/>
<path d="M7283 5074 c-8 -21 13 -42 28 -27 13 13 5 43 -11 43 -6 0 -13 -7 -17
-16z"/>
<path d="M7154 4896 c4 -11 12 -53 18 -95 14 -98 27 -122 93 -172 60 -45 105
-108 135 -190 l20 -54 -4 57 c-6 81 -37 141 -106 209 -48 47 -67 76 -99 150
-22 51 -45 97 -52 103 -9 8 -10 6 -5 -8z"/>
<path d="M7131 4820 c0 -14 7 -43 14 -65 l14 -40 -6 45 c-3 25 -9 54 -14 65
-7 18 -8 18 -8 -5z"/>
<path d="M7106 4775 c8 -37 14 -45 14 -19 0 10 -5 26 -10 34 -8 11 -9 7 -4
-15z"/>
<path d="M7310 4721 c25 -22 47 -37 49 -35 6 6 -72 73 -84 73 -5 0 10 -17 35
-38z"/>
<path d="M7355 4720 c10 -11 20 -20 23 -20 3 0 -3 9 -13 20 -10 11 -20 20 -23
20 -3 0 3 -9 13 -20z"/>
<path d="M7587 4294 c-13 -13 -7 -42 10 -48 21 -8 36 6 31 30 -3 19 -29 30
-41 18z"/>
<path d="M7575 3754 c-22 -13 -89 -35 -149 -49 -119 -28 -243 -76 -279 -107
-20 -18 -20 -19 -2 -13 11 4 83 23 160 42 151 37 247 78 291 124 33 34 31 34
-21 3z"/>
<path d="M6715 3621 c18 -51 54 -119 55 -103 0 15 -57 142 -64 142 -3 0 1 -17
9 -39z"/>
<path d="M2883 5708 c-46 -50 -80 -128 -55 -128 4 0 24 34 45 75 20 41 35 75
34 75 -2 0 -13 -10 -24 -22z"/>
<path d="M2722 5620 c0 -14 2 -19 5 -12 2 6 2 18 0 25 -3 6 -5 1 -5 -13z"/>
<path d="M3390 3504 c0 -16 87 -163 129 -219 87 -115 209 -220 363 -314 96
-58 97 -51 3 13 -169 113 -319 266 -439 445 -31 46 -56 80 -56 75z"/>
<path d="M6499 3428 c-21 -29 -24 -45 -24 -128 -1 -72 -6 -110 -23 -155 -26
-72 -4 -51 35 34 23 48 25 62 19 128 -4 55 -2 83 9 110 20 47 13 52 -16 11z"/>
<path d="M6541 3334 c0 -11 3 -14 6 -6 3 7 2 16 -1 19 -3 4 -6 -2 -5 -13z"/>
<path d="M6430 3216 c-5 -13 -11 -41 -15 -62 -5 -33 -4 -36 5 -15 13 30 30
101 24 101 -3 0 -9 -11 -14 -24z"/>
<path d="M6874 3188 l-19 -23 25 20 c14 11 27 21 29 22 2 2 0 3 -6 3 -5 0 -18
-10 -29 -22z"/>
<path d="M7115 3180 c-11 -5 -49 -7 -85 -4 -62 6 -67 5 -110 -28 -75 -58 -81
-60 -160 -47 -38 6 -78 9 -87 6 -21 -5 -15 -7 62 -27 99 -26 105 -25 170 21
54 39 67 44 136 49 46 4 85 13 99 23 26 18 10 22 -25 7z"/>
<path d="M6879 3159 l-24 -20 28 17 c15 9 27 18 27 20 0 8 -8 4 -31 -17z"/>
<path d="M7048 3123 c7 -3 16 -2 19 1 4 3 -2 6 -13 5 -11 0 -14 -3 -6 -6z"/>
<path d="M6990 3100 c13 -9 109 -15 99 -6 -2 2 -29 6 -59 10 -38 4 -50 3 -40
-4z"/>
<path d="M6080 2750 c0 -6 28 -10 64 -10 36 0 68 5 71 10 4 6 -20 10 -64 10
-41 0 -71 -4 -71 -10z"/>
<path d="M6145 2710 c-21 -5 -7 -8 50 -8 53 0 73 2 60 8 -24 10 -69 10 -110 0z"/>
<path d="M6200 2670 c-28 -6 -20 -8 39 -9 41 0 72 1 70 3 -10 9 -77 13 -109 6z"/>
<path d="M4555 2680 c11 -5 45 -9 75 -9 40 0 49 3 35 9 -11 5 -45 9 -75 9 -40
0 -49 -3 -35 -9z"/>
<path d="M4600 2640 c37 -12 122 -12 115 0 -3 6 -36 10 -73 9 -49 -1 -60 -3
-42 -9z"/>
<path d="M3813 2653 c20 -2 54 -2 75 0 20 2 3 4 -38 4 -41 0 -58 -2 -37 -4z"/>
<path d="M4452 2413 c-35 -14 -61 -28 -58 -31 3 -2 47 -4 97 -3 81 2 94 0 114
-19 32 -30 65 -19 65 21 0 61 -109 77 -218 32z"/>
<path d="M5856 2465 c-98 -15 -131 -48 -90 -89 21 -22 23 -21 84 24 30 22 72
45 94 51 29 8 36 13 25 20 -8 5 -18 8 -24 7 -5 0 -46 -6 -89 -13z"/>
<path d="M7232 7668 l-102 -122 26 -27 c53 -55 101 -43 182 45 47 51 72 96 72
129 0 29 -40 91 -61 95 -10 2 -55 -45 -117 -120z"/>
<path d="M8150 6475 c0 -2 7 -23 16 -45 18 -45 18 -45 112 -4 28 13 52 27 52
32 0 5 -30 12 -67 15 -82 8 -113 9 -113 2z"/>
<path d="M8465 5596 c-70 -11 -70 -11 -67 -41 5 -53 8 -55 71 -55 79 0 106 20
96 73 -4 20 -12 36 -19 36 -6 -1 -42 -6 -81 -13z"/>
<path d="M1683 5165 c-37 -16 -51 -62 -34 -108 15 -38 46 -47 160 -47 150 0
177 16 169 100 -4 46 -18 46 -52 0 -17 -22 -33 -40 -37 -40 -10 0 7 60 21 74
5 5 10 16 10 23 0 19 -194 17 -237 -2z"/>
<path d="M8156 4307 c-9 -14 -19 -40 -23 -59 -4 -30 -1 -38 22 -56 35 -28 143
-62 215 -69 46 -4 58 -2 73 15 27 30 34 88 12 112 -22 24 -159 69 -231 77 -47
5 -53 3 -68 -20z"/>
<path d="M1952 3860 c-18 -11 -35 -27 -38 -35 -5 -13 13 -85 21 -85 2 0 38 16
80 35 l76 34 -15 29 c-24 47 -69 55 -124 22z"/>
<path d="M8169 3853 c-15 -38 5 -72 54 -96 49 -25 79 -16 100 28 17 35 17 36
-6 44 -12 5 -46 18 -75 30 -29 12 -55 21 -58 21 -2 0 -9 -12 -15 -27z"/>
<path d="M2231 3591 c-150 -77 -179 -123 -122 -191 27 -33 30 -34 68 -24 52
14 202 103 220 132 17 25 7 64 -28 101 -28 29 -53 26 -138 -18z"/>
<path d="M6746 2249 c-14 -11 -26 -27 -26 -35 0 -24 38 -92 61 -108 20 -13 25
-13 53 1 17 8 33 17 35 19 6 5 -79 144 -88 144 -5 0 -20 -9 -35 -21z"/>
<path d="M6020 2123 c-55 -20 -62 -64 -29 -177 42 -139 68 -168 133 -146 46
15 60 34 58 80 -2 52 -47 191 -73 224 -20 25 -52 32 -89 19z"/>
<path d="M4844 1857 c3 -18 12 -53 20 -78 l13 -44 32 67 c17 37 31 72 31 78 0
5 -23 10 -51 10 l-51 0 6 -33z"/>
<path d="M4426 1858 c-24 -40 -29 -93 -9 -116 22 -25 83 -40 83 -20 0 7 6 46
14 86 l14 72 -44 0 c-34 0 -47 -5 -58 -22z"/>
<path d="M5668 1864 c-32 -17 -43 -49 -34 -98 9 -49 37 -70 81 -62 33 7 36 10
31 34 -30 158 -28 154 -78 126z"/>
</g>
</svg>
